SplineFontDB: 3.2
FontName: IRANSansWeb
FullName: IRANSansWeb
FamilyName: IRANSansWeb
Weight: Book
Copyright: Copyright (c) 2015 by www.fontiran.com (Moslem Ebrahimi). All rights reserved.
Version: 4.20 February 11, 2016
ItalicAngle: 0
UnderlinePosition: -700
UnderlineWidth: 100
Ascent: 1840
Descent: 460
InvalidEm: 0
sfntRevision: 0x00043333
woffMajor: 4
woffMinor: 13107
LayerCount: 2
Layer: 0 1 "Back" 1
Layer: 1 1 "Fore" 0
XUID: [1021 473 546433721 1364872]
StyleMap: 0x0040
FSType: 0
OS2Version: 3
OS2_WeightWidthSlopeOnly: 0
OS2_UseTypoMetrics: 0
CreationTime: 1455209172
ModificationTime: 1591256892
PfmFamily: 17
TTFWeight: 400
TTFWidth: 5
LineGap: 0
VLineGap: 0
Panose: 2 4 5 3 5 2 1 2 2 3
OS2TypoAscent: 2300
OS2TypoAOffset: 0
OS2TypoDescent: -1300
OS2TypoDOffset: 0
OS2TypoLinegap: 0
OS2WinAscent: 2400
OS2WinAOffset: 0
OS2WinDescent: 1400
OS2WinDOffset: 0
HheadAscent: 2400
HheadAOffset: 0
HheadDescent: -1400
HheadDOffset: 0
OS2SubXSize: 1434
OS2SubYSize: 1331
OS2SubXOff: 0
OS2SubYOff: 287
OS2SupXSize: 1434
OS2SupYSize: 1331
OS2SupXOff: 0
OS2SupYOff: 977
OS2StrikeYSize: 102
OS2StrikeYPos: 778
OS2CapHeight: 1635
OS2XHeight: 1183
OS2Vendor: '1ASC'
OS2CodePages: 00000041.00080000
OS2UnicodeRanges: 80002063.80000040.00000008.00000000
Lookup: 4 1 0 "'ccmp' Glyph Composition/Decomposition in Arabic lookup 0" { "'ccmp' Glyph Composition/Decomposition in Arabic lookup 0 subtable"  } ['ccmp' ('arab' <'FAR ' 'URD ' 'dflt' > ) ]
Lookup: 1 9 0 "'init' Initial Forms in Arabic lookup 1" { "'init' Initial Forms in Arabic lookup 1 subtable"  } ['init' ('arab' <'FAR ' 'URD ' 'dflt' > ) ]
Lookup: 1 9 0 "'isol' Isolated Forms in Arabic lookup 2" { "'isol' Isolated Forms in Arabic lookup 2 subtable"  } ['isol' ('arab' <'FAR ' 'URD ' 'dflt' > ) ]
Lookup: 1 9 0 "'medi' Medial Forms in Arabic lookup 3" { "'medi' Medial Forms in Arabic lookup 3 subtable"  } ['medi' ('arab' <'FAR ' 'URD ' 'dflt' > ) ]

StartChar: .notdef
Encoding: 65536 -1 0
Width: 1229
GlyphClass: 2
Flags: W
LayerCount: 2
Fore
SplineSet
102 -362 m 1,0,-1
 102 1444 l 1,1,-1
 1126 1444 l 1,2,-1
 1126 -362 l 1,3,-1
 102 -362 l 1,0,-1
217 -248 m 1,4,-1
 1012 -248 l 1,5,-1
 1012 1329 l 1,6,-1
 217 1329 l 1,7,-1
 217 -248 l 1,4,-1
EndSplineSet
EndChar

StartChar: uni0621
Encoding: 1569 1569 4
AltUni2: 00fe80.ffffffff.0
Width: 1019
GlyphClass: 2
Flags: W
AnchorPoint: "Anchor-1" 540 -160 basechar 0
AnchorPoint: "Anchor-0" 550 860 basechar 0
LayerCount: 2
Fore
SplineSet
746 503 m 1,0,1
 728 512 728 512 708 519 c 0,2,3
 691 525 691 525 667.5 531.5 c 128,-1,4
 644 538 644 538 616 543 c 0,5,6
 572 549 572 549 525 542 c 1,7,8
 475 529 475 529 441 492 c 128,-1,9
 407 455 407 455 398 408 c 0,10,11
 395 385 395 385 402 353 c 2,12,-1
 401 356 l 2,13,14
 408 329 408 329 423.5 304.5 c 128,-1,15
 439 280 439 280 461 260 c 128,-1,16
 483 240 483 240 510 226.5 c 128,-1,17
 537 213 537 213 567 209 c 0,18,19
 583 207 583 207 598.5 206 c 128,-1,20
 614 205 614 205 630 210 c 0,21,22
 670 216 670 216 709 229 c 128,-1,23
 748 242 748 242 779 255 c 0,24,25
 815 269 815 269 848 287 c 1,26,-1
 915 162 l 1,27,28
 853 129 853 129 760.5 94 c 128,-1,29
 668 59 668 59 535 10 c 2,30,-1
 179 -122 l 1,31,-1
 129 14 l 1,32,-1
 409 119 l 1,33,34
 354 153 354 153 315 206 c 128,-1,35
 276 259 276 259 262 320 c 0,36,37
 248 372 248 372 257 429 c 0,38,39
 264 474 264 474 284 514.5 c 128,-1,40
 304 555 304 555 335 588 c 128,-1,41
 366 621 366 621 406 644.5 c 128,-1,42
 446 668 446 668 492 679 c 0,43,44
 566 696 566 696 638 685 c 0,45,46
 671 680 671 680 701 670.5 c 128,-1,47
 731 661 731 661 755 653 c 0,48,49
 782 642 782 642 807 631 c 1,50,-1
 746 503 l 1,0,1
EndSplineSet
PairPos2: "'kern' Horizontal Kerning in Arabic lookup 4 subtable" parenleft dx=-200 dy=0 dh=-200 dv=0 dx=0 dy=0 dh=0 dv=0
EndChar

StartChar: uni0627
Encoding: 1575 1575 5
AltUni2: 00fe8d.ffffffff.0
Width: 536
GlyphClass: 2
Flags: W
AnchorPoint: "Anchor-1" 280 -140 basechar 0
AnchorPoint: "Anchor-0" 260 1740 basechar 0
LayerCount: 2
Fore
SplineSet
368 1579 m 1,0,1
 412 1172 412 1172 419 851 c 0,2,3
 430 321 430 321 403 -9 c 1,4,-1
 206 2 l 1,5,6
 238 447 238 447 226 749 c 0,7,8
 206 1234 206 1234 172 1549 c 1,9,-1
 368 1579 l 1,0,1
EndSplineSet
Substitution2: "'fina' Terminal Forms in Arabic lookup 7 subtable" uniFE8E
PairPos2: "'kern' Horizontal Kerning in Arabic lookup 4 subtable" uniFB90 dx=150 dy=0 dh=150 dv=0 dx=0 dy=0 dh=0 dv=0
PairPos2: "'kern' Horizontal Kerning in Arabic lookup 4 subtable" uniFB94 dx=150 dy=0 dh=150 dv=0 dx=0 dy=0 dh=0 dv=0
PairPos2: "'kern' Horizontal Kerning in Arabic lookup 4 subtable" uni06AF dx=150 dy=0 dh=150 dv=0 dx=0 dy=0 dh=0 dv=0
PairPos2: "'kern' Horizontal Kerning in Arabic lookup 4 subtable" uni06A9 dx=150 dy=0 dh=150 dv=0 dx=0 dy=0 dh=0 dv=0
PairPos2: "'kern' Horizontal Kerning in Arabic lookup 4 subtable" uniFEDB dx=150 dy=0 dh=150 dv=0 dx=0 dy=0 dh=0 dv=0
EndChar

StartChar: uniFE8E
Encoding: 65166 65166 6
Width: 624
GlyphClass: 2
Flags: W
AnchorPoint: "Anchor-1" 360 -140 basechar 0
AnchorPoint: "Anchor-0" 300 1680 basechar 0
LayerCount: 2
Fore
SplineSet
626 0 m 0,0,1
 516 0 516 0 437.5 26 c 128,-1,2
 359 52 359 52 305 106 c 0,3,4
 272 139 272 139 254.5 177 c 128,-1,5
 237 215 237 215 228.5 252 c 128,-1,6
 220 289 220 289 219 322.5 c 128,-1,7
 218 356 218 356 218 380 c 2,8,-1
 218 399 l 2,9,10
 218 400 218 400 219 435.5 c 128,-1,11
 220 471 220 471 220.5 531.5 c 128,-1,12
 221 592 221 592 221 671 c 128,-1,13
 221 750 221 750 220 838 c 0,14,15
 220 924 220 924 218 1017 c 128,-1,16
 216 1110 216 1110 212 1197 c 128,-1,17
 208 1284 208 1284 201 1357.5 c 128,-1,18
 194 1431 194 1431 185 1478 c 1,19,-1
 381 1514 l 1,20,21
 390 1463 390 1463 397 1389 c 128,-1,22
 404 1315 404 1315 408.5 1228 c 128,-1,23
 413 1141 413 1141 415 1046.5 c 128,-1,24
 417 952 417 952 417 862 c 0,25,26
 418 774 418 774 418 693 c 128,-1,27
 418 612 418 612 418 549 c 128,-1,28
 418 486 418 486 417.5 445 c 128,-1,29
 417 404 417 404 417 396 c 2,30,-1
 417 378 l 2,31,32
 416 334 416 334 420 300.5 c 128,-1,33
 424 267 424 267 447 245 c 0,34,35
 492 198 492 198 617 197 c 2,36,-1
 626 197 l 2,37,38
 646 197 646 197 664 189 c 128,-1,39
 682 181 682 181 695.5 167.5 c 128,-1,40
 709 154 709 154 717 136 c 128,-1,41
 725 118 725 118 725 98 c 0,42,43
 725 56 725 56 696 28 c 128,-1,44
 667 0 667 0 626 0 c 0,0,1
EndSplineSet
PairPos2: "'kern' Horizontal Kerning in Arabic lookup 4 subtable" uniFB90 dx=150 dy=0 dh=150 dv=0 dx=0 dy=0 dh=0 dv=0
PairPos2: "'kern' Horizontal Kerning in Arabic lookup 4 subtable" uniFB94 dx=150 dy=0 dh=150 dv=0 dx=0 dy=0 dh=0 dv=0
PairPos2: "'kern' Horizontal Kerning in Arabic lookup 4 subtable" uni06AF dx=150 dy=0 dh=150 dv=0 dx=0 dy=0 dh=0 dv=0
PairPos2: "'kern' Horizontal Kerning in Arabic lookup 4 subtable" uni06A9 dx=150 dy=0 dh=150 dv=0 dx=0 dy=0 dh=0 dv=0
PairPos2: "'kern' Horizontal Kerning in Arabic lookup 4 subtable" uniFEDB dx=150 dy=0 dh=150 dv=0 dx=0 dy=0 dh=0 dv=0
EndChar

StartChar: uni062D
Encoding: 1581 1581 7
AltUni2: 00fea1.ffffffff.0
Width: 1647
GlyphClass: 2
Flags: W
AnchorPoint: "Anchor-1" 540 -910 basechar 0
AnchorPoint: "Anchor-0" 660 1280 basechar 0
LayerCount: 2
Fore
SplineSet
868 -587 m 0,0,1
 1010 -587 1010 -587 1137 -545 c 128,-1,2
 1264 -503 1264 -503 1387 -415 c 1,3,-1
 1501 -576 l 1,4,5
 1353 -678 1353 -678 1186 -734.5 c 128,-1,6
 1019 -791 1019 -791 830 -791 c 0,7,8
 676 -791 676 -791 542 -749 c 128,-1,9
 408 -707 408 -707 308.5 -627 c 128,-1,10
 209 -547 209 -547 151.5 -430 c 128,-1,11
 94 -313 94 -313 94 -164 c 0,12,13
 94 -153 94 -153 94 -142.5 c 128,-1,14
 94 -132 94 -132 95 -120 c 0,15,16
 101 -15 101 -15 146.5 79 c 128,-1,17
 192 173 192 173 268 253 c 128,-1,18
 344 333 344 333 445.5 397 c 128,-1,19
 547 461 547 461 665.5 506 c 128,-1,20
 784 551 784 551 915 574.5 c 128,-1,21
 1046 598 1046 598 1180 598 c 1,22,23
 1117 626 1117 626 1057.5 662.5 c 128,-1,24
 998 699 998 699 947 725 c 0,25,26
 902 748 902 748 864.5 769.5 c 128,-1,27
 827 791 827 791 789.5 808.5 c 128,-1,28
 752 826 752 826 711 837 c 128,-1,29
 670 848 670 848 618 849 c 0,30,31
 577 849 577 849 534 831.5 c 128,-1,32
 491 814 491 814 450.5 785.5 c 128,-1,33
 410 757 410 757 375.5 721.5 c 128,-1,34
 341 686 341 686 317 649 c 1,35,36
 270 679 270 679 234 702.5 c 128,-1,37
 198 726 198 726 155 754 c 1,38,39
 191 814 191 814 237 865 c 128,-1,40
 283 916 283 916 340 954.5 c 128,-1,41
 397 993 397 993 466.5 1016.5 c 128,-1,42
 536 1040 536 1040 619 1046 c 1,43,44
 736 1044 736 1044 846.5 1003.5 c 128,-1,45
 957 963 957 963 1062 894 c 0,46,47
 1141 842 1141 842 1206.5 802.5 c 128,-1,48
 1272 763 1272 763 1330.5 734.5 c 128,-1,49
 1389 706 1389 706 1443 686.5 c 128,-1,50
 1497 667 1497 667 1553 655 c 1,51,52
 1544 621 1544 621 1536 592.5 c 128,-1,53
 1528 564 1528 564 1520 536.5 c 128,-1,54
 1512 509 1512 509 1504 481 c 128,-1,55
 1496 453 1496 453 1487 420 c 1,56,57
 1446 420 1446 420 1421.5 421 c 128,-1,58
 1397 422 1397 422 1371 423 c 0,59,60
 1262 425 1262 425 1141 408.5 c 128,-1,61
 1020 392 1020 392 902.5 359 c 128,-1,62
 785 326 785 326 677.5 277 c 128,-1,63
 570 228 570 228 486.5 165 c 128,-1,64
 403 102 403 102 351 25.5 c 128,-1,65
 299 -51 299 -51 292 -139 c 1,66,67
 290 -254 290 -254 338 -338 c 128,-1,68
 386 -422 386 -422 466 -477.5 c 128,-1,69
 546 -533 546 -533 650.5 -560 c 128,-1,70
 755 -587 755 -587 868 -587 c 0,0,1
EndSplineSet
Substitution2: "'fina' Terminal Forms in Arabic lookup 7 subtable" uniFEA2
Substitution2: "'medi' Medial Forms in Arabic lookup 3 subtable" uniFEA4
Substitution2: "'init' Initial Forms in Arabic lookup 1 subtable" uniFEA3
EndChar

StartChar: uniFEA3
Encoding: 65187 65187 8
Width: 1587
GlyphClass: 2
Flags: W
AnchorPoint: "Anchor-1" 600 -150 basechar 0
AnchorPoint: "Anchor-0" 800 1100 basechar 0
LayerCount: 2
Fore
SplineSet
-101 98 m 0,0,1
 -101 140 -101 140 -72 168 c 128,-1,2
 -43 196 -43 196 -1 196 c 2,3,-1
 197 196 l 2,4,5
 331 196 331 196 463.5 221.5 c 128,-1,6
 596 247 596 247 725 289 c 128,-1,7
 854 331 854 331 977 385 c 128,-1,8
 1100 439 1100 439 1214 496 c 1,9,10
 1146 520 1146 520 1082.5 548 c 128,-1,11
 1019 576 1019 576 958 605 c 0,12,13
 911 627 911 627 866.5 647.5 c 128,-1,14
 822 668 822 668 781 684 c 128,-1,15
 740 700 740 700 702.5 709.5 c 128,-1,16
 665 719 665 719 634 719 c 0,17,18
 593 719 593 719 556 701 c 128,-1,19
 519 683 519 683 487.5 655.5 c 128,-1,20
 456 628 456 628 431 596.5 c 128,-1,21
 406 565 406 565 388.5 537.5 c 128,-1,22
 371 510 371 510 361 491.5 c 128,-1,23
 351 473 351 473 351 472 c 2,24,-1
 171 553 l 2,25,26
 172 555 172 555 179.5 570.5 c 128,-1,27
 187 586 187 586 201 610.5 c 128,-1,28
 215 635 215 635 236 665.5 c 128,-1,29
 257 696 257 696 284 728 c 0,30,31
 361 822 361 822 449.5 869 c 128,-1,32
 538 916 538 916 634 916 c 0,33,34
 682 916 682 916 732 905 c 128,-1,35
 782 894 782 894 833 875.5 c 128,-1,36
 884 857 884 857 936.5 833 c 128,-1,37
 989 809 989 809 1043 784 c 0,38,39
 1102 756 1102 756 1162.5 729 c 128,-1,40
 1223 702 1223 702 1284 680.5 c 128,-1,41
 1345 659 1345 659 1406 646 c 128,-1,42
 1467 633 1467 633 1529 633 c 1,43,-1
 1567 443 l 1,44,45
 1497 414 1497 414 1427.5 380.5 c 128,-1,46
 1358 347 1358 347 1284 310 c 0,47,48
 1174 255 1174 255 1047.5 200 c 128,-1,49
 921 145 921 145 782.5 100.5 c 128,-1,50
 644 56 644 56 496 28 c 128,-1,51
 348 0 348 0 197 0 c 2,52,-1
 7 0 l 1,53,-1
 -1 0 l 2,54,55
 -22 0 -22 0 -40 7.5 c 128,-1,56
 -58 15 -58 15 -71.5 28.5 c 128,-1,57
 -85 42 -85 42 -93 60 c 128,-1,58
 -101 78 -101 78 -101 98 c 0,0,1
EndSplineSet
EndChar

StartChar: uniFEA4
Encoding: 65188 65188 9
Width: 1667
GlyphClass: 2
Flags: W
AnchorPoint: "Anchor-1" 600 -150 basechar 0
AnchorPoint: "Anchor-0" 800 1100 basechar 0
LayerCount: 2
Fore
SplineSet
-99 97 m 0,0,1
 -99 117 -99 117 -91.5 135 c 128,-1,2
 -84 153 -84 153 -70.5 166.5 c 128,-1,3
 -57 180 -57 180 -39 188 c 128,-1,4
 -21 196 -21 196 0 196 c 2,5,-1
 183 196 l 2,6,7
 317 196 317 196 440.5 221.5 c 128,-1,8
 564 247 564 247 680 288 c 128,-1,9
 796 329 796 329 906 381.5 c 128,-1,10
 1016 434 1016 434 1124 487 c 2,11,-1
 1142 496 l 1,12,13
 1074 520 1074 520 1010.5 549 c 128,-1,14
 947 578 947 578 886 606 c 0,15,16
 840 628 840 628 795.5 648 c 128,-1,17
 751 668 751 668 709.5 683.5 c 128,-1,18
 668 699 668 699 630.5 708.5 c 128,-1,19
 593 718 593 718 561 718 c 0,20,21
 519 718 519 718 482 700 c 128,-1,22
 445 682 445 682 414 655 c 128,-1,23
 383 628 383 628 358 596.5 c 128,-1,24
 333 565 333 565 316 537.5 c 128,-1,25
 299 510 299 510 289.5 491.5 c 128,-1,26
 280 473 280 473 280 473 c 1,27,-1
 99 555 l 2,28,29
 99 556 99 556 106.5 571 c 128,-1,30
 114 586 114 586 128.5 611 c 128,-1,31
 143 636 143 636 163.5 667 c 128,-1,32
 184 698 184 698 211 730 c 0,33,34
 289 821 289 821 377.5 869 c 128,-1,35
 466 917 466 917 561 917 c 0,36,37
 609 917 609 917 659 906 c 128,-1,38
 709 895 709 895 760 876.5 c 128,-1,39
 811 858 811 858 863.5 834.5 c 128,-1,40
 916 811 916 811 970 786 c 0,41,42
 1029 757 1029 757 1089.5 730 c 128,-1,43
 1150 703 1150 703 1211 681 c 128,-1,44
 1272 659 1272 659 1333.5 646 c 128,-1,45
 1395 633 1395 633 1456 633 c 1,46,-1
 1495 444 l 1,47,48
 1450 425 1450 425 1404.5 403.5 c 128,-1,49
 1359 382 1359 382 1313 360 c 1,50,51
 1324 322 1324 322 1348.5 295.5 c 128,-1,52
 1373 269 1373 269 1405 250.5 c 128,-1,53
 1437 232 1437 232 1472.5 221.5 c 128,-1,54
 1508 211 1508 211 1542 205 c 128,-1,55
 1576 199 1576 199 1605.5 197.5 c 128,-1,56
 1635 196 1635 196 1653 196 c 2,57,-1
 1659 196 l 1,58,-1
 1667 196 l 2,59,60
 1688 196 1688 196 1706 188 c 128,-1,61
 1724 180 1724 180 1737.5 166.5 c 128,-1,62
 1751 153 1751 153 1758.5 135 c 128,-1,63
 1766 117 1766 117 1766 97 c 0,64,65
 1766 55 1766 55 1737.5 27.5 c 128,-1,66
 1709 0 1709 0 1667 0 c 2,67,-1
 1653 0 l 2,68,69
 1554 0 1554 0 1470 18.5 c 128,-1,70
 1386 37 1386 37 1320 72 c 128,-1,71
 1254 107 1254 107 1206.5 157.5 c 128,-1,72
 1159 208 1159 208 1134 272 c 1,73,74
 1032 221 1032 221 922 172 c 128,-1,75
 812 123 812 123 694 84.5 c 128,-1,76
 576 46 576 46 448.5 22.5 c 128,-1,77
 321 -1 321 -1 183 -1 c 2,78,-1
 0 0 l 2,79,80
 -42 0 -42 0 -70.5 27.5 c 128,-1,81
 -99 55 -99 55 -99 97 c 0,0,1
EndSplineSet
EndChar

StartChar: uniFEA2
Encoding: 65186 65186 10
Width: 1702
GlyphClass: 2
Flags: W
AnchorPoint: "Anchor-1" 400 -950 basechar 0
AnchorPoint: "Anchor-0" 660 1260 basechar 0
LayerCount: 2
Fore
SplineSet
912 -791 m 0,0,1
 770 -791 770 -791 642 -750.5 c 128,-1,2
 514 -710 514 -710 413.5 -637 c 128,-1,3
 313 -564 313 -564 246.5 -464 c 128,-1,4
 180 -364 180 -364 160 -245.5 c 128,-1,5
 140 -127 140 -127 173 6 c 128,-1,6
 206 139 206 139 306 278 c 1,7,8
 426 418 426 418 606 502 c 0,9,10
 729 559 729 559 860 591 c 128,-1,11
 991 623 991 623 1117 638 c 1,12,-1
 1009 690 l 2,13,14
 904 743 904 743 817 781.5 c 128,-1,15
 730 820 730 820 672 828 c 0,16,17
 533 847 533 847 421 729 c 0,18,19
 388 693 388 693 367.5 660 c 128,-1,20
 347 627 347 627 338 609 c 2,21,-1
 333 597 l 1,22,-1
 149 673 l 1,23,24
 151 677 151 677 159.5 695 c 128,-1,25
 168 713 168 713 184 739.5 c 128,-1,26
 200 766 200 766 223 798 c 128,-1,27
 246 830 246 830 277 863 c 0,28,29
 365 960 365 960 471.5 1000 c 128,-1,30
 578 1040 578 1040 698 1024 c 0,31,32
 782 1013 782 1013 878.5 970.5 c 128,-1,33
 975 928 975 928 1096 868 c 0,34,35
 1205 814 1205 814 1328 757 c 128,-1,36
 1451 700 1451 700 1596 652 c 1,37,-1
 1558 460 l 2,38,39
 1556 460 1556 460 1539.5 460.5 c 128,-1,40
 1523 461 1523 461 1493.5 461.5 c 128,-1,41
 1464 462 1464 462 1423.5 461 c 128,-1,42
 1383 460 1383 460 1334 457 c 1,43,44
 1332 446 1332 446 1331.5 426.5 c 128,-1,45
 1331 407 1331 407 1334 384 c 128,-1,46
 1337 361 1337 361 1346 336 c 128,-1,47
 1355 311 1355 311 1373 289 c 0,48,49
 1397 260 1397 260 1427.5 242 c 128,-1,50
 1458 224 1458 224 1497.5 213.5 c 128,-1,51
 1537 203 1537 203 1587 199.5 c 128,-1,52
 1637 196 1637 196 1700 196 c 0,53,54
 1720 196 1720 196 1738 188 c 128,-1,55
 1756 180 1756 180 1769.5 166.5 c 128,-1,56
 1783 153 1783 153 1791 135 c 128,-1,57
 1799 117 1799 117 1799 96 c 0,58,59
 1799 55 1799 55 1770 27.5 c 128,-1,60
 1741 0 1741 0 1700 0 c 0,61,62
 1608 0 1608 0 1533.5 10.5 c 128,-1,63
 1459 21 1459 21 1400 42 c 128,-1,64
 1341 63 1341 63 1295.5 94.5 c 128,-1,65
 1250 126 1250 126 1216 169 c 0,66,67
 1180 217 1180 217 1159 275.5 c 128,-1,68
 1138 334 1138 334 1135 401 c 0,69,70
 1132 422 1132 422 1135 439 c 1,71,72
 1023 425 1023 425 908 398 c 128,-1,73
 793 371 793 371 688 323 c 0,74,75
 664 312 664 312 631.5 293 c 128,-1,76
 599 274 599 274 563 247.5 c 128,-1,77
 527 221 527 221 491.5 186.5 c 128,-1,78
 456 152 456 152 426 108.5 c 128,-1,79
 396 65 396 65 375.5 12.5 c 128,-1,80
 355 -40 355 -40 350 -103 c 0,81,82
 342 -231 342 -231 393 -328 c 128,-1,83
 444 -425 444 -425 534 -488.5 c 128,-1,84
 624 -552 624 -552 740 -581 c 128,-1,85
 856 -610 856 -610 978 -603 c 128,-1,86
 1100 -596 1100 -596 1215 -551.5 c 128,-1,87
 1330 -507 1330 -507 1418 -423 c 1,88,-1
 1547 -575 l 1,89,90
 1476 -638 1476 -638 1398 -679.5 c 128,-1,91
 1320 -721 1320 -721 1238.5 -745.5 c 128,-1,92
 1157 -770 1157 -770 1074.5 -780.5 c 128,-1,93
 992 -791 992 -791 912 -791 c 0,0,1
EndSplineSet
EndChar

StartChar: uni062F
Encoding: 1583 1583 11
AltUni2: 00fea9.ffffffff.0
Width: 1127
GlyphClass: 2
Flags: W
AnchorPoint: "Anchor-1" 450 -160 basechar 0
AnchorPoint: "Anchor-0" 510 1340 basechar 0
LayerCount: 2
Fore
SplineSet
545 1 m 0,0,1
 497 1 497 1 431.5 13 c 128,-1,2
 366 25 366 25 301 43.5 c 128,-1,3
 236 62 236 62 182 85 c 128,-1,4
 128 108 128 108 103 131 c 1,5,-1
 185 319 l 1,6,7
 222 295 222 295 274 272.5 c 128,-1,8
 326 250 326 250 385 233.5 c 128,-1,9
 444 217 444 217 506.5 209 c 128,-1,10
 569 201 569 201 627 206 c 128,-1,11
 685 211 685 211 735 231 c 128,-1,12
 785 251 785 251 819 292 c 0,13,14
 846 323 846 323 826 408 c 0,15,16
 815 457 815 457 790.5 510.5 c 128,-1,17
 766 564 766 564 731.5 617.5 c 128,-1,18
 697 671 697 671 655 722 c 128,-1,19
 613 773 613 773 567.5 816.5 c 128,-1,20
 522 860 522 860 475 894 c 128,-1,21
 428 928 428 928 383 948 c 1,22,-1
 464 1130 l 1,23,24
 523 1103 523 1103 583 1060 c 128,-1,25
 643 1017 643 1017 699.5 963 c 128,-1,26
 756 909 756 909 807.5 846.5 c 128,-1,27
 859 784 859 784 901 717.5 c 128,-1,28
 943 651 943 651 974 584 c 128,-1,29
 1005 517 1005 517 1020 453 c 0,30,31
 1032 397 1032 397 1032 352 c 128,-1,32
 1032 307 1032 307 1023.5 272 c 128,-1,33
 1015 237 1015 237 1001 211 c 128,-1,34
 987 185 987 185 971 166 c 0,35,36
 879 55 879 55 714 19 c 0,37,38
 676 9 676 9 634 5 c 128,-1,39
 592 1 592 1 545 1 c 0,0,1
EndSplineSet
Substitution2: "'fina' Terminal Forms in Arabic lookup 7 subtable" uniFEAA
PairPos2: "'kern' Horizontal Kerning in Arabic lookup 4 subtable" parenleft dx=-200 dy=0 dh=-200 dv=0 dx=0 dy=0 dh=0 dv=0
PairPos2: "'kern' Horizontal Kerning in Arabic lookup 4 subtable" uniFB90 dx=-50 dy=0 dh=-50 dv=0 dx=0 dy=0 dh=0 dv=0
PairPos2: "'kern' Horizontal Kerning in Arabic lookup 4 subtable" uniFB94 dx=-50 dy=0 dh=-50 dv=0 dx=0 dy=0 dh=0 dv=0
PairPos2: "'kern' Horizontal Kerning in Arabic lookup 4 subtable" uni06AF dx=-50 dy=0 dh=-50 dv=0 dx=0 dy=0 dh=0 dv=0
PairPos2: "'kern' Horizontal Kerning in Arabic lookup 4 subtable" uni06A9 dx=-50 dy=0 dh=-50 dv=0 dx=0 dy=0 dh=0 dv=0
PairPos2: "'kern' Horizontal Kerning in Arabic lookup 4 subtable" uniFEDB dx=-50 dy=0 dh=-50 dv=0 dx=0 dy=0 dh=0 dv=0
EndChar

StartChar: uni0631
Encoding: 1585 1585 12
AltUni2: 00fead.ffffffff.0
Width: 739
GlyphClass: 2
Flags: W
AnchorPoint: "Anchor-1" 320 -760 basechar 0
AnchorPoint: "Anchor-0" 400 880 basechar 0
LayerCount: 2
Fore
SplineSet
494 650 m 1,0,1
 522 557 522 557 547 466 c 0,2,3
 557 427 557 427 568 385 c 128,-1,4
 579 343 579 343 588.5 301 c 128,-1,5
 598 259 598 259 605 219.5 c 128,-1,6
 612 180 612 180 616 146 c 0,7,8
 617 135 617 135 618 121 c 128,-1,9
 619 107 619 107 619 90 c 0,10,11
 619 3 619 3 593.5 -79 c 128,-1,12
 568 -161 568 -161 522.5 -236.5 c 128,-1,13
 477 -312 477 -312 414.5 -381 c 128,-1,14
 352 -450 352 -450 278.5 -510.5 c 128,-1,15
 205 -571 205 -571 123.5 -623 c 128,-1,16
 42 -675 42 -675 -42 -716 c 1,17,-1
 -129 -540 l 1,18,19
 -24 -488 -24 -488 75 -419.5 c 128,-1,20
 174 -351 174 -351 251.5 -270 c 128,-1,21
 329 -189 329 -189 376 -98 c 128,-1,22
 423 -7 423 -7 423 90 c 0,23,24
 423 95 423 95 422 106.5 c 128,-1,25
 421 118 421 118 420 129 c 2,26,-1
 420 128 l 2,27,28
 417 159 417 159 410 195.5 c 128,-1,29
 403 232 403 232 394 270.5 c 128,-1,30
 385 309 385 309 375 347.5 c 128,-1,31
 365 386 365 386 355 422 c 0,32,33
 331 506 331 506 304 590 c 1,34,-1
 494 650 l 1,0,1
EndSplineSet
Substitution2: "'fina' Terminal Forms in Arabic lookup 7 subtable" uniFEAE
PairPos2: "'kern' Horizontal Kerning in Arabic lookup 4 subtable" parenleft dx=100 dy=0 dh=100 dv=0 dx=0 dy=0 dh=0 dv=0
PairPos2: "'kern' Horizontal Kerning in Arabic lookup 4 subtable" uni0626 dx=100 dy=0 dh=100 dv=0 dx=0 dy=0 dh=0 dv=0
PairPos2: "'kern' Horizontal Kerning in Arabic lookup 4 subtable" uni06CC dx=100 dy=0 dh=100 dv=0 dx=0 dy=0 dh=0 dv=0
PairPos2: "'kern' Horizontal Kerning in Arabic lookup 4 subtable" uni064A dx=100 dy=0 dh=100 dv=0 dx=0 dy=0 dh=0 dv=0
PairPos2: "'kern' Horizontal Kerning in Arabic lookup 4 subtable" uni0646 dx=100 dy=0 dh=100 dv=0 dx=0 dy=0 dh=0 dv=0
PairPos2: "'kern' Horizontal Kerning in Arabic lookup 4 subtable" uni0642 dx=100 dy=0 dh=100 dv=0 dx=0 dy=0 dh=0 dv=0
PairPos2: "'kern' Horizontal Kerning in Arabic lookup 4 subtable" uniFB90 dx=-150 dy=0 dh=-150 dv=0 dx=0 dy=0 dh=0 dv=0
PairPos2: "'kern' Horizontal Kerning in Arabic lookup 4 subtable" uni063A dx=100 dy=0 dh=100 dv=0 dx=0 dy=0 dh=0 dv=0
PairPos2: "'kern' Horizontal Kerning in Arabic lookup 4 subtable" uni062E dx=100 dy=0 dh=100 dv=0 dx=0 dy=0 dh=0 dv=0
PairPos2: "'kern' Horizontal Kerning in Arabic lookup 4 subtable" uni062C dx=100 dy=0 dh=100 dv=0 dx=0 dy=0 dh=0 dv=0
PairPos2: "'kern' Horizontal Kerning in Arabic lookup 4 subtable" uni0686 dx=100 dy=0 dh=100 dv=0 dx=0 dy=0 dh=0 dv=0
PairPos2: "'kern' Horizontal Kerning in Arabic lookup 4 subtable" uni06BA dx=100 dy=0 dh=100 dv=0 dx=0 dy=0 dh=0 dv=0
PairPos2: "'kern' Horizontal Kerning in Arabic lookup 4 subtable" uniFB94 dx=-150 dy=0 dh=-150 dv=0 dx=0 dy=0 dh=0 dv=0
PairPos2: "'kern' Horizontal Kerning in Arabic lookup 4 subtable" uni06AF dx=-150 dy=0 dh=-150 dv=0 dx=0 dy=0 dh=0 dv=0
PairPos2: "'kern' Horizontal Kerning in Arabic lookup 4 subtable" uni06A9 dx=-150 dy=0 dh=-150 dv=0 dx=0 dy=0 dh=0 dv=0
PairPos2: "'kern' Horizontal Kerning in Arabic lookup 4 subtable" uni066F dx=100 dy=0 dh=100 dv=0 dx=0 dy=0 dh=0 dv=0
PairPos2: "'kern' Horizontal Kerning in Arabic lookup 4 subtable" uni0649 dx=100 dy=0 dh=100 dv=0 dx=0 dy=0 dh=0 dv=0
PairPos2: "'kern' Horizontal Kerning in Arabic lookup 4 subtable" uni0644 dx=100 dy=0 dh=100 dv=0 dx=0 dy=0 dh=0 dv=0
PairPos2: "'kern' Horizontal Kerning in Arabic lookup 4 subtable" uniFEDB dx=-150 dy=0 dh=-150 dv=0 dx=0 dy=0 dh=0 dv=0
PairPos2: "'kern' Horizontal Kerning in Arabic lookup 4 subtable" uni0639 dx=100 dy=0 dh=100 dv=0 dx=0 dy=0 dh=0 dv=0
PairPos2: "'kern' Horizontal Kerning in Arabic lookup 4 subtable" uni062D dx=100 dy=0 dh=100 dv=0 dx=0 dy=0 dh=0 dv=0
EndChar

StartChar: uniFEAE
Encoding: 65198 65198 13
Width: 816
GlyphClass: 2
Flags: W
AnchorPoint: "Anchor-1" 360 -740 basechar 0
AnchorPoint: "Anchor-0" 420 800 basechar 0
LayerCount: 2
Fore
SplineSet
625 69 m 2,0,1
 625 -18 625 -18 599.5 -100 c 128,-1,2
 574 -182 574 -182 528.5 -258 c 128,-1,3
 483 -334 483 -334 420.5 -402.5 c 128,-1,4
 358 -471 358 -471 284.5 -532 c 128,-1,5
 211 -593 211 -593 129.5 -644.5 c 128,-1,6
 48 -696 48 -696 -36 -738 c 1,7,-1
 -122 -561 l 1,8,9
 -50 -524 -50 -524 21 -480 c 128,-1,10
 92 -436 92 -436 155 -385 c 128,-1,11
 218 -334 218 -334 271 -277 c 128,-1,12
 324 -220 324 -220 360.5 -158 c 128,-1,13
 397 -96 397 -96 415 -29.5 c 128,-1,14
 433 37 433 37 426 108 c 1,15,-1
 426 106 l 1,16,17
 419 163 419 163 404.5 228.5 c 128,-1,18
 390 294 390 294 372.5 357 c 128,-1,19
 355 420 355 420 338.5 475.5 c 128,-1,20
 322 531 322 531 310 568 c 1,21,-1
 498 626 l 1,22,23
 536 510 536 510 572.5 428.5 c 128,-1,24
 609 347 609 347 647.5 295.5 c 128,-1,25
 686 244 686 244 728 220 c 128,-1,26
 770 196 770 196 820 196 c 2,27,-1
 825 196 l 2,28,29
 846 196 846 196 864 188 c 128,-1,30
 882 180 882 180 895.5 166.5 c 128,-1,31
 909 153 909 153 916.5 135 c 128,-1,32
 924 117 924 117 924 97 c 0,33,34
 924 55 924 55 895.5 27.5 c 128,-1,35
 867 0 867 0 825 0 c 2,36,-1
 824 0 l 2,37,38
 810 0 810 0 787.5 1 c 128,-1,39
 765 2 765 2 737.5 9 c 128,-1,40
 710 16 710 16 681 31 c 128,-1,41
 652 46 652 46 625 73 c 1,42,-1
 625 69 l 2,0,1
EndSplineSet
PairPos2: "'kern' Horizontal Kerning in Arabic lookup 4 subtable" parenleft dx=100 dy=0 dh=100 dv=0 dx=0 dy=0 dh=0 dv=0
PairPos2: "'kern' Horizontal Kerning in Arabic lookup 4 subtable" uni0626 dx=100 dy=0 dh=100 dv=0 dx=0 dy=0 dh=0 dv=0
PairPos2: "'kern' Horizontal Kerning in Arabic lookup 4 subtable" uni06CC dx=100 dy=0 dh=100 dv=0 dx=0 dy=0 dh=0 dv=0
PairPos2: "'kern' Horizontal Kerning in Arabic lookup 4 subtable" uni064A dx=100 dy=0 dh=100 dv=0 dx=0 dy=0 dh=0 dv=0
PairPos2: "'kern' Horizontal Kerning in Arabic lookup 4 subtable" uni0646 dx=100 dy=0 dh=100 dv=0 dx=0 dy=0 dh=0 dv=0
PairPos2: "'kern' Horizontal Kerning in Arabic lookup 4 subtable" uni0642 dx=100 dy=0 dh=100 dv=0 dx=0 dy=0 dh=0 dv=0
PairPos2: "'kern' Horizontal Kerning in Arabic lookup 4 subtable" uniFB90 dx=-150 dy=0 dh=-150 dv=0 dx=0 dy=0 dh=0 dv=0
PairPos2: "'kern' Horizontal Kerning in Arabic lookup 4 subtable" uni063A dx=100 dy=0 dh=100 dv=0 dx=0 dy=0 dh=0 dv=0
PairPos2: "'kern' Horizontal Kerning in Arabic lookup 4 subtable" uni062E dx=100 dy=0 dh=100 dv=0 dx=0 dy=0 dh=0 dv=0
PairPos2: "'kern' Horizontal Kerning in Arabic lookup 4 subtable" uni062C dx=100 dy=0 dh=100 dv=0 dx=0 dy=0 dh=0 dv=0
PairPos2: "'kern' Horizontal Kerning in Arabic lookup 4 subtable" uni0686 dx=100 dy=0 dh=100 dv=0 dx=0 dy=0 dh=0 dv=0
PairPos2: "'kern' Horizontal Kerning in Arabic lookup 4 subtable" uni06BA dx=100 dy=0 dh=100 dv=0 dx=0 dy=0 dh=0 dv=0
PairPos2: "'kern' Horizontal Kerning in Arabic lookup 4 subtable" uniFB94 dx=-150 dy=0 dh=-150 dv=0 dx=0 dy=0 dh=0 dv=0
PairPos2: "'kern' Horizontal Kerning in Arabic lookup 4 subtable" uni06AF dx=-150 dy=0 dh=-150 dv=0 dx=0 dy=0 dh=0 dv=0
PairPos2: "'kern' Horizontal Kerning in Arabic lookup 4 subtable" uni06A9 dx=-150 dy=0 dh=-150 dv=0 dx=0 dy=0 dh=0 dv=0
PairPos2: "'kern' Horizontal Kerning in Arabic lookup 4 subtable" uni066F dx=100 dy=0 dh=100 dv=0 dx=0 dy=0 dh=0 dv=0
PairPos2: "'kern' Horizontal Kerning in Arabic lookup 4 subtable" uni0649 dx=100 dy=0 dh=100 dv=0 dx=0 dy=0 dh=0 dv=0
PairPos2: "'kern' Horizontal Kerning in Arabic lookup 4 subtable" uni0644 dx=100 dy=0 dh=100 dv=0 dx=0 dy=0 dh=0 dv=0
PairPos2: "'kern' Horizontal Kerning in Arabic lookup 4 subtable" uniFEDB dx=-150 dy=0 dh=-150 dv=0 dx=0 dy=0 dh=0 dv=0
PairPos2: "'kern' Horizontal Kerning in Arabic lookup 4 subtable" uni0639 dx=100 dy=0 dh=100 dv=0 dx=0 dy=0 dh=0 dv=0
PairPos2: "'kern' Horizontal Kerning in Arabic lookup 4 subtable" uni062D dx=100 dy=0 dh=100 dv=0 dx=0 dy=0 dh=0 dv=0
EndChar

StartChar: uni0633
Encoding: 1587 1587 14
AltUni2: 00feb1.ffffffff.0
Width: 2692
GlyphClass: 2
Flags: W
AnchorPoint: "Anchor-1" 1500 -640 basechar 0
AnchorPoint: "Anchor-0" 1600 1040 basechar 0
LayerCount: 2
Fore
SplineSet
2428 924 m 1,0,1
 2433 914 2433 914 2446.5 888 c 128,-1,2
 2460 862 2460 862 2477.5 824 c 128,-1,3
 2495 786 2495 786 2513.5 738 c 128,-1,4
 2532 690 2532 690 2547.5 637 c 128,-1,5
 2563 584 2563 584 2573 527 c 128,-1,6
 2583 470 2583 470 2583 415 c 0,7,8
 2582 329 2582 329 2562.5 254 c 128,-1,9
 2543 179 2543 179 2502.5 123 c 128,-1,10
 2462 67 2462 67 2398 35 c 128,-1,11
 2334 3 2334 3 2243 3 c 0,12,13
 2215 3 2215 3 2183 11.5 c 128,-1,14
 2151 20 2151 20 2119 36.5 c 128,-1,15
 2087 53 2087 53 2058 78 c 128,-1,16
 2029 103 2029 103 2008 135 c 1,17,18
 1948 64 1948 64 1873 35 c 128,-1,19
 1798 6 1798 6 1714 2 c 0,20,21
 1666 0 1666 0 1629 9 c 128,-1,22
 1592 18 1592 18 1566 30 c 0,23,24
 1535 44 1535 44 1513 63 c 1,25,26
 1516 -24 1516 -24 1503.5 -107.5 c 128,-1,27
 1491 -191 1491 -191 1460 -266.5 c 128,-1,28
 1429 -342 1429 -342 1377.5 -407 c 128,-1,29
 1326 -472 1326 -472 1250 -522 c 0,30,31
 1158 -585 1158 -585 1041.5 -618 c 128,-1,32
 925 -651 925 -651 780 -658 c 0,33,34
 770 -658 770 -658 760 -658.5 c 128,-1,35
 750 -659 750 -659 741 -659 c 0,36,37
 609 -659 609 -659 500.5 -621.5 c 128,-1,38
 392 -584 392 -584 307 -509 c 0,39,40
 231 -442 231 -442 181.5 -348 c 128,-1,41
 132 -254 132 -254 116 -143 c 0,42,43
 106 -82 106 -82 107 -20.5 c 128,-1,44
 108 41 108 41 115 98 c 128,-1,45
 122 155 122 155 134 205.5 c 128,-1,46
 146 256 146 256 158 296 c 0,47,48
 189 398 189 398 224.5 470.5 c 128,-1,49
 260 543 260 543 286 578 c 1,50,-1
 445 461 l 1,51,52
 425 435 425 435 397.5 374 c 128,-1,53
 370 313 370 313 346.5 233 c 128,-1,54
 323 153 323 153 311.5 62 c 128,-1,55
 300 -29 300 -29 312 -115 c 0,56,57
 316 -141 316 -141 325.5 -177 c 128,-1,58
 335 -213 335 -213 354.5 -251 c 128,-1,59
 374 -289 374 -289 404.5 -326.5 c 128,-1,60
 435 -364 435 -364 481 -393.5 c 128,-1,61
 527 -423 527 -423 590 -441.5 c 128,-1,62
 653 -460 653 -460 738 -460 c 2,63,-1
 771 -460 l 1,64,65
 984 -451 984 -451 1113.5 -376 c 128,-1,66
 1243 -301 1243 -301 1288 -162 c 0,67,68
 1314 -80 1314 -80 1316.5 3 c 128,-1,69
 1319 86 1319 86 1306.5 165 c 128,-1,70
 1294 244 1294 244 1270.5 315.5 c 128,-1,71
 1247 387 1247 387 1222 445 c 0,72,73
 1198 499 1198 499 1180.5 528 c 128,-1,74
 1163 557 1163 557 1163 559 c 2,75,-1
 1330 667 l 1,76,77
 1336 651 1336 651 1346 629 c 0,78,79
 1354 610 1354 610 1365.5 583.5 c 128,-1,80
 1377 557 1377 557 1393 522 c 0,81,82
 1420 459 1420 459 1449.5 400.5 c 128,-1,83
 1479 342 1479 342 1515.5 297 c 128,-1,84
 1552 252 1552 252 1598 226 c 128,-1,85
 1644 200 1644 200 1705 202 c 0,86,87
 1757 203 1757 203 1789.5 223 c 128,-1,88
 1822 243 1822 243 1841.5 276 c 128,-1,89
 1861 309 1861 309 1868.5 353 c 128,-1,90
 1876 397 1876 397 1878.5 446.5 c 128,-1,91
 1881 496 1881 496 1879.5 548.5 c 128,-1,92
 1878 601 1878 601 1879 651 c 1,93,-1
 2082 671 l 1,94,95
 2083 656 2083 656 2084 641 c 0,96,97
 2085 628 2085 628 2085 613 c 128,-1,98
 2085 598 2085 598 2086 585 c 0,99,100
 2087 560 2087 560 2089.5 521.5 c 128,-1,101
 2092 483 2092 483 2098 439.5 c 128,-1,102
 2104 396 2104 396 2115 352 c 128,-1,103
 2126 308 2126 308 2143.5 272.5 c 128,-1,104
 2161 237 2161 237 2187 215 c 128,-1,105
 2213 193 2213 193 2250 193 c 0,106,107
 2284 193 2284 193 2310.5 212.5 c 128,-1,108
 2337 232 2337 232 2355 265 c 128,-1,109
 2373 298 2373 298 2381 340.5 c 128,-1,110
 2389 383 2389 383 2387 429 c 0,111,112
 2384 493 2384 493 2368.5 551.5 c 128,-1,113
 2353 610 2353 610 2333 662 c 128,-1,114
 2313 714 2313 714 2291 757 c 128,-1,115
 2269 800 2269 800 2253 832 c 1,116,-1
 2428 924 l 1,0,1
EndSplineSet
Substitution2: "'fina' Terminal Forms in Arabic lookup 7 subtable" uniFEB2
Substitution2: "'medi' Medial Forms in Arabic lookup 3 subtable" uniFEB4
Substitution2: "'init' Initial Forms in Arabic lookup 1 subtable" uniFEB3
EndChar

StartChar: uniFEB3
Encoding: 65203 65203 15
Width: 1658
GlyphClass: 2
Flags: W
AnchorPoint: "Anchor-1" 780 -220 basechar 0
AnchorPoint: "Anchor-0" 800 1020 basechar 0
LayerCount: 2
Fore
SplineSet
-92 97 m 0,0,1
 -92 116 -92 116 -85 133.5 c 128,-1,2
 -78 151 -78 151 -65.5 164.5 c 128,-1,3
 -53 178 -53 178 -36 186 c 128,-1,4
 -19 194 -19 194 0 196 c 0,5,6
 59 196 59 196 106.5 219 c 128,-1,7
 154 242 154 242 190.5 280.5 c 128,-1,8
 227 319 227 319 255 369 c 128,-1,9
 283 419 283 419 303 473.5 c 128,-1,10
 323 528 323 528 336.5 583.5 c 128,-1,11
 350 639 350 639 360 688 c 1,12,-1
 558 646 l 1,13,14
 550 622 550 622 538.5 584 c 128,-1,15
 527 546 527 546 516 502.5 c 128,-1,16
 505 459 505 459 497 413.5 c 128,-1,17
 489 368 489 368 489 329 c 0,18,19
 489 302 489 302 494 276.5 c 128,-1,20
 499 251 499 251 511 231 c 128,-1,21
 523 211 523 211 544 199 c 128,-1,22
 565 187 565 187 597 187 c 0,23,24
 648 187 648 187 688.5 215 c 128,-1,25
 729 243 729 243 760.5 288 c 128,-1,26
 792 333 792 333 815 390 c 128,-1,27
 838 447 838 447 854.5 506 c 128,-1,28
 871 565 871 565 882 620.5 c 128,-1,29
 893 676 893 676 899 717 c 1,30,-1
 1091 682 l 1,31,32
 1091 682 1091 682 1085.5 649.5 c 128,-1,33
 1080 617 1080 617 1072.5 570.5 c 128,-1,34
 1065 524 1065 524 1059 471.5 c 128,-1,35
 1053 419 1053 419 1053 378 c 0,36,37
 1053 341 1053 341 1058.5 307.5 c 128,-1,38
 1064 274 1064 274 1076.5 248.5 c 128,-1,39
 1089 223 1089 223 1109.5 206.5 c 128,-1,40
 1130 190 1130 190 1160 187 c 0,41,42
 1206 181 1206 181 1236.5 188 c 128,-1,43
 1267 195 1267 195 1285 206.5 c 128,-1,44
 1303 218 1303 218 1311.5 231 c 128,-1,45
 1320 244 1320 244 1323 250 c 1,46,-1
 1322 250 l 1,47,48
 1336 272 1336 272 1341.5 300 c 128,-1,49
 1347 328 1347 328 1347 360 c 0,50,51
 1347 417 1347 417 1331.5 483 c 128,-1,52
 1316 549 1316 549 1294.5 612.5 c 128,-1,53
 1273 676 1273 676 1249.5 730.5 c 128,-1,54
 1226 785 1226 785 1210 817 c 1,55,-1
 1385 909 l 1,56,57
 1390 899 1390 899 1404 870.5 c 128,-1,58
 1418 842 1418 842 1436 800.5 c 128,-1,59
 1454 759 1454 759 1473.5 707 c 128,-1,60
 1493 655 1493 655 1509 597.5 c 128,-1,61
 1525 540 1525 540 1535.5 480 c 128,-1,62
 1546 420 1546 420 1546 363 c 0,63,64
 1546 277 1546 277 1522 207.5 c 128,-1,65
 1498 138 1498 138 1450 89 c 128,-1,66
 1402 40 1402 40 1329.5 13.5 c 128,-1,67
 1257 -13 1257 -13 1160 -12 c 0,68,69
 1121 -12 1121 -12 1083 0 c 128,-1,70
 1045 12 1045 12 1010 32.5 c 128,-1,71
 975 53 975 53 945 80.5 c 128,-1,72
 915 108 915 108 894 140 c 1,73,74
 834 70 834 70 758 29 c 128,-1,75
 682 -12 682 -12 597 -12 c 0,76,77
 560 -12 560 -12 520.5 -2.5 c 128,-1,78
 481 7 481 7 445 26 c 128,-1,79
 409 45 409 45 379.5 73 c 128,-1,80
 350 101 350 101 334 138 c 1,81,82
 274 75 274 75 198 38 c 128,-1,83
 122 1 122 1 16 -1 c 2,84,-1
 0 -1 l 2,85,86
 -19 0 -19 0 -36 8 c 128,-1,87
 -53 16 -53 16 -65.5 29 c 128,-1,88
 -78 42 -78 42 -85 59.5 c 128,-1,89
 -92 77 -92 77 -92 97 c 0,0,1
EndSplineSet
EndChar

StartChar: uniFEB4
Encoding: 65204 65204 16
Width: 1851
GlyphClass: 2
Flags: W
AnchorPoint: "Anchor-1" 800 -160 basechar 0
AnchorPoint: "Anchor-0" 860 1000 basechar 0
LayerCount: 2
Fore
SplineSet
-108 98 m 0,0,1
 -108 117 -108 117 -99.5 134.5 c 128,-1,2
 -91 152 -91 152 -77.5 165.5 c 128,-1,3
 -64 179 -64 179 -46 187 c 128,-1,4
 -28 195 -28 195 -9 196 c 2,5,-1
 1 196 l 2,6,7
 43 196 43 196 81 218.5 c 128,-1,8
 119 241 119 241 152 276 c 128,-1,9
 185 311 185 311 212.5 354 c 128,-1,10
 240 397 240 397 262 438 c 0,11,12
 283 478 283 478 299.5 517.5 c 128,-1,13
 316 557 316 557 329 591.5 c 128,-1,14
 342 626 342 626 350.5 653.5 c 128,-1,15
 359 681 359 681 364 697 c 0,16,17
 369 720 369 720 369 721 c 2,18,-1
 561 668 l 2,19,20
 560 667 560 667 558.5 661 c 128,-1,21
 557 655 557 655 554 644 c 0,22,23
 548 621 548 621 539 577 c 128,-1,24
 530 533 530 533 522 479 c 0,25,26
 511 392 511 392 517 326.5 c 128,-1,27
 523 261 523 261 544 227 c 0,28,29
 558 201 558 201 588 198 c 0,30,31
 600 195 600 195 610 195 c 0,32,33
 648 195 648 195 683 220 c 0,34,35
 728 254 728 254 771 327 c 128,-1,36
 814 400 814 400 848 506 c 0,37,38
 865 555 865 555 876 599 c 128,-1,39
 887 643 887 643 893 674 c 0,40,41
 898 699 898 699 901 713.5 c 128,-1,42
 904 728 904 728 904 730 c 2,43,-1
 1099 693 l 2,44,45
 1097 692 1097 692 1095 677.5 c 128,-1,46
 1093 663 1093 663 1088 637 c 256,47,48
 1083 611 1083 611 1079 573.5 c 128,-1,49
 1075 536 1075 536 1074 494 c 0,50,51
 1069 403 1069 403 1082 336 c 128,-1,52
 1095 269 1095 269 1123 235 c 0,53,54
 1134 221 1134 221 1152.5 210 c 128,-1,55
 1171 199 1171 199 1208 199 c 0,56,57
 1260 199 1260 199 1292 235 c 0,58,59
 1326 272 1326 272 1346.5 344 c 128,-1,60
 1367 416 1367 416 1373 514 c 0,61,62
 1375 559 1375 559 1375 597.5 c 128,-1,63
 1375 636 1375 636 1373 664 c 0,64,65
 1370 689 1370 689 1369.5 704.5 c 128,-1,66
 1369 720 1369 720 1369 721 c 2,67,-1
 1565 737 l 1,68,69
 1567 732 1567 732 1569 681 c 0,70,71
 1572 660 1572 660 1575.5 633 c 128,-1,72
 1579 606 1579 606 1585 574.5 c 128,-1,73
 1591 543 1591 543 1599 508.5 c 128,-1,74
 1607 474 1607 474 1618 440 c 0,75,76
 1697 196 1697 196 1839 196 c 2,77,-1
 1851 196 l 1,78,-1
 1859 196 l 2,79,80
 1901 196 1901 196 1929 168 c 128,-1,81
 1957 140 1957 140 1957 98 c 0,82,83
 1957 57 1957 57 1929 28.5 c 128,-1,84
 1901 0 1901 0 1859 0 c 2,85,-1
 1851 0 l 1,86,-1
 1839 0 l 2,87,88
 1758 0 1758 0 1687.5 33.5 c 128,-1,89
 1617 67 1617 67 1561 132 c 0,90,91
 1533 163 1533 163 1506 207 c 1,92,93
 1478 145 1478 145 1440 104 c 0,94,95
 1395 53 1395 53 1336 26.5 c 128,-1,96
 1277 0 1277 0 1208 0 c 0,97,98
 1134 0 1134 0 1073 28.5 c 128,-1,99
 1012 57 1012 57 969 111 c 0,100,101
 955 129 955 129 943 149 c 128,-1,102
 931 169 931 169 921 192 c 1,103,104
 865 110 865 110 799 60 c 0,105,106
 710 -3 710 -3 610 -3 c 0,107,108
 596 -3 596 -3 583 -1.5 c 128,-1,109
 570 0 570 0 556 2 c 0,110,111
 438 24 438 24 375 122 c 0,112,113
 365 139 365 139 357 157.5 c 128,-1,114
 349 176 349 176 341 196 c 1,115,116
 308 153 308 153 274 121 c 0,117,118
 150 0 150 0 1 0 c 2,119,-1
 -9 0 l 2,120,121
 -29 0 -29 0 -47 7.5 c 128,-1,122
 -65 15 -65 15 -78.5 28.5 c 128,-1,123
 -92 42 -92 42 -100 60 c 128,-1,124
 -108 78 -108 78 -108 98 c 0,0,1
EndSplineSet
EndChar

StartChar: uniFEB2
Encoding: 65202 65202 17
Width: 2889
GlyphClass: 2
Flags: W
AnchorPoint: "Anchor-1" 1800 -520 basechar 0
AnchorPoint: "Anchor-0" 1640 980 basechar 0
LayerCount: 2
Fore
SplineSet
2891 197 m 2,0,1
 2911 197 2911 197 2929 189 c 128,-1,2
 2947 181 2947 181 2960.5 167.5 c 128,-1,3
 2974 154 2974 154 2982 136 c 128,-1,4
 2990 118 2990 118 2990 97 c 0,5,6
 2990 77 2990 77 2982 59 c 128,-1,7
 2974 41 2974 41 2960.5 27.5 c 128,-1,8
 2947 14 2947 14 2929 6.5 c 128,-1,9
 2911 -1 2911 -1 2891 -1 c 2,10,-1
 2882 -1 l 1,11,-1
 2871 -1 l 2,12,13
 2790 -1 2790 -1 2719.5 33 c 128,-1,14
 2649 67 2649 67 2593 132 c 0,15,16
 2578 148 2578 148 2564.5 167 c 128,-1,17
 2551 186 2551 186 2538 208 c 1,18,19
 2524 176 2524 176 2507.5 150.5 c 128,-1,20
 2491 125 2491 125 2472 103 c 0,21,22
 2427 53 2427 53 2369 26 c 128,-1,23
 2311 -1 2311 -1 2241 -1 c 0,24,25
 2213 -1 2213 -1 2181.5 8 c 128,-1,26
 2150 17 2150 17 2118.5 34 c 128,-1,27
 2087 51 2087 51 2058.5 75.5 c 128,-1,28
 2030 100 2030 100 2009 132 c 1,29,30
 1949 62 1949 62 1873.5 33 c 128,-1,31
 1798 4 1798 4 1713 -1 c 0,32,33
 1666 -3 1666 -3 1629.5 6.5 c 128,-1,34
 1593 16 1593 16 1567 28 c 0,35,36
 1537 42 1537 42 1515 60 c 1,37,38
 1518 -27 1518 -27 1505.5 -110.5 c 128,-1,39
 1493 -194 1493 -194 1462 -269.5 c 128,-1,40
 1431 -345 1431 -345 1379 -410 c 128,-1,41
 1327 -475 1327 -475 1251 -526 c 0,42,43
 1070 -649 1070 -649 781 -661 c 0,44,45
 771 -661 771 -661 761 -662 c 128,-1,46
 751 -663 751 -663 742 -663 c 0,47,48
 478 -663 478 -663 308 -513 c 0,49,50
 232 -445 232 -445 182.5 -351 c 128,-1,51
 133 -257 133 -257 117 -146 c 0,52,53
 107 -85 107 -85 108 -23.5 c 128,-1,54
 109 38 109 38 116 95 c 128,-1,55
 123 152 123 152 135 202 c 128,-1,56
 147 252 147 252 159 292 c 0,57,58
 190 395 190 395 225.5 467.5 c 128,-1,59
 261 540 261 540 287 575 c 1,60,-1
 446 457 l 1,61,62
 433 440 433 440 416 406 c 128,-1,63
 399 372 399 372 381.5 327.5 c 128,-1,64
 364 283 364 283 348 229 c 128,-1,65
 332 175 332 175 321.5 117 c 128,-1,66
 311 59 311 59 308 -1 c 128,-1,67
 305 -61 305 -61 313 -118 c 0,68,69
 317 -144 317 -144 326.5 -180 c 128,-1,70
 336 -216 336 -216 355.5 -254.5 c 128,-1,71
 375 -293 375 -293 405.5 -330.5 c 128,-1,72
 436 -368 436 -368 482 -397.5 c 128,-1,73
 528 -427 528 -427 591.5 -445.5 c 128,-1,74
 655 -464 655 -464 739 -464 c 2,75,-1
 773 -464 l 1,76,77
 985 -454 985 -454 1114.5 -379 c 128,-1,78
 1244 -304 1244 -304 1289 -166 c 0,79,80
 1315 -84 1315 -84 1321.5 4 c 128,-1,81
 1328 92 1328 92 1320.5 176 c 128,-1,82
 1313 260 1313 260 1294 335.5 c 128,-1,83
 1275 411 1275 411 1250 470 c 0,84,85
 1238 497 1238 497 1231 513.5 c 128,-1,86
 1224 530 1224 530 1220.5 539 c 128,-1,87
 1217 548 1217 548 1215.5 551.5 c 128,-1,88
 1214 555 1214 555 1214 555 c 1,89,-1
 1380 663 l 1,90,91
 1384 652 1384 652 1389 637 c 0,92,93
 1394 624 1394 624 1401 606 c 128,-1,94
 1408 588 1408 588 1417 566 c 0,95,96
 1441 503 1441 503 1463.5 437.5 c 128,-1,97
 1486 372 1486 372 1517 318.5 c 128,-1,98
 1548 265 1548 265 1592.5 231.5 c 128,-1,99
 1637 198 1637 198 1706 198 c 0,100,101
 1757 198 1757 198 1792.5 217.5 c 128,-1,102
 1828 237 1828 237 1850.5 270 c 128,-1,103
 1873 303 1873 303 1885.5 347.5 c 128,-1,104
 1898 392 1898 392 1904 442 c 128,-1,105
 1910 492 1910 492 1912 545 c 128,-1,106
 1914 598 1914 598 1916 649 c 1,107,-1
 2119 634 l 1,108,109
 2119 619 2119 619 2118 604 c 0,110,111
 2117 591 2117 591 2116.5 576 c 128,-1,112
 2116 561 2116 561 2115 548 c 0,113,114
 2114 523 2114 523 2113 487 c 128,-1,115
 2112 451 2112 451 2114 412 c 128,-1,116
 2116 373 2116 373 2123 333.5 c 128,-1,117
 2130 294 2130 294 2145 263 c 128,-1,118
 2160 232 2160 232 2184 212.5 c 128,-1,119
 2208 193 2208 193 2245 193 c 0,120,121
 2273 193 2273 193 2290 204 c 128,-1,122
 2307 215 2307 215 2324 235 c 0,123,124
 2358 272 2358 272 2378.5 344 c 128,-1,125
 2399 416 2399 416 2405 515 c 0,126,127
 2407 560 2407 560 2406.5 598.5 c 128,-1,128
 2406 637 2406 637 2405 664 c 0,129,130
 2402 690 2402 690 2401.5 705 c 128,-1,131
 2401 720 2401 720 2401 722 c 2,132,-1
 2597 736 l 2,133,134
 2598 736 2598 736 2599 720.5 c 128,-1,135
 2600 705 2600 705 2601 680 c 0,136,137
 2606 640 2606 640 2617 575 c 128,-1,138
 2628 510 2628 510 2650 439 c 0,139,140
 2729 197 2729 197 2871 197 c 2,141,-1
 2891 197 l 2,0,1
EndSplineSet
EndChar

StartChar: uni0635
Encoding: 1589 1589 18
AltUni2: 00feb9.ffffffff.0
Width: 2916
GlyphClass: 2
Flags: W
AnchorPoint: "Anchor-1" 1940 -380 basechar 0
AnchorPoint: "Anchor-0" 1700 1060 basechar 0
LayerCount: 2
Fore
SplineSet
836 -649 m 0,0,1
 812 -649 812 -649 786.5 -648 c 128,-1,2
 761 -647 761 -647 735 -643 c 0,3,4
 637 -636 637 -636 555.5 -612 c 128,-1,5
 474 -588 474 -588 408 -548 c 0,6,7
 345 -511 345 -511 299.5 -460.5 c 128,-1,8
 254 -410 254 -410 221 -347 c 0,9,10
 163 -224 163 -224 164 -67 c 0,11,12
 164 -4 164 -4 174 61.5 c 128,-1,13
 184 127 184 127 202 199 c 0,14,15
 217 259 217 259 236 313 c 128,-1,16
 255 367 255 367 274 410.5 c 128,-1,17
 293 454 293 454 308.5 484.5 c 128,-1,18
 324 515 324 515 333 528 c 1,19,-1
 499 422 l 1,20,21
 491 412 491 412 472.5 373.5 c 128,-1,22
 454 335 454 335 433.5 278.5 c 128,-1,23
 413 222 413 222 394 152.5 c 128,-1,24
 375 83 375 83 366.5 11 c 128,-1,25
 358 -61 358 -61 364 -131.5 c 128,-1,26
 370 -202 370 -202 399 -260 c 0,27,28
 478 -424 478 -424 752 -447 c 0,29,30
 1032 -471 1032 -471 1182 -342 c 0,31,32
 1225 -306 1225 -306 1253.5 -263.5 c 128,-1,33
 1282 -221 1282 -221 1300 -176 c 128,-1,34
 1318 -131 1318 -131 1326 -87 c 128,-1,35
 1334 -43 1334 -43 1337 -5 c 0,36,37
 1343 80 1343 80 1329 171 c 128,-1,38
 1315 262 1315 262 1294 342.5 c 128,-1,39
 1273 423 1273 423 1251.5 485.5 c 128,-1,40
 1230 548 1230 548 1220 575 c 0,41,42
 1216 579 1216 579 1215 583.5 c 128,-1,43
 1214 588 1214 588 1211 593 c 1,44,-1
 1395 670 l 1,45,-1
 1403 647 l 1,46,47
 1435 572 1435 572 1475 505 c 128,-1,48
 1515 438 1515 438 1550 383 c 0,49,50
 1563 363 1563 363 1581.5 343.5 c 128,-1,51
 1600 324 1600 324 1624 304 c 1,52,53
 1642 337 1642 337 1666 377 c 128,-1,54
 1690 417 1690 417 1721 460 c 128,-1,55
 1752 503 1752 503 1788.5 547 c 128,-1,56
 1825 591 1825 591 1869 633 c 0,57,58
 1958 718 1958 718 2063 773 c 128,-1,59
 2168 828 2168 828 2277 848 c 0,60,61
 2405 870 2405 870 2513.5 839 c 128,-1,62
 2622 808 2622 808 2702 724 c 0,63,64
 2762 664 2762 664 2789 593.5 c 128,-1,65
 2816 523 2816 523 2811 447 c 0,66,67
 2803 333 2803 333 2748.5 242.5 c 128,-1,68
 2694 152 2694 152 2597 89 c 0,69,70
 2543 54 2543 54 2483 31 c 128,-1,71
 2423 8 2423 8 2364 -5.5 c 128,-1,72
 2305 -19 2305 -19 2249 -25.5 c 128,-1,73
 2193 -32 2193 -32 2145 -33 c 0,74,75
 2031 -38 2031 -38 1919.5 -21.5 c 128,-1,76
 1808 -5 1808 -5 1719 27 c 0,77,78
 1668 47 1668 47 1622 71 c 128,-1,79
 1576 95 1576 95 1535 124 c 1,80,81
 1538 50 1538 50 1535 -20 c 0,82,83
 1525 -159 1525 -159 1472 -275 c 0,84,85
 1443 -341 1443 -341 1402.5 -395.5 c 128,-1,86
 1362 -450 1362 -450 1311 -494 c 0,87,88
 1127 -649 1127 -649 836 -649 c 0,0,1
1798 209 m 1,89,90
 1841 194 1841 194 1896 183 c 128,-1,91
 1951 172 1951 172 2012 167 c 128,-1,92
 2073 162 2073 162 2137 164 c 128,-1,93
 2201 166 2201 166 2263.5 176 c 128,-1,94
 2326 186 2326 186 2383.5 205.5 c 128,-1,95
 2441 225 2441 225 2488 255 c 0,96,97
 2603 327 2603 327 2615 460 c 0,98,99
 2616 481 2616 481 2611 500.5 c 128,-1,100
 2606 520 2606 520 2597.5 536.5 c 128,-1,101
 2589 553 2589 553 2579 566 c 128,-1,102
 2569 579 2569 579 2561 587 c 0,103,104
 2532 615 2532 615 2499.5 631 c 128,-1,105
 2467 647 2467 647 2434 654 c 128,-1,106
 2401 661 2401 661 2369.5 660 c 128,-1,107
 2338 659 2338 659 2312 653 c 0,108,109
 2231 639 2231 639 2152.5 597 c 128,-1,110
 2074 555 2074 555 2006 491 c 0,111,112
 1968 455 1968 455 1936.5 417 c 128,-1,113
 1905 379 1905 379 1879 342 c 128,-1,114
 1853 305 1853 305 1833 271 c 128,-1,115
 1813 237 1813 237 1798 209 c 1,89,90
EndSplineSet
Substitution2: "'fina' Terminal Forms in Arabic lookup 7 subtable" uniFEBA
Substitution2: "'medi' Medial Forms in Arabic lookup 3 subtable" uniFEBC
Substitution2: "'init' Initial Forms in Arabic lookup 1 subtable" uniFEBB
EndChar

StartChar: uniFEBB
Encoding: 65211 65211 19
Width: 1920
GlyphClass: 2
Flags: W
AnchorPoint: "Anchor-1" 960 -260 basechar 0
AnchorPoint: "Anchor-0" 940 1060 basechar 0
LayerCount: 2
Fore
SplineSet
777 188 m 1,0,1
 830 182 830 182 894.5 179.5 c 128,-1,2
 959 177 959 177 1027.5 179 c 128,-1,3
 1096 181 1096 181 1166.5 188.5 c 128,-1,4
 1237 196 1237 196 1302.5 211.5 c 128,-1,5
 1368 227 1368 227 1425 251.5 c 128,-1,6
 1482 276 1482 276 1525 311 c 0,7,8
 1606 377 1606 377 1615 482 c 0,9,10
 1615 503 1615 503 1609.5 522.5 c 128,-1,11
 1604 542 1604 542 1596 558.5 c 128,-1,12
 1588 575 1588 575 1578 588 c 128,-1,13
 1568 601 1568 601 1560 609 c 0,14,15
 1531 639 1531 639 1499 655 c 128,-1,16
 1467 671 1467 671 1434.5 677 c 128,-1,17
 1402 683 1402 683 1370 681.5 c 128,-1,18
 1338 680 1338 680 1311 676 c 0,19,20
 1232 660 1232 660 1153.5 618.5 c 128,-1,21
 1075 577 1075 577 1007 512 c 0,22,23
 961 468 961 468 924 421.5 c 128,-1,24
 887 375 887 375 858.5 331.5 c 128,-1,25
 830 288 830 288 810 250.5 c 128,-1,26
 790 213 790 213 777 188 c 1,0,1
-99 98 m 256,27,28
 -99 140 -99 140 -70 168 c 128,-1,29
 -41 196 -41 196 0 196 c 0,30,31
 60 196 60 196 102.5 205.5 c 128,-1,32
 145 215 145 215 174 229 c 128,-1,33
 203 243 203 243 221 259.5 c 128,-1,34
 239 276 239 276 250 291 c 0,35,36
 285 338 285 338 302 403.5 c 128,-1,37
 319 469 319 469 335 545 c 0,38,39
 343 588 343 588 352 628 c 128,-1,40
 361 668 361 668 374 707 c 1,41,-1
 563 650 l 1,42,43
 555 630 555 630 550.5 609.5 c 128,-1,44
 546 589 546 589 541 568 c 1,45,-1
 542 568 l 1,46,47
 538 548 538 548 533.5 510 c 128,-1,48
 529 472 529 472 531.5 428 c 128,-1,49
 534 384 534 384 546.5 338 c 128,-1,50
 559 292 559 292 588 255 c 1,51,52
 601 284 601 284 624.5 329 c 128,-1,53
 648 374 648 374 683 428 c 128,-1,54
 718 482 718 482 764.5 540.5 c 128,-1,55
 811 599 811 599 870 655 c 0,56,57
 914 697 914 697 963 732.5 c 128,-1,58
 1012 768 1012 768 1064.5 795.5 c 128,-1,59
 1117 823 1117 823 1170.5 841.5 c 128,-1,60
 1224 860 1224 860 1277 869 c 0,61,62
 1405 894 1405 894 1513.5 862 c 128,-1,63
 1622 830 1622 830 1703 746 c 0,64,65
 1762 686 1762 686 1789.5 615.5 c 128,-1,66
 1817 545 1817 545 1812 469 c 0,67,68
 1800 278 1800 278 1651 158 c 0,69,70
 1583 103 1583 103 1499 68 c 128,-1,71
 1415 33 1415 33 1325.5 13.5 c 128,-1,72
 1236 -6 1236 -6 1146 -13 c 128,-1,73
 1056 -20 1056 -20 976 -20 c 0,74,75
 883 -20 883 -20 814.5 -14.5 c 128,-1,76
 746 -9 746 -9 717 -4 c 0,77,78
 636 4 636 4 567 34 c 0,79,80
 546 44 546 44 526.5 55.5 c 128,-1,81
 507 67 507 67 487.5 83 c 128,-1,82
 468 99 468 99 447.5 120.5 c 128,-1,83
 427 142 427 142 405 171 c 1,84,85
 342 83 342 83 244 42 c 128,-1,86
 146 1 146 1 9 0 c 2,87,-1
 0 0 l 2,88,89
 -41 0 -41 0 -70 28 c 128,-1,90
 -99 56 -99 56 -99 98 c 256,27,28
EndSplineSet
EndChar

StartChar: uniFEBC
Encoding: 65212 65212 20
Width: 1933
GlyphClass: 2
Flags: W
AnchorPoint: "Anchor-1" 960 -260 basechar 0
AnchorPoint: "Anchor-0" 940 1060 basechar 0
LayerCount: 2
Fore
SplineSet
-99 97 m 256,0,1
 -99 139 -99 139 -70.5 167.5 c 128,-1,2
 -42 196 -42 196 -1 196 c 2,3,-1
 8 196 l 2,4,5
 127 199 127 199 169 220 c 0,6,7
 214 243 214 243 250 290 c 0,8,9
 285 335 285 335 306 401.5 c 128,-1,10
 327 468 327 468 347 556 c 0,11,12
 355 594 355 594 363.5 632 c 128,-1,13
 372 670 372 670 383 707 c 1,14,-1
 572 649 l 1,15,16
 564 631 564 631 559.5 610.5 c 128,-1,17
 555 590 555 590 550 567 c 1,18,-1
 551 567 l 1,19,20
 547 547 547 547 543.5 509.5 c 128,-1,21
 540 472 540 472 542 429 c 128,-1,22
 544 386 544 386 555.5 342.5 c 128,-1,23
 567 299 567 299 593 266 c 1,24,-1
 599 255 l 1,25,26
 612 284 612 284 636 329 c 128,-1,27
 660 374 660 374 695 428 c 128,-1,28
 730 482 730 482 776.5 541 c 128,-1,29
 823 600 823 600 880 656 c 0,30,31
 969 741 969 741 1073.5 795.5 c 128,-1,32
 1178 850 1178 850 1287 870 c 0,33,34
 1415 892 1415 892 1524 861 c 128,-1,35
 1633 830 1633 830 1713 745 c 0,36,37
 1772 686 1772 686 1799.5 615 c 128,-1,38
 1827 544 1827 544 1822 469 c 0,39,40
 1810 306 1810 306 1702 196 c 1,41,-1
 1933 196 l 2,42,43
 1975 196 1975 196 2004 167.5 c 128,-1,44
 2033 139 2033 139 2033 97 c 256,45,46
 2033 55 2033 55 2004 27.5 c 128,-1,47
 1975 0 1975 0 1933 0 c 2,48,-1
 1681 -1 l 2,49,50
 1571 -1 1571 -1 1504.5 5.5 c 128,-1,51
 1438 12 1438 12 1398 30 c 1,52,53
 1293 1 1293 1 1186.5 -9 c 128,-1,54
 1080 -19 1080 -19 986 -19 c 0,55,56
 896 -19 896 -19 829.5 -13 c 128,-1,57
 763 -7 763 -7 729 -4 c 0,58,59
 687 1 687 1 648.5 10 c 128,-1,60
 610 19 610 19 578 34 c 0,61,62
 534 53 534 53 499.5 81 c 128,-1,63
 465 109 465 109 436 145 c 1,64,65
 422 156 422 156 412 175 c 1,66,67
 348 90 348 90 251 47 c 0,68,69
 152 0 152 0 -1 0 c 0,70,71
 -42 0 -42 0 -70.5 27.5 c 128,-1,72
 -99 55 -99 55 -99 97 c 256,0,1
787 188 m 1,73,74
 841 182 841 182 905 179.5 c 128,-1,75
 969 177 969 177 1038 179.5 c 128,-1,76
 1107 182 1107 182 1177 190 c 128,-1,77
 1247 198 1247 198 1312.5 213.5 c 128,-1,78
 1378 229 1378 229 1435.5 253.5 c 128,-1,79
 1493 278 1493 278 1536 313 c 0,80,81
 1620 380 1620 380 1626 482 c 0,82,83
 1627 504 1627 504 1622 523.5 c 128,-1,84
 1617 543 1617 543 1609 559 c 128,-1,85
 1601 575 1601 575 1591 587.5 c 128,-1,86
 1581 600 1581 600 1573 608 c 0,87,88
 1544 638 1544 638 1511 654 c 128,-1,89
 1478 670 1478 670 1445 676 c 128,-1,90
 1412 682 1412 682 1380.5 680.5 c 128,-1,91
 1349 679 1349 679 1323 675 c 0,92,93
 1243 662 1243 662 1164.5 620.5 c 128,-1,94
 1086 579 1086 579 1017 513 c 0,95,96
 971 470 971 470 934 423 c 128,-1,97
 897 376 897 376 868.5 332.5 c 128,-1,98
 840 289 840 289 820 251 c 128,-1,99
 800 213 800 213 787 188 c 1,73,74
EndSplineSet
EndChar

StartChar: uniFEBA
Encoding: 65210 65210 21
Width: 2868
GlyphClass: 2
Flags: W
AnchorPoint: "Anchor-1" 1900 -320 basechar 0
AnchorPoint: "Anchor-0" 1700 1060 basechar 0
LayerCount: 2
Fore
SplineSet
1762 208 m 1,0,1
 1806 193 1806 193 1861 182 c 128,-1,2
 1916 171 1916 171 1977 165.5 c 128,-1,3
 2038 160 2038 160 2102.5 162 c 128,-1,4
 2167 164 2167 164 2229 174 c 128,-1,5
 2291 184 2291 184 2348.5 203.5 c 128,-1,6
 2406 223 2406 223 2453 254 c 0,7,8
 2569 328 2569 328 2578 459 c 0,9,10
 2579 481 2579 481 2574 500 c 128,-1,11
 2569 519 2569 519 2561 535 c 128,-1,12
 2553 551 2553 551 2543 563.5 c 128,-1,13
 2533 576 2533 576 2525 585 c 0,14,15
 2497 614 2497 614 2464.5 630 c 128,-1,16
 2432 646 2432 646 2398.5 652 c 128,-1,17
 2365 658 2365 658 2333 657 c 128,-1,18
 2301 656 2301 656 2276 652 c 0,19,20
 2195 638 2195 638 2116.5 595 c 128,-1,21
 2038 552 2038 552 1970 488 c 0,22,23
 1932 452 1932 452 1900.5 414 c 128,-1,24
 1869 376 1869 376 1843.5 339.5 c 128,-1,25
 1818 303 1818 303 1797.5 269 c 128,-1,26
 1777 235 1777 235 1762 208 c 1,0,1
2868 0 m 0,27,28
 2820 0 2820 0 2775 8.5 c 128,-1,29
 2730 17 2730 17 2691.5 30.5 c 128,-1,30
 2653 44 2653 44 2623.5 60.5 c 128,-1,31
 2594 77 2594 77 2578 92 c 2,32,-1
 2574 96 l 1,33,-1
 2561 88 l 2,34,35
 2507 53 2507 53 2447 30 c 128,-1,36
 2387 7 2387 7 2328 -6.5 c 128,-1,37
 2269 -20 2269 -20 2213 -26.5 c 128,-1,38
 2157 -33 2157 -33 2109 -34 c 0,39,40
 1994 -39 1994 -39 1883 -22.5 c 128,-1,41
 1772 -6 1772 -6 1683 27 c 0,42,43
 1632 45 1632 45 1585.5 69 c 128,-1,44
 1539 93 1539 93 1497 124 c 1,45,46
 1500 87 1500 87 1501 52 c 128,-1,47
 1502 17 1502 17 1499 -20 c 0,48,49
 1494 -91 1494 -91 1478.5 -154 c 128,-1,50
 1463 -217 1463 -217 1437 -275 c 0,51,52
 1408 -341 1408 -341 1367 -395.5 c 128,-1,53
 1326 -450 1326 -450 1275 -495 c 0,54,55
 1091 -650 1091 -650 801 -650 c 0,56,57
 777 -650 777 -650 752 -649 c 128,-1,58
 727 -648 727 -648 701 -646 c 0,59,60
 602 -636 602 -636 520.5 -613.5 c 128,-1,61
 439 -591 439 -591 373 -549 c 0,62,63
 246 -475 246 -475 185 -348 c 0,64,65
 155 -287 155 -287 141 -217 c 128,-1,66
 127 -147 127 -147 128 -68 c 0,67,68
 129 -5 129 -5 138.5 60.5 c 128,-1,69
 148 126 148 126 166 198 c 0,70,71
 181 258 181 258 200 312.5 c 128,-1,72
 219 367 219 367 237.5 411 c 128,-1,73
 256 455 256 455 272 485.5 c 128,-1,74
 288 516 288 516 296 530 c 1,75,-1
 463 422 l 1,76,77
 456 411 456 411 437.5 372 c 128,-1,78
 419 333 419 333 398.5 277 c 128,-1,79
 378 221 378 221 358.5 152 c 128,-1,80
 339 83 339 83 330.5 11 c 128,-1,81
 322 -61 322 -61 328 -131.5 c 128,-1,82
 334 -202 334 -202 363 -261 c 0,83,84
 405 -346 405 -346 491.5 -391 c 128,-1,85
 578 -436 578 -436 717 -449 c 0,86,87
 857 -460 857 -460 963.5 -434.5 c 128,-1,88
 1070 -409 1070 -409 1147 -345 c 0,89,90
 1190 -308 1190 -308 1218.5 -265 c 128,-1,91
 1247 -222 1247 -222 1264.5 -177 c 128,-1,92
 1282 -132 1282 -132 1290 -88 c 128,-1,93
 1298 -44 1298 -44 1301 -6 c 0,94,95
 1305 50 1305 50 1300 110 c 128,-1,96
 1295 170 1295 170 1284.5 229 c 128,-1,97
 1274 288 1274 288 1259 343 c 128,-1,98
 1244 398 1244 398 1229.5 444 c 128,-1,99
 1215 490 1215 490 1202.5 524 c 128,-1,100
 1190 558 1190 558 1184 575 c 0,101,102
 1180 580 1180 580 1179 585 c 128,-1,103
 1178 590 1178 590 1177 592 c 2,104,-1
 1359 667 l 1,105,106
 1397 577 1397 577 1437.5 506.5 c 128,-1,107
 1478 436 1478 436 1515 382 c 0,108,109
 1528 362 1528 362 1546 341.5 c 128,-1,110
 1564 321 1564 321 1588 303 c 1,111,112
 1606 336 1606 336 1630 376 c 128,-1,113
 1654 416 1654 416 1685 458.5 c 128,-1,114
 1716 501 1716 501 1753 545.5 c 128,-1,115
 1790 590 1790 590 1835 632 c 0,116,117
 1923 718 1923 718 2028.5 773 c 128,-1,118
 2134 828 2134 828 2241 848 c 0,119,120
 2369 870 2369 870 2477.5 839 c 128,-1,121
 2586 808 2586 808 2666 723 c 0,122,123
 2726 663 2726 663 2753 592 c 128,-1,124
 2780 521 2780 521 2775 446 c 0,125,126
 2771 388 2771 388 2754.5 336.5 c 128,-1,127
 2738 285 2738 285 2710 237 c 1,128,129
 2715 230 2715 230 2730.5 223 c 128,-1,130
 2746 216 2746 216 2767 210 c 128,-1,131
 2788 204 2788 204 2812.5 200 c 128,-1,132
 2837 196 2837 196 2860 196 c 2,133,-1
 2868 196 l 2,134,135
 2910 196 2910 196 2938.5 167.5 c 128,-1,136
 2967 139 2967 139 2967 97 c 0,137,138
 2967 56 2967 56 2938.5 28 c 128,-1,139
 2910 0 2910 0 2868 0 c 0,27,28
EndSplineSet
EndChar

StartChar: uni0637
Encoding: 1591 1591 22
AltUni2: 00fec1.ffffffff.0
Width: 1816
GlyphClass: 2
Flags: W
AnchorPoint: "Anchor-1" 860 -220 basechar 0
AnchorPoint: "Anchor-0" 1160 1600 basechar 0
LayerCount: 2
Fore
SplineSet
856 0 m 0,0,1
 823 0 823 0 791.5 1 c 128,-1,2
 760 2 760 2 730 4 c 2,3,-1
 725 4 l 1,4,5
 569 12 569 12 413.5 46 c 128,-1,6
 258 80 258 80 91 144 c 1,7,-1
 163 329 l 1,8,9
 296 277 296 277 421 246 c 1,10,11
 442 277 442 277 474.5 321 c 128,-1,12
 507 365 507 365 553 424 c 1,13,14
 565 510 565 510 571 578 c 128,-1,15
 577 646 577 646 578 712.5 c 128,-1,16
 579 779 579 779 575 853.5 c 128,-1,17
 571 928 571 928 564 1027 c 0,18,19
 556 1135 556 1135 547 1227.5 c 128,-1,20
 538 1320 538 1320 530 1387.5 c 128,-1,21
 522 1455 522 1455 516.5 1493.5 c 128,-1,22
 511 1532 511 1532 511 1533 c 2,23,-1
 707 1569 l 1,24,25
 707 1569 707 1569 710 1543 c 128,-1,26
 713 1517 713 1517 718 1475 c 128,-1,27
 723 1433 723 1433 729 1379 c 128,-1,28
 735 1325 735 1325 740.5 1269 c 128,-1,29
 746 1213 746 1213 751.5 1159 c 128,-1,30
 757 1105 757 1105 760 1062 c 0,31,32
 764 1006 764 1006 766.5 972.5 c 128,-1,33
 769 939 769 939 770.5 916 c 128,-1,34
 772 893 772 893 773 874.5 c 128,-1,35
 774 856 774 856 774.5 831 c 128,-1,36
 775 806 775 806 775.5 767.5 c 128,-1,37
 776 729 776 729 778 666 c 1,38,39
 1019 895 1019 895 1239 928 c 0,40,41
 1288 938 1288 938 1341 933.5 c 128,-1,42
 1394 929 1394 929 1445.5 913 c 128,-1,43
 1497 897 1497 897 1543.5 869 c 128,-1,44
 1590 841 1590 841 1625.5 803 c 128,-1,45
 1661 765 1661 765 1682 717 c 128,-1,46
 1703 669 1703 669 1705 613 c 0,47,48
 1709 558 1709 558 1697.5 505 c 128,-1,49
 1686 452 1686 452 1664.5 405 c 128,-1,50
 1643 358 1643 358 1616 318 c 128,-1,51
 1589 278 1589 278 1562 250 c 1,52,-1
 1561 248 l 1,53,-1
 1559 246 l 1,54,55
 1470 166 1470 166 1377.5 117.5 c 128,-1,56
 1285 69 1285 69 1194.5 43 c 128,-1,57
 1104 17 1104 17 1018 8.5 c 128,-1,58
 932 0 932 0 856 0 c 0,0,1
641 208 m 1,59,60
 665 205 665 205 687 204 c 128,-1,61
 709 203 709 203 735 201 c 2,62,-1
 737 201 l 2,63,64
 810 198 810 198 894.5 198.5 c 128,-1,65
 979 199 979 199 1067.5 215.5 c 128,-1,66
 1156 232 1156 232 1246 272 c 128,-1,67
 1336 312 1336 312 1422 389 c 0,68,69
 1440 408 1440 408 1456.5 433.5 c 128,-1,70
 1473 459 1473 459 1485 487 c 128,-1,71
 1497 515 1497 515 1503.5 544.5 c 128,-1,72
 1510 574 1510 574 1509 602 c 1,73,74
 1501 645 1501 645 1476.5 672 c 128,-1,75
 1452 699 1452 699 1417.5 714 c 128,-1,76
 1383 729 1383 729 1344 732.5 c 128,-1,77
 1305 736 1305 736 1269 732 c 0,78,79
 1168 716 1168 716 1047 632 c 128,-1,80
 926 548 926 548 792 399 c 1,81,-1
 641 208 l 1,59,60
EndSplineSet
Substitution2: "'fina' Terminal Forms in Arabic lookup 7 subtable" uniFEC2
Substitution2: "'medi' Medial Forms in Arabic lookup 3 subtable" uniFEC4
Substitution2: "'init' Initial Forms in Arabic lookup 1 subtable" uniFEC3
EndChar

StartChar: uniFEC3
Encoding: 65219 65219 23
Width: 1576
GlyphClass: 2
Flags: W
AnchorPoint: "Anchor-1" 680 -160 basechar 0
AnchorPoint: "Anchor-0" 900 1600 basechar 0
LayerCount: 2
Fore
SplineSet
378 196 m 1,0,1
 401 195 401 195 425.5 195.5 c 128,-1,2
 450 196 450 196 474 196 c 0,3,4
 549 196 549 196 632.5 197.5 c 128,-1,5
 716 199 716 199 804.5 215.5 c 128,-1,6
 893 232 893 232 984 270 c 128,-1,7
 1075 308 1075 308 1165 382 c 0,8,9
 1221 429 1221 429 1243.5 485.5 c 128,-1,10
 1266 542 1266 542 1255 599 c 0,11,12
 1248 639 1248 639 1222.5 667 c 128,-1,13
 1197 695 1197 695 1162.5 711.5 c 128,-1,14
 1128 728 1128 728 1088 732 c 128,-1,15
 1048 736 1048 736 1011 728 c 0,16,17
 908 705 908 705 788.5 623 c 128,-1,18
 669 541 669 541 533 392 c 0,19,20
 508 365 508 365 486.5 339 c 128,-1,21
 465 313 465 313 444 288 c 2,22,-1
 378 196 l 1,0,1
-102 98 m 0,23,24
 -102 118 -102 118 -94 135.5 c 128,-1,25
 -86 153 -86 153 -72.5 166.5 c 128,-1,26
 -59 180 -59 180 -41 188 c 128,-1,27
 -23 196 -23 196 -3 196 c 2,28,-1
 6 196 l 1,29,-1
 148 196 l 1,30,31
 162 218 162 218 195.5 277 c 128,-1,32
 229 336 229 336 296 420 c 1,33,34
 307 484 307 484 312.5 577.5 c 128,-1,35
 318 671 318 671 319 798 c 0,36,37
 320 923 320 923 314 1042.5 c 128,-1,38
 308 1162 308 1162 296 1279 c 0,39,40
 285 1397 285 1397 279 1454.5 c 128,-1,41
 273 1512 273 1512 273 1513 c 2,42,-1
 475 1549 l 1,43,44
 530 1132 530 1132 520 662 c 1,45,46
 761 886 761 886 980 924 c 0,47,48
 1031 932 1031 932 1080.5 931.5 c 128,-1,49
 1130 931 1130 931 1177 920 c 128,-1,50
 1224 909 1224 909 1267 886 c 128,-1,51
 1310 863 1310 863 1348 826 c 0,52,53
 1393 781 1393 781 1418 728.5 c 128,-1,54
 1443 676 1443 676 1448 610 c 0,55,56
 1452 556 1452 556 1440.5 502.5 c 128,-1,57
 1429 449 1429 449 1408 401 c 128,-1,58
 1387 353 1387 353 1360 313 c 128,-1,59
 1333 273 1333 273 1306 245 c 1,60,-1
 1302 239 l 1,61,62
 1213 159 1213 159 1120 112 c 128,-1,63
 1027 65 1027 65 936 39.5 c 128,-1,64
 845 14 845 14 759 6.5 c 128,-1,65
 673 -1 673 -1 598 -1 c 2,66,-1
 6 0 l 1,67,-1
 -3 0 l 2,68,69
 -23 0 -23 0 -41 7.5 c 128,-1,70
 -59 15 -59 15 -72.5 28 c 128,-1,71
 -86 41 -86 41 -94 59 c 128,-1,72
 -102 77 -102 77 -102 98 c 0,23,24
EndSplineSet
EndChar

StartChar: uniFEC4
Encoding: 65220 65220 24
Width: 1583
GlyphClass: 2
Flags: W
AnchorPoint: "Anchor-1" 680 -160 basechar 0
AnchorPoint: "Anchor-0" 900 1600 basechar 0
LayerCount: 2
Fore
SplineSet
388 196 m 1,0,1
 463 196 463 196 533.5 195 c 128,-1,2
 604 194 604 194 671 196.5 c 128,-1,3
 738 199 738 199 801.5 208.5 c 128,-1,4
 865 218 865 218 927.5 238.5 c 128,-1,5
 990 259 990 259 1051 293.5 c 128,-1,6
 1112 328 1112 328 1173 382 c 0,7,8
 1191 400 1191 400 1207.5 425.5 c 128,-1,9
 1224 451 1224 451 1236 479.5 c 128,-1,10
 1248 508 1248 508 1254.5 538 c 128,-1,11
 1261 568 1261 568 1260 596 c 0,12,13
 1253 638 1253 638 1228 665 c 128,-1,14
 1203 692 1203 692 1168.5 707 c 128,-1,15
 1134 722 1134 722 1095 726.5 c 128,-1,16
 1056 731 1056 731 1021 728 c 0,17,18
 919 710 919 710 799 625.5 c 128,-1,19
 679 541 679 541 543 393 c 0,20,21
 519 364 519 364 497 338.5 c 128,-1,22
 475 313 475 313 455 287 c 2,23,-1
 388 196 l 1,0,1
-106 98 m 256,24,25
 -106 140 -106 140 -78 168 c 128,-1,26
 -50 196 -50 196 -8 196 c 2,27,-1
 0 196 l 1,28,-1
 144 196 l 1,29,30
 158 217 158 217 197 274.5 c 128,-1,31
 236 332 236 332 298 407 c 1,32,-1
 305 417 l 2,33,34
 315 429 315 429 320 473 c 128,-1,35
 325 517 325 517 326.5 582 c 128,-1,36
 328 647 328 647 327 729 c 128,-1,37
 326 811 326 811 322 899 c 128,-1,38
 318 987 318 987 312.5 1076.5 c 128,-1,39
 307 1166 307 1166 300.5 1247 c 128,-1,40
 294 1328 294 1328 287 1395 c 128,-1,41
 280 1462 280 1462 273 1505 c 1,42,-1
 468 1541 l 1,43,44
 500 1338 500 1338 515.5 1121 c 128,-1,45
 531 904 531 904 529 659 c 1,46,47
 775 888 775 888 990 921 c 0,48,49
 1190 953 1190 953 1351 823 c 0,50,51
 1449 740 1449 740 1458 608 c 0,52,53
 1462 552 1462 552 1450 498.5 c 128,-1,54
 1438 445 1438 445 1417 398 c 128,-1,55
 1396 351 1396 351 1369 311.5 c 128,-1,56
 1342 272 1342 272 1315 244 c 0,57,58
 1306 235 1306 235 1296 226.5 c 128,-1,59
 1286 218 1286 218 1277 211.5 c 128,-1,60
 1268 205 1268 205 1261.5 200.5 c 128,-1,61
 1255 196 1255 196 1255 196 c 1,62,-1
 1589 196 l 2,63,64
 1631 196 1631 196 1659 168.5 c 128,-1,65
 1687 141 1687 141 1687 99 c 0,66,67
 1687 58 1687 58 1659 29.5 c 128,-1,68
 1631 1 1631 1 1589 1 c 2,69,-1
 1588 1 l 1,70,-1
 1588 0 l 1,71,72
 1513 0 1513 0 1455.5 -0.5 c 128,-1,73
 1398 -1 1398 -1 1341 -1 c 0,74,75
 1297 -1 1297 -1 1249.5 0 c 128,-1,76
 1202 1 1202 1 1152.5 5.5 c 128,-1,77
 1103 10 1103 10 1054 18.5 c 128,-1,78
 1005 27 1005 27 959 42 c 1,79,80
 862 13 862 13 773 6.5 c 128,-1,81
 684 0 684 0 605 0 c 2,82,-1
 -8 0 l 2,83,84
 -50 0 -50 0 -78 28 c 128,-1,85
 -106 56 -106 56 -106 98 c 256,24,25
EndSplineSet
EndChar

StartChar: uniFEC2
Encoding: 65218 65218 25
Width: 1867
GlyphClass: 2
Flags: W
AnchorPoint: "Anchor-1" 880 -160 basechar 0
AnchorPoint: "Anchor-0" 1200 1580 basechar 0
LayerCount: 2
Fore
SplineSet
930 198 m 1,0,1
 990 201 990 201 1053.5 210 c 128,-1,2
 1117 219 1117 219 1180.5 240.5 c 128,-1,3
 1244 262 1244 262 1307.5 297.5 c 128,-1,4
 1371 333 1371 333 1433 388 c 0,5,6
 1451 407 1451 407 1467.5 432.5 c 128,-1,7
 1484 458 1484 458 1496 486 c 128,-1,8
 1508 514 1508 514 1514.5 543.5 c 128,-1,9
 1521 573 1521 573 1520 601 c 0,10,11
 1513 642 1513 642 1488 669.5 c 128,-1,12
 1463 697 1463 697 1428.5 712.5 c 128,-1,13
 1394 728 1394 728 1354.5 732.5 c 128,-1,14
 1315 737 1315 737 1280 731 c 0,15,16
 1179 715 1179 715 1058 631 c 128,-1,17
 937 547 937 547 803 398 c 1,18,-1
 652 207 l 1,19,-1
 930 198 l 1,0,1
949 0 m 2,20,21
 928 -1 928 -1 907.5 -1 c 128,-1,22
 887 -1 887 -1 867 -1 c 0,23,24
 844 -1 844 -1 817.5 -0.5 c 128,-1,25
 791 0 791 0 741 3 c 2,26,-1
 736 3 l 1,27,28
 580 11 580 11 424.5 45 c 128,-1,29
 269 79 269 79 102 143 c 1,30,-1
 174 328 l 1,31,32
 307 276 307 276 432 245 c 1,33,34
 453 276 453 276 484.5 319 c 128,-1,35
 516 362 516 362 557 413 c 1,36,-1
 564 423 l 1,37,38
 576 509 576 509 582 577 c 128,-1,39
 588 645 588 645 589 711.5 c 128,-1,40
 590 778 590 778 586 852.5 c 128,-1,41
 582 927 582 927 575 1026 c 0,42,43
 567 1134 567 1134 558 1226.5 c 128,-1,44
 549 1319 549 1319 541 1386.5 c 128,-1,45
 533 1454 533 1454 527.5 1492.5 c 128,-1,46
 522 1531 522 1531 522 1532 c 2,47,-1
 718 1568 l 1,48,49
 718 1568 718 1568 721 1542 c 128,-1,50
 724 1516 724 1516 729 1474 c 128,-1,51
 734 1432 734 1432 740 1378 c 128,-1,52
 746 1324 746 1324 751.5 1268 c 128,-1,53
 757 1212 757 1212 762.5 1158 c 128,-1,54
 768 1104 768 1104 771 1061 c 0,55,56
 775 1005 775 1005 777.5 971.5 c 128,-1,57
 780 938 780 938 781.5 915 c 128,-1,58
 783 892 783 892 784 873.5 c 128,-1,59
 785 855 785 855 785.5 830 c 128,-1,60
 786 805 786 805 786.5 766.5 c 128,-1,61
 787 728 787 728 789 665 c 1,62,63
 1030 894 1030 894 1250 927 c 0,64,65
 1299 936 1299 936 1352 932 c 128,-1,66
 1405 928 1405 928 1456.5 912 c 128,-1,67
 1508 896 1508 896 1554.5 868 c 128,-1,68
 1601 840 1601 840 1636.5 802 c 128,-1,69
 1672 764 1672 764 1693 716 c 128,-1,70
 1714 668 1714 668 1716 612 c 0,71,72
 1720 557 1720 557 1708.5 504 c 128,-1,73
 1697 451 1697 451 1675.5 404 c 128,-1,74
 1654 357 1654 357 1627 317 c 128,-1,75
 1600 277 1600 277 1573 249 c 1,76,-1
 1572 247 l 1,77,-1
 1570 245 l 2,78,79
 1556 232 1556 232 1542 220.5 c 128,-1,80
 1528 209 1528 209 1514 198 c 1,81,-1
 1860 196 l 1,82,-1
 1868 196 l 2,83,84
 1910 196 1910 196 1938 168 c 128,-1,85
 1966 140 1966 140 1966 98 c 0,86,87
 1966 57 1966 57 1938 28.5 c 128,-1,88
 1910 0 1910 0 1868 0 c 2,89,-1
 949 0 l 2,20,21
EndSplineSet
EndChar

StartChar: uni0639
Encoding: 1593 1593 26
AltUni2: 00fec9.ffffffff.0
Width: 1532
GlyphClass: 2
Flags: W
AnchorPoint: "Anchor-1" 560 -940 basechar 0
AnchorPoint: "Anchor-0" 780 1500 basechar 0
LayerCount: 2
Fore
SplineSet
828 -705 m 0,0,1
 754 -705 754 -705 677 -693 c 128,-1,2
 600 -681 600 -681 525.5 -654 c 128,-1,3
 451 -627 451 -627 381 -582.5 c 128,-1,4
 311 -538 311 -538 251 -473 c 0,5,6
 170 -385 170 -385 134 -270.5 c 128,-1,7
 98 -156 98 -156 106 -25 c 0,8,9
 111 76 111 76 147.5 167.5 c 128,-1,10
 184 259 184 259 250 344 c 0,11,12
 362 485 362 485 541 575 c 0,13,14
 562 587 562 587 583.5 596.5 c 128,-1,15
 605 606 605 606 628 616 c 1,16,-1
 622 620 l 2,17,18
 486 714 486 714 470 885 c 0,19,20
 460 975 460 975 485 1056.5 c 128,-1,21
 510 1138 510 1138 569 1205 c 0,22,23
 632 1277 632 1277 716 1318 c 128,-1,24
 800 1359 800 1359 894 1363 c 0,25,26
 1049 1370 1049 1370 1209 1267 c 0,27,28
 1265 1230 1265 1230 1297.5 1199.5 c 128,-1,29
 1330 1169 1330 1169 1335 1166 c 1,30,-1
 1191 1029 l 1,31,32
 1150 1069 1150 1069 1103 1100 c 0,33,34
 1063 1126 1063 1126 1011 1147 c 128,-1,35
 959 1168 959 1168 904 1166 c 0,36,37
 850 1163 850 1163 801.5 1140.5 c 128,-1,38
 753 1118 753 1118 719 1076 c 0,39,40
 698 1051 698 1051 679.5 1009 c 128,-1,41
 661 967 661 967 666 904 c 0,42,43
 674 824 674 824 734 782 c 0,44,45
 784 749 784 749 869.5 732 c 128,-1,46
 955 715 955 715 1067 731 c 0,47,48
 1113 737 1113 737 1154.5 743.5 c 128,-1,49
 1196 750 1196 750 1228 755 c 0,50,51
 1265 761 1265 761 1297 767 c 1,52,-1
 1339 575 l 2,53,54
 1337 575 1337 575 1317.5 571.5 c 128,-1,55
 1298 568 1298 568 1263.5 562.5 c 128,-1,56
 1229 557 1229 557 1182.5 549 c 128,-1,57
 1136 541 1136 541 1081 532 c 0,58,59
 994 518 994 518 929.5 503.5 c 128,-1,60
 865 489 865 489 813.5 473.5 c 128,-1,61
 762 458 762 458 719 439.5 c 128,-1,62
 676 421 676 421 631 399 c 0,63,64
 607 388 607 388 575 368.5 c 128,-1,65
 543 349 543 349 507.5 321.5 c 128,-1,66
 472 294 472 294 437 258 c 128,-1,67
 402 222 402 222 373.5 177.5 c 128,-1,68
 345 133 345 133 326 79.5 c 128,-1,69
 307 26 307 26 303 -37 c 0,70,71
 296 -158 296 -158 343 -247.5 c 128,-1,72
 390 -337 390 -337 472.5 -395 c 128,-1,73
 555 -453 555 -453 663 -478 c 128,-1,74
 771 -503 771 -503 886.5 -495 c 128,-1,75
 1002 -487 1002 -487 1114.5 -446 c 128,-1,76
 1227 -405 1227 -405 1319 -329 c 1,77,-1
 1434 -495 l 1,78,79
 1352 -563 1352 -563 1273 -604 c 128,-1,80
 1194 -645 1194 -645 1118 -667.5 c 128,-1,81
 1042 -690 1042 -690 969.5 -697.5 c 128,-1,82
 897 -705 897 -705 828 -705 c 0,0,1
EndSplineSet
Substitution2: "'fina' Terminal Forms in Arabic lookup 7 subtable" uniFECA
Substitution2: "'medi' Medial Forms in Arabic lookup 3 subtable" uniFECC
Substitution2: "'init' Initial Forms in Arabic lookup 1 subtable" uniFECB
EndChar

StartChar: uniFECB
Encoding: 65227 65227 27
Width: 1138
GlyphClass: 2
Flags: W
AnchorPoint: "Anchor-1" 540 -240 basechar 0
AnchorPoint: "Anchor-0" 560 1200 basechar 0
LayerCount: 2
Fore
SplineSet
876 604 m 1,0,1
 842 641 842 641 797 671 c 0,2,3
 759 697 759 697 705 718 c 128,-1,4
 651 739 651 739 583 739 c 0,5,6
 525 739 525 739 481 719.5 c 128,-1,7
 437 700 437 700 407.5 667 c 128,-1,8
 378 634 378 634 363 591.5 c 128,-1,9
 348 549 348 549 348 503 c 0,10,11
 348 440 348 440 376 389 c 128,-1,12
 404 338 404 338 450.5 302 c 128,-1,13
 497 266 497 266 558 248 c 128,-1,14
 619 230 619 230 686 234 c 0,15,16
 746 238 746 238 800 244.5 c 128,-1,17
 854 251 854 251 896 259 c 0,18,19
 945 267 945 267 988 277 c 1,20,-1
 1012 87 l 1,21,22
 956 72 956 72 884.5 57 c 128,-1,23
 813 42 813 42 717.5 30 c 128,-1,24
 622 18 622 18 499.5 10 c 128,-1,25
 377 2 377 2 218 2 c 2,26,-1
 0 0 l 2,27,28
 -42 0 -42 0 -71 28 c 128,-1,29
 -100 56 -100 56 -100 98 c 256,30,31
 -100 140 -100 140 -71 168 c 128,-1,32
 -42 196 -42 196 0 196 c 2,33,-1
 284 199 l 1,34,35
 211 265 211 265 181.5 339.5 c 128,-1,36
 152 414 152 414 152 503 c 0,37,38
 152 591 152 591 184.5 669.5 c 128,-1,39
 217 748 217 748 275 807 c 128,-1,40
 333 866 333 866 411.5 900.5 c 128,-1,41
 490 935 490 935 583 935 c 0,42,43
 629 935 629 935 672 927.5 c 128,-1,44
 715 920 715 920 753 907 c 128,-1,45
 791 894 791 894 824 878 c 128,-1,46
 857 862 857 862 884 845 c 0,47,48
 948 805 948 805 999 755 c 1,49,-1
 876 604 l 1,0,1
EndSplineSet
EndChar

StartChar: uniFECC
Encoding: 65228 65228 28
Width: 1144
GlyphClass: 2
Flags: W
AnchorPoint: "Anchor-1" 500 -160 basechar 0
AnchorPoint: "Anchor-0" 580 1200 basechar 0
LayerCount: 2
Fore
SplineSet
1146 196 m 0,0,1
 1166 196 1166 196 1184 188 c 128,-1,2
 1202 180 1202 180 1215.5 166.5 c 128,-1,3
 1229 153 1229 153 1237 135 c 128,-1,4
 1245 117 1245 117 1245 96 c 0,5,6
 1245 55 1245 55 1216 27 c 128,-1,7
 1187 -1 1187 -1 1146 -1 c 0,8,9
 986 -1 986 -1 849 28 c 128,-1,10
 712 57 712 57 602 122 c 1,11,12
 539 92 539 92 464.5 69 c 128,-1,13
 390 46 390 46 311.5 30 c 128,-1,14
 233 14 233 14 153.5 6.5 c 128,-1,15
 74 -1 74 -1 1 -1 c 0,16,17
 -40 -1 -40 -1 -69 27 c 128,-1,18
 -98 55 -98 55 -98 96 c 0,19,20
 -98 117 -98 117 -90 135 c 128,-1,21
 -82 153 -82 153 -68.5 166.5 c 128,-1,22
 -55 180 -55 180 -37 188 c 128,-1,23
 -19 196 -19 196 1 196 c 0,24,25
 52 196 52 196 109.5 200.5 c 128,-1,26
 167 205 167 205 223 213 c 128,-1,27
 279 221 279 221 329 232.5 c 128,-1,28
 379 244 379 244 416 259 c 1,29,30
 377 295 377 295 337 338 c 128,-1,31
 297 381 297 381 256 428.5 c 128,-1,32
 215 476 215 476 174 526 c 128,-1,33
 133 576 133 576 91 624 c 1,34,-1
 101 763 l 1,35,36
 152 809 152 809 207.5 840 c 128,-1,37
 263 871 263 871 317 890.5 c 128,-1,38
 371 910 371 910 422 920.5 c 128,-1,39
 473 931 473 931 515 935 c 0,40,41
 617 946 617 946 713.5 933 c 128,-1,42
 810 920 810 920 891 886 c 0,43,44
 944 862 944 862 977 834.5 c 128,-1,45
 1010 807 1010 807 1028 779 c 128,-1,46
 1046 751 1046 751 1052.5 726.5 c 128,-1,47
 1059 702 1059 702 1059 684 c 0,48,49
 1065 637 1065 637 1042.5 578 c 128,-1,50
 1020 519 1020 519 981 459 c 128,-1,51
 942 399 942 399 891 343 c 128,-1,52
 840 287 840 287 788 248 c 1,53,54
 856 222 856 222 950 209 c 128,-1,55
 1044 196 1044 196 1146 196 c 0,0,1
604 357 m 1,56,57
 632 372 632 372 662 396.5 c 128,-1,58
 692 421 692 421 720.5 450.5 c 128,-1,59
 749 480 749 480 774.5 512 c 128,-1,60
 800 544 800 544 819 574.5 c 128,-1,61
 838 605 838 605 849.5 630.5 c 128,-1,62
 861 656 861 656 861 673 c 1,63,64
 809 707 809 707 741 725 c 128,-1,65
 673 743 673 743 599 743 c 128,-1,66
 525 743 525 743 450 725 c 128,-1,67
 375 707 375 707 311 670 c 1,68,69
 394 569 394 569 463 492 c 128,-1,70
 532 415 532 415 604 357 c 1,56,57
EndSplineSet
EndChar

StartChar: uniFECA
Encoding: 65226 65226 29
Width: 1357
GlyphClass: 2
Flags: W
AnchorPoint: "Anchor-1" 440 -1000 basechar 0
AnchorPoint: "Anchor-0" 780 1180 basechar 0
LayerCount: 2
Fore
SplineSet
669 -587 m 0,0,1
 729 -596 729 -596 804.5 -596 c 128,-1,2
 880 -596 880 -596 959.5 -583 c 128,-1,3
 1039 -570 1039 -570 1116 -542 c 128,-1,4
 1193 -514 1193 -514 1255 -469 c 1,5,-1
 1357 -639 l 1,6,7
 1284 -683 1284 -683 1222 -712.5 c 128,-1,8
 1160 -742 1160 -742 1098 -760 c 128,-1,9
 1036 -778 1036 -778 969 -785.5 c 128,-1,10
 902 -793 902 -793 819 -793 c 0,11,12
 727 -793 727 -793 631.5 -776.5 c 128,-1,13
 536 -760 536 -760 448 -722.5 c 128,-1,14
 360 -685 360 -685 284.5 -624 c 128,-1,15
 209 -563 209 -563 157 -474 c 0,16,17
 124 -419 124 -419 109 -350 c 128,-1,18
 94 -281 94 -281 95 -209.5 c 128,-1,19
 96 -138 96 -138 112 -69.5 c 128,-1,20
 128 -1 128 -1 157 53 c 0,21,22
 188 108 188 108 232.5 157.5 c 128,-1,23
 277 207 277 207 329.5 248.5 c 128,-1,24
 382 290 382 290 441 323.5 c 128,-1,25
 500 357 500 357 559 381 c 1,26,27
 484 449 484 449 424 511.5 c 128,-1,28
 364 574 364 574 322 620 c 2,29,-1
 296 650 l 1,30,-1
 284 772 l 1,31,32
 316 821 316 821 362 856.5 c 128,-1,33
 408 892 408 892 457.5 917 c 128,-1,34
 507 942 507 942 555 957.5 c 128,-1,35
 603 973 603 973 639 982 c 0,36,37
 694 994 694 994 750 1000.5 c 128,-1,38
 806 1007 806 1007 859.5 1006.5 c 128,-1,39
 913 1006 913 1006 962.5 998.5 c 128,-1,40
 1012 991 1012 991 1054 977 c 0,41,42
 1159 945 1159 945 1214 880 c 128,-1,43
 1269 815 1269 815 1266 727 c 0,44,45
 1262 554 1262 554 1110 434 c 0,46,47
 1035 375 1035 375 944 333 c 1,48,49
 1041 274 1041 274 1144 235 c 128,-1,50
 1247 196 1247 196 1355 196 c 0,51,52
 1375 196 1375 196 1393 187.5 c 128,-1,53
 1411 179 1411 179 1424 165.5 c 128,-1,54
 1437 152 1437 152 1444.5 134.5 c 128,-1,55
 1452 117 1452 117 1452 97 c 0,56,57
 1452 55 1452 55 1424 27.5 c 128,-1,58
 1396 0 1396 0 1355 -1 c 0,59,60
 1273 -1 1273 -1 1194 16.5 c 128,-1,61
 1115 34 1115 34 1037.5 66 c 128,-1,62
 960 98 960 98 883.5 142.5 c 128,-1,63
 807 187 807 187 730 241 c 1,64,65
 653 211 653 211 575 171 c 128,-1,66
 497 131 497 131 434 77 c 128,-1,67
 371 23 371 23 331 -46.5 c 128,-1,68
 291 -116 291 -116 291 -206 c 0,69,70
 291 -256 291 -256 309 -302.5 c 128,-1,71
 327 -349 327 -349 357.5 -389.5 c 128,-1,72
 388 -430 388 -430 427 -464 c 128,-1,73
 466 -498 466 -498 508 -523.5 c 128,-1,74
 550 -549 550 -549 591.5 -565.5 c 128,-1,75
 633 -582 633 -582 669 -587 c 0,0,1
504 716 m 1,76,77
 554 664 554 664 617.5 599 c 128,-1,78
 681 534 681 534 760 468 c 1,79,80
 834 499 834 499 891 528 c 128,-1,81
 948 557 948 557 987 588.5 c 128,-1,82
 1026 620 1026 620 1046 655 c 128,-1,83
 1066 690 1066 690 1068 732 c 0,84,85
 1068 742 1068 742 1061.5 751 c 128,-1,86
 1055 760 1055 760 1044.5 767.5 c 128,-1,87
 1034 775 1034 775 1021 780.5 c 128,-1,88
 1008 786 1008 786 996 790 c 0,89,90
 940 807 940 807 873 809 c 128,-1,91
 806 811 806 811 738.5 800 c 128,-1,92
 671 789 671 789 609.5 767.5 c 128,-1,93
 548 746 548 746 504 716 c 1,76,77
EndSplineSet
EndChar

StartChar: uniFEDB
Encoding: 65243 65243 30
Width: 1023
GlyphClass: 2
Flags: W
AnchorPoint: "Anchor-1" 300 -160 basechar 0
AnchorPoint: "Anchor-0" 400 1650 basechar 0
LayerCount: 2
Fore
SplineSet
-108 97 m 0,0,1
 -108 139 -108 139 -78 167.5 c 128,-1,2
 -48 196 -48 196 0 196 c 2,3,-1
 105 196 l 2,4,5
 165 196 165 196 230 197.5 c 128,-1,6
 295 199 295 199 354.5 209.5 c 128,-1,7
 414 220 414 220 462.5 242.5 c 128,-1,8
 511 265 511 265 539 307 c 0,9,10
 572 357 572 357 577.5 416 c 128,-1,11
 583 475 583 475 565 544 c 0,12,13
 554 585 554 585 510.5 648.5 c 128,-1,14
 467 712 467 712 403 784.5 c 128,-1,15
 339 857 339 857 260 933 c 128,-1,16
 181 1009 181 1009 99 1075 c 1,17,-1
 122 1280 l 1,18,-1
 944 1632 l 1,19,-1
 1021 1450 l 1,20,-1
 305 1149 l 1,21,22
 354 1107 354 1107 412 1055 c 128,-1,23
 470 1003 470 1003 527 940 c 0,24,25
 603 856 603 856 652 779.5 c 128,-1,26
 701 703 701 703 728 634 c 128,-1,27
 755 565 755 565 764 503.5 c 128,-1,28
 773 442 773 442 768 388 c 128,-1,29
 763 334 763 334 747.5 288 c 128,-1,30
 732 242 732 242 711 204 c 0,31,32
 622 46 622 46 410 7 c 0,33,34
 372 0 372 0 323 0 c 2,35,-1
 0 0 l 2,36,37
 -48 0 -48 0 -78 28 c 128,-1,38
 -108 56 -108 56 -108 97 c 0,0,1
EndSplineSet
EndChar

StartChar: uniFEDC
Encoding: 65244 65244 31
Width: 1188
GlyphClass: 2
Flags: W
AnchorPoint: "Anchor-1" 540 -240 basechar 0
AnchorPoint: "Anchor-0" 400 1670 basechar 0
LayerCount: 2
Fore
SplineSet
-109 98 m 0,0,1
 -109 118 -109 118 -101 136 c 128,-1,2
 -93 154 -93 154 -79.5 167.5 c 128,-1,3
 -66 181 -66 181 -48 188.5 c 128,-1,4
 -30 196 -30 196 -10 196 c 2,5,-1
 -1 196 l 1,6,-1
 329 196 l 2,7,8
 369 196 369 196 409.5 212 c 128,-1,9
 450 228 450 228 482.5 255 c 128,-1,10
 515 282 515 282 536.5 316.5 c 128,-1,11
 558 351 558 351 561 387 c 0,12,13
 566 444 566 444 546.5 506.5 c 128,-1,14
 527 569 527 569 491 633 c 128,-1,15
 455 697 455 697 407 760 c 128,-1,16
 359 823 359 823 306.5 879.5 c 128,-1,17
 254 936 254 936 201 983.5 c 128,-1,18
 148 1031 148 1031 103 1066 c 1,19,-1
 129 1287 l 1,20,-1
 1013 1668 l 1,21,-1
 1090 1486 l 1,22,-1
 297 1153 l 1,23,24
 373 1092 373 1092 430.5 1030.5 c 128,-1,25
 488 969 488 969 534 907 c 128,-1,26
 580 845 580 845 616.5 783 c 128,-1,27
 653 721 653 721 686.5 659 c 128,-1,28
 720 597 720 597 753 534 c 128,-1,29
 786 471 786 471 824 407 c 0,30,31
 853 359 853 359 886 320.5 c 128,-1,32
 919 282 919 282 957.5 255 c 128,-1,33
 996 228 996 228 1042.5 212.5 c 128,-1,34
 1089 197 1089 197 1145 196 c 2,35,-1
 1187 196 l 2,36,37
 1229 196 1229 196 1257 167.5 c 128,-1,38
 1285 139 1285 139 1285 98 c 0,39,40
 1285 56 1285 56 1257 28 c 128,-1,41
 1229 0 1229 0 1187 0 c 2,42,-1
 1179 0 l 2,43,44
 1107 0 1107 0 1052.5 9 c 128,-1,45
 998 18 998 18 946 35 c 0,46,47
 875 61 875 61 815 111 c 128,-1,48
 755 161 755 161 710 219 c 1,49,50
 675 155 675 155 624 107 c 0,51,52
 591 78 591 78 554.5 58 c 128,-1,53
 518 38 518 38 478.5 26 c 128,-1,54
 439 14 439 14 398 8 c 128,-1,55
 357 2 357 2 316 0 c 2,56,-1
 -10 0 l 2,57,58
 -51 0 -51 0 -80 28 c 128,-1,59
 -109 56 -109 56 -109 98 c 0,0,1
EndSplineSet
EndChar

StartChar: uni0643
Encoding: 1603 1603 32
AltUni2: 00fed9.ffffffff.0
Width: 2024
GlyphClass: 2
Flags: W
AnchorPoint: "Anchor-1" 720 -220 basechar 0
AnchorPoint: "Anchor-0" 650 1220 basechar 0
LayerCount: 2
Fore
SplineSet
1127 962 m 1,0,1
 1115 965 1115 965 1100 968 c 0,2,3
 1087 970 1087 970 1070.5 972.5 c 128,-1,4
 1054 975 1054 975 1035 975 c 0,5,6
 1020 975 1020 975 1004.5 972.5 c 128,-1,7
 989 970 989 970 973 963 c 1,8,-1
 973 965 l 1,9,10
 941 951 941 951 921.5 922.5 c 128,-1,11
 902 894 902 894 902 861 c 0,12,13
 902 844 902 844 910 825 c 1,14,-1
 909 826 l 1,15,16
 923 791 923 791 958.5 767.5 c 128,-1,17
 994 744 994 744 1037 744 c 0,18,19
 1048 744 1048 744 1058 745 c 128,-1,20
 1068 746 1068 746 1079 751 c 0,21,22
 1105 759 1105 759 1130 772 c 128,-1,23
 1155 785 1155 785 1175 797 c 0,24,25
 1198 811 1198 811 1218 826 c 1,26,-1
 1277 748 l 1,27,28
 1238 719 1238 719 1179 686 c 128,-1,29
 1120 653 1120 653 1035 606 c 2,30,-1
 808 480 l 1,31,-1
 760 567 l 1,32,-1
 939 667 l 1,33,34
 898 684 898 684 866.5 716 c 128,-1,35
 835 748 835 748 818 787 c 0,36,37
 804 821 804 821 804 861 c 0,38,39
 804 892 804 892 813.5 921.5 c 128,-1,40
 823 951 823 951 840.5 976.5 c 128,-1,41
 858 1002 858 1002 882.5 1022 c 128,-1,42
 907 1042 907 1042 937 1054 c 0,43,44
 984 1073 984 1073 1035 1073 c 0,45,46
 1058 1073 1058 1073 1079 1070 c 128,-1,47
 1100 1067 1100 1067 1117 1063 c 0,48,49
 1136 1059 1136 1059 1155 1054 c 1,50,-1
 1127 962 l 1,0,1
1862 955 m 0,51,52
 1868 774 1868 774 1872 664 c 128,-1,53
 1876 554 1876 554 1876 508 c 0,54,55
 1875 458 1875 458 1864.5 408 c 128,-1,56
 1854 358 1854 358 1828 309 c 0,57,58
 1746 156 1746 156 1544 76 c 0,59,60
 1433 33 1433 33 1290.5 11 c 128,-1,61
 1148 -11 1148 -11 971 -11 c 0,62,63
 610 -6 610 -6 396 73 c 0,64,65
 190 151 190 151 116 302 c 0,66,67
 74 383 74 383 74 478 c 128,-1,68
 74 573 74 573 113 676 c 0,69,70
 127 712 127 712 142 742 c 128,-1,71
 157 772 157 772 169.5 794 c 128,-1,72
 182 816 182 816 191 829.5 c 128,-1,73
 200 843 200 843 202 846 c 2,74,-1
 361 728 l 1,75,76
 355 720 355 720 349 711 c 128,-1,77
 343 702 343 702 338 692 c 0,78,79
 328 675 328 675 317 652.5 c 128,-1,80
 306 630 306 630 296 602 c 0,81,82
 250 475 250 475 292 392 c 0,83,84
 341 294 341 294 516 241.5 c 128,-1,85
 691 189 691 189 971 188 c 0,86,87
 1292 188 1292 188 1471 259 c 0,88,89
 1606 314 1606 314 1653 402 c 0,90,91
 1668 429 1668 429 1673.5 458.5 c 128,-1,92
 1679 488 1679 488 1680 517 c 0,93,94
 1678 576 1678 576 1674 686.5 c 128,-1,95
 1670 797 1670 797 1663 948 c 0,96,97
 1659 1058 1659 1058 1653.5 1153.5 c 128,-1,98
 1648 1249 1648 1249 1643 1321 c 128,-1,99
 1638 1393 1638 1393 1633.5 1437.5 c 128,-1,100
 1629 1482 1629 1482 1628 1491 c 1,101,-1
 1824 1512 l 1,102,103
 1825 1496 1825 1496 1829.5 1448.5 c 128,-1,104
 1834 1401 1834 1401 1840 1328 c 128,-1,105
 1846 1255 1846 1255 1851.5 1160 c 128,-1,106
 1857 1065 1857 1065 1862 955 c 0,51,52
EndSplineSet
Substitution2: "'fina' Terminal Forms in Arabic lookup 7 subtable" uniFEDA
Substitution2: "'medi' Medial Forms in Arabic lookup 3 subtable" uniFEDC
Substitution2: "'init' Initial Forms in Arabic lookup 1 subtable" uniFEDB
PairPos2: "'kern' Horizontal Kerning in Arabic lookup 4 subtable" parenleft dx=-200 dy=0 dh=-200 dv=0 dx=0 dy=0 dh=0 dv=0
EndChar

StartChar: uniFEDA
Encoding: 65242 65242 33
Width: 2075
GlyphClass: 2
Flags: W
AnchorPoint: "Anchor-1" 800 -160 basechar 0
AnchorPoint: "Anchor-0" 740 1240 basechar 0
LayerCount: 2
Fore
SplineSet
1909 284 m 0,0,1
 1919 264 1919 264 1932 247.5 c 128,-1,2
 1945 231 1945 231 1964 220 c 128,-1,3
 1983 209 1983 209 2010.5 202.5 c 128,-1,4
 2038 196 2038 196 2076 196 c 2,5,-1
 2080 196 l 2,6,7
 2121 196 2121 196 2149.5 167.5 c 128,-1,8
 2178 139 2178 139 2178 98 c 256,9,10
 2178 57 2178 57 2149.5 28.5 c 128,-1,11
 2121 0 2121 0 2080 0 c 2,12,-1
 2076 0 l 2,13,14
 1957 0 1957 0 1873 47 c 0,15,16
 1786 98 1786 98 1737 192 c 1,17,18
 1656 110 1656 110 1526 59 c 0,19,20
 1415 16 1415 16 1272.5 -6 c 128,-1,21
 1130 -28 1130 -28 953 -28 c 0,22,23
 592 -23 592 -23 378 56 c 0,24,25
 172 134 172 134 98 285 c 0,26,27
 56 366 56 366 56 461 c 128,-1,28
 56 556 56 556 95 659 c 0,29,30
 109 695 109 695 124 725 c 128,-1,31
 139 755 139 755 151.5 777 c 128,-1,32
 164 799 164 799 173 812.5 c 128,-1,33
 182 826 182 826 184 829 c 2,34,-1
 343 711 l 1,35,36
 303 656 303 656 278 585 c 0,37,38
 232 458 232 458 274 375 c 0,39,40
 323 277 323 277 498 224.5 c 128,-1,41
 673 172 673 172 953 171 c 0,42,43
 1274 171 1274 171 1453 242 c 0,44,45
 1588 297 1588 297 1635 385 c 0,46,47
 1650 412 1650 412 1655.5 441.5 c 128,-1,48
 1661 471 1661 471 1662 500 c 0,49,50
 1660 559 1660 559 1652 669.5 c 128,-1,51
 1644 780 1644 780 1637 931 c 0,52,53
 1633 1041 1633 1041 1627.5 1136.5 c 128,-1,54
 1622 1232 1622 1232 1617 1304 c 128,-1,55
 1612 1376 1612 1376 1607.5 1420.5 c 128,-1,56
 1603 1465 1603 1465 1602 1474 c 1,57,-1
 1798 1495 l 1,58,59
 1799 1479 1799 1479 1803.5 1431.5 c 128,-1,60
 1808 1384 1808 1384 1814 1311 c 128,-1,61
 1820 1238 1820 1238 1825.5 1143 c 128,-1,62
 1831 1048 1831 1048 1836 938 c 0,63,64
 1837 901 1837 901 1839.5 864.5 c 128,-1,65
 1842 828 1842 828 1845 784.5 c 128,-1,66
 1848 741 1848 741 1851.5 686.5 c 128,-1,67
 1855 632 1855 632 1857 557 c 0,68,69
 1862 460 1862 460 1874.5 393.5 c 128,-1,70
 1887 327 1887 327 1909 284 c 0,0,1
1074 966 m 1,71,72
 1062 969 1062 969 1047 972 c 0,73,74
 1034 974 1034 974 1017.5 976.5 c 128,-1,75
 1001 979 1001 979 982 979 c 0,76,77
 967 979 967 979 951.5 976.5 c 128,-1,78
 936 974 936 974 920 967 c 1,79,-1
 920 969 l 1,80,81
 888 955 888 955 868.5 926.5 c 128,-1,82
 849 898 849 898 849 865 c 0,83,84
 849 848 849 848 857 829 c 1,85,-1
 856 830 l 1,86,87
 870 795 870 795 905.5 771.5 c 128,-1,88
 941 748 941 748 984 748 c 0,89,90
 995 748 995 748 1005 749 c 128,-1,91
 1015 750 1015 750 1026 755 c 0,92,93
 1052 763 1052 763 1077 776 c 128,-1,94
 1102 789 1102 789 1122 801 c 0,95,96
 1145 815 1145 815 1165 830 c 1,97,-1
 1224 752 l 1,98,99
 1185 723 1185 723 1126 690 c 128,-1,100
 1067 657 1067 657 982 610 c 2,101,-1
 755 484 l 1,102,-1
 707 571 l 1,103,-1
 886 671 l 1,104,105
 845 688 845 688 813.5 720 c 128,-1,106
 782 752 782 752 765 791 c 0,107,108
 751 825 751 825 751 865 c 0,109,110
 751 896 751 896 760.5 925.5 c 128,-1,111
 770 955 770 955 787.5 980.5 c 128,-1,112
 805 1006 805 1006 829.5 1026 c 128,-1,113
 854 1046 854 1046 884 1058 c 0,114,115
 931 1077 931 1077 982 1077 c 0,116,117
 1005 1077 1005 1077 1026 1074 c 128,-1,118
 1047 1071 1047 1071 1064 1067 c 0,119,120
 1083 1063 1083 1063 1102 1058 c 1,121,-1
 1074 966 l 1,71,72
EndSplineSet
PairPos2: "'kern' Horizontal Kerning in Arabic lookup 4 subtable" parenleft dx=-200 dy=0 dh=-200 dv=0 dx=0 dy=0 dh=0 dv=0
EndChar

StartChar: uni0644
Encoding: 1604 1604 34
AltUni2: 00fedd.ffffffff.0
Width: 1483
GlyphClass: 2
Flags: W
AnchorPoint: "Anchor-1" 630 -840 basechar 0
AnchorPoint: "Anchor-0" 460 1260 basechar 0
LayerCount: 2
Fore
SplineSet
407 339 m 1,0,1
 378 295 378 295 355 233 c 0,2,3
 335 179 335 179 318.5 101 c 128,-1,4
 302 23 302 23 302 -82 c 0,5,6
 302 -181 302 -181 340 -251.5 c 128,-1,7
 378 -322 378 -322 434.5 -367 c 128,-1,8
 491 -412 491 -412 555 -434 c 128,-1,9
 619 -456 619 -456 671 -459 c 0,10,11
 721 -462 721 -462 776.5 -454 c 128,-1,12
 832 -446 832 -446 886 -425 c 128,-1,13
 940 -404 940 -404 989 -368.5 c 128,-1,14
 1038 -333 1038 -333 1075.5 -282.5 c 128,-1,15
 1113 -232 1113 -232 1135.5 -165.5 c 128,-1,16
 1158 -99 1158 -99 1158 -14 c 0,17,18
 1158 65 1158 65 1155.5 173 c 128,-1,19
 1153 281 1153 281 1149.5 404 c 128,-1,20
 1146 527 1146 527 1141 657.5 c 128,-1,21
 1136 788 1136 788 1131 912 c 0,22,23
 1120 1203 1120 1203 1105 1521 c 1,24,-1
 1301 1529 l 1,25,26
 1316 1209 1316 1209 1327 916 c 0,27,28
 1332 791 1332 791 1337 660 c 128,-1,29
 1342 529 1342 529 1345.5 405.5 c 128,-1,30
 1349 282 1349 282 1351.5 173.5 c 128,-1,31
 1354 65 1354 65 1354 -14 c 0,32,33
 1354 -140 1354 -140 1322 -237.5 c 128,-1,34
 1290 -335 1290 -335 1236.5 -407.5 c 128,-1,35
 1183 -480 1183 -480 1113.5 -529 c 128,-1,36
 1044 -578 1044 -578 968 -607.5 c 128,-1,37
 892 -637 892 -637 815 -648 c 128,-1,38
 738 -659 738 -659 671 -655 c 0,39,40
 610 -652 610 -652 544.5 -636 c 128,-1,41
 479 -620 479 -620 416 -589.5 c 128,-1,42
 353 -559 353 -559 296.5 -514 c 128,-1,43
 240 -469 240 -469 197.5 -406.5 c 128,-1,44
 155 -344 155 -344 130 -263.5 c 128,-1,45
 105 -183 105 -183 106 -82 c 0,46,47
 107 47 107 47 126 140.5 c 128,-1,48
 145 234 145 234 168 297 c 0,49,50
 194 369 194 369 228 419 c 1,51,-1
 407 339 l 1,0,1
EndSplineSet
Substitution2: "'fina' Terminal Forms in Arabic lookup 7 subtable" uniFEDE
Substitution2: "'medi' Medial Forms in Arabic lookup 3 subtable" uniFEE0
Substitution2: "'init' Initial Forms in Arabic lookup 1 subtable" uniFEDF
EndChar

StartChar: uniFEDF
Encoding: 65247 65247 35
Width: 569
GlyphClass: 2
Flags: W
AnchorPoint: "Anchor-1" 230 -160 basechar 0
AnchorPoint: "Anchor-0" 230 1680 basechar 0
LayerCount: 2
Fore
SplineSet
-98 98 m 0,0,1
 -98 140 -98 140 -69.5 168 c 128,-1,2
 -41 196 -41 196 0 196 c 2,3,-1
 9 196 l 1,4,-1
 56 196 l 2,5,6
 169 196 169 196 217 244 c 0,7,8
 269 298 269 298 268 450 c 2,9,-1
 268 476 l 2,10,11
 268 521 268 521 263 641 c 128,-1,12
 258 761 258 761 251 940 c 0,13,14
 247 1050 247 1050 241.5 1145.5 c 128,-1,15
 236 1241 236 1241 231 1313 c 128,-1,16
 226 1385 226 1385 221.5 1429.5 c 128,-1,17
 217 1474 217 1474 216 1483 c 1,18,-1
 412 1504 l 1,19,20
 413 1488 413 1488 417.5 1440.5 c 128,-1,21
 422 1393 422 1393 428 1320 c 128,-1,22
 434 1247 434 1247 439.5 1152 c 128,-1,23
 445 1057 445 1057 450 947 c 0,24,25
 456 766 456 766 460.5 645 c 128,-1,26
 465 524 465 524 465 478 c 0,27,28
 465 470 465 470 465 463.5 c 128,-1,29
 465 457 465 457 466 452 c 0,30,31
 467 414 467 414 464 369.5 c 128,-1,32
 461 325 461 325 450 279 c 128,-1,33
 439 233 439 233 417.5 188 c 128,-1,34
 396 143 396 143 359 105 c 0,35,36
 254 0 254 0 56 0 c 2,37,-1
 9 0 l 1,38,-1
 0 0 l 2,39,40
 -41 0 -41 0 -69.5 28.5 c 128,-1,41
 -98 57 -98 57 -98 98 c 0,0,1
EndSplineSet
EndChar

StartChar: uniFEE0
Encoding: 65248 65248 36
Width: 649
GlyphClass: 2
Flags: W
AnchorPoint: "Anchor-1" 300 -160 basechar 0
AnchorPoint: "Anchor-0" 370 1760 basechar 0
LayerCount: 2
Fore
SplineSet
-111 98 m 0,0,1
 -111 139 -111 139 -82.5 167.5 c 128,-1,2
 -54 196 -54 196 -13 196 c 2,3,-1
 -4 196 l 1,4,-1
 82 196 l 2,5,6
 112 197 112 197 132.5 199 c 128,-1,7
 153 201 153 201 168 204 c 128,-1,8
 183 207 183 207 192.5 211.5 c 128,-1,9
 202 216 202 216 210 222 c 0,10,11
 225 233 225 233 234.5 251.5 c 128,-1,12
 244 270 244 270 250 293 c 128,-1,13
 256 316 256 316 258.5 341.5 c 128,-1,14
 261 367 261 367 263 393 c 0,15,16
 263 395 263 395 264 433.5 c 128,-1,17
 265 472 265 472 266 536 c 128,-1,18
 267 600 267 600 268 684.5 c 128,-1,19
 269 769 269 769 269.5 861.5 c 128,-1,20
 270 954 270 954 269.5 1050 c 128,-1,21
 269 1146 269 1146 267 1234 c 128,-1,22
 265 1322 265 1322 262 1396 c 128,-1,23
 259 1470 259 1470 253 1519 c 1,24,-1
 448 1544 l 1,25,26
 455 1493 455 1493 459 1418 c 128,-1,27
 463 1343 463 1343 465.5 1255.5 c 128,-1,28
 468 1168 468 1168 468.5 1072.5 c 128,-1,29
 469 977 469 977 468.5 884 c 128,-1,30
 468 791 468 791 467 705.5 c 128,-1,31
 466 620 466 620 465 553 c 128,-1,32
 464 486 464 486 463 442.5 c 128,-1,33
 462 399 462 399 462 389 c 0,34,35
 462 366 462 366 467.5 332.5 c 128,-1,36
 473 299 473 299 493 267 c 0,37,38
 512 236 512 236 546.5 216 c 128,-1,39
 581 196 581 196 649 196 c 0,40,41
 670 196 670 196 688 188.5 c 128,-1,42
 706 181 706 181 719.5 167.5 c 128,-1,43
 733 154 733 154 741 136 c 128,-1,44
 749 118 749 118 749 98 c 0,45,46
 749 56 749 56 720 28 c 128,-1,47
 691 0 691 0 649 0 c 0,48,49
 599 -1 599 -1 556.5 7 c 128,-1,50
 514 15 514 15 479.5 29.5 c 128,-1,51
 445 44 445 44 418 63 c 128,-1,52
 391 82 391 82 371 103 c 1,53,54
 361 92 361 92 352 83.5 c 128,-1,55
 343 75 343 75 333 67 c 0,56,57
 305 44 305 44 275.5 31 c 128,-1,58
 246 18 246 18 216.5 11 c 128,-1,59
 187 4 187 4 158.5 2 c 128,-1,60
 130 0 130 0 105 0 c 2,61,-1
 -4 0 l 1,62,-1
 -13 0 l 2,63,64
 -54 0 -54 0 -82.5 28 c 128,-1,65
 -111 56 -111 56 -111 98 c 0,0,1
EndSplineSet
EndChar

StartChar: uniFEDE
Encoding: 65246 65246 37
Width: 1532
GlyphClass: 2
Flags: W
AnchorPoint: "Anchor-1" 630 -840 basechar 0
AnchorPoint: "Anchor-0" 440 1220 basechar 0
LayerCount: 2
Fore
SplineSet
390 339 m 1,0,1
 360 300 360 300 337 240 c 0,2,3
 317 189 317 189 301 109.5 c 128,-1,4
 285 30 285 30 285 -82 c 0,5,6
 285 -148 285 -148 304 -202 c 128,-1,7
 323 -256 323 -256 354 -297.5 c 128,-1,8
 385 -339 385 -339 424.5 -369.5 c 128,-1,9
 464 -400 464 -400 505 -420 c 128,-1,10
 546 -440 546 -440 585 -449.5 c 128,-1,11
 624 -459 624 -459 654 -459 c 0,12,13
 700 -459 700 -459 754.5 -452.5 c 128,-1,14
 809 -446 809 -446 863 -429.5 c 128,-1,15
 917 -413 917 -413 967 -384 c 128,-1,16
 1017 -355 1017 -355 1056 -310 c 128,-1,17
 1095 -265 1095 -265 1118 -202 c 128,-1,18
 1141 -139 1141 -139 1141 -54 c 0,19,20
 1141 25 1141 25 1138.5 134.5 c 128,-1,21
 1136 244 1136 244 1132.5 369.5 c 128,-1,22
 1129 495 1129 495 1124 629 c 128,-1,23
 1119 763 1119 763 1114 891 c 0,24,25
 1103 1191 1103 1191 1088 1521 c 1,26,-1
 1284 1529 l 1,27,28
 1292 1349 1292 1349 1300 1159 c 0,29,30
 1303 1078 1303 1078 1307 987 c 128,-1,31
 1311 896 1311 896 1314.5 800 c 128,-1,32
 1318 704 1318 704 1321.5 607 c 128,-1,33
 1325 510 1325 510 1328 417 c 0,34,35
 1332 354 1332 354 1356 306 c 0,36,37
 1366 285 1366 285 1381 265.5 c 128,-1,38
 1396 246 1396 246 1417 230.5 c 128,-1,39
 1438 215 1438 215 1466.5 205.5 c 128,-1,40
 1495 196 1495 196 1532 196 c 0,41,42
 1553 196 1553 196 1571 188 c 128,-1,43
 1589 180 1589 180 1602.5 166.5 c 128,-1,44
 1616 153 1616 153 1623.5 135 c 128,-1,45
 1631 117 1631 117 1631 97 c 0,46,47
 1631 55 1631 55 1602.5 27.5 c 128,-1,48
 1574 0 1574 0 1532 0 c 0,49,50
 1497 0 1497 0 1469 3 c 128,-1,51
 1441 6 1441 6 1417.5 12 c 128,-1,52
 1394 18 1394 18 1374.5 26 c 128,-1,53
 1355 34 1355 34 1336 45 c 1,54,55
 1337 18 1337 18 1337 -7 c 128,-1,56
 1337 -32 1337 -32 1337 -54 c 0,57,58
 1337 -180 1337 -180 1305.5 -273.5 c 128,-1,59
 1274 -367 1274 -367 1221 -434 c 128,-1,60
 1168 -501 1168 -501 1099 -543.5 c 128,-1,61
 1030 -586 1030 -586 954 -611 c 128,-1,62
 878 -636 878 -636 800.5 -645.5 c 128,-1,63
 723 -655 723 -655 654 -655 c 0,64,65
 586 -655 586 -655 518 -640.5 c 128,-1,66
 450 -626 450 -626 387 -596 c 128,-1,67
 324 -566 324 -566 269.5 -519.5 c 128,-1,68
 215 -473 215 -473 175 -409.5 c 128,-1,69
 135 -346 135 -346 112 -264.5 c 128,-1,70
 89 -183 89 -183 89 -82 c 0,71,72
 89 57 89 57 108.5 155 c 128,-1,73
 128 253 128 253 152 317 c 0,74,75
 180 391 180 391 216 440 c 1,76,-1
 390 339 l 1,0,1
EndSplineSet
EndChar

StartChar: uni0645
Encoding: 1605 1605 38
AltUni2: 00fee1.ffffffff.0
Width: 1237
GlyphClass: 2
Flags: W
AnchorPoint: "Anchor-1" 720 -640 basechar 0
AnchorPoint: "Anchor-0" 540 1060 basechar 0
LayerCount: 2
Fore
SplineSet
141 -731 m 1,0,-1
 104 196 l 2,1,2
 104 202 104 202 104.5 224 c 128,-1,3
 105 246 105 246 112 274.5 c 128,-1,4
 119 303 119 303 136 333.5 c 128,-1,5
 153 364 153 364 185 388 c 0,6,7
 198 398 198 398 216.5 407.5 c 128,-1,8
 235 417 235 417 259 421.5 c 128,-1,9
 283 426 283 426 312.5 425 c 128,-1,10
 342 424 342 424 378 414 c 1,11,12
 389 448 389 448 405 486 c 128,-1,13
 421 524 421 524 442 565 c 0,14,15
 473 623 473 623 504.5 667.5 c 128,-1,16
 536 712 536 712 568 745 c 0,17,18
 670 845 670 845 788 841 c 0,19,20
 869 838 869 838 935 805.5 c 128,-1,21
 1001 773 1001 773 1049 710 c 0,22,23
 1086 661 1086 661 1107 597 c 128,-1,24
 1128 533 1128 533 1133.5 464.5 c 128,-1,25
 1139 396 1139 396 1129.5 328 c 128,-1,26
 1120 260 1120 260 1096 203 c 0,27,28
 1067 130 1067 130 1021 86 c 128,-1,29
 975 42 975 42 917 32 c 0,30,31
 889 28 889 28 855 33 c 128,-1,32
 821 38 821 38 777 51.5 c 128,-1,33
 733 65 733 65 677.5 86.5 c 128,-1,34
 622 108 622 108 550 137 c 0,35,36
 494 161 494 161 438.5 183 c 128,-1,37
 383 205 383 205 333 221 c 0,38,39
 324 224 324 224 316.5 226 c 128,-1,40
 309 228 309 228 304 228 c 1,41,42
 301 213 301 213 301 204 c 2,43,-1
 337 -731 l 1,44,-1
 141 -731 l 1,0,-1
626 320 m 2,45,46
 672 300 672 300 715.5 283.5 c 128,-1,47
 759 267 759 267 797 253 c 256,48,49
 835 239 835 239 866.5 231 c 128,-1,50
 898 223 898 223 905 222 c 1,51,52
 920 246 920 246 929.5 282 c 128,-1,53
 939 318 939 318 942.5 357 c 128,-1,54
 946 396 946 396 944 434.5 c 128,-1,55
 942 473 942 473 933 502 c 0,56,57
 918 553 918 553 896.5 581.5 c 128,-1,58
 875 610 875 610 853 624 c 128,-1,59
 831 638 831 638 811.5 641 c 128,-1,60
 792 644 792 644 781 644 c 0,61,62
 746 645 746 645 703 600 c 128,-1,63
 660 555 660 555 619 474 c 0,64,65
 601 441 601 441 587.5 407.5 c 128,-1,66
 574 374 574 374 563 346 c 1,67,-1
 626 320 l 2,45,46
EndSplineSet
Substitution2: "'fina' Terminal Forms in Arabic lookup 7 subtable" uniFEE2
Substitution2: "'medi' Medial Forms in Arabic lookup 3 subtable" uniFEE4
Substitution2: "'init' Initial Forms in Arabic lookup 1 subtable" uniFEE3
EndChar

StartChar: uniFEE3
Encoding: 65251 65251 39
Width: 1165
GlyphClass: 2
Flags: W
AnchorPoint: "Anchor-1" 620 -220 basechar 0
AnchorPoint: "Anchor-0" 560 1060 basechar 0
LayerCount: 2
Fore
SplineSet
-97 98 m 256,0,1
 -97 139 -97 139 -69 166.5 c 128,-1,2
 -41 194 -41 194 0 196 c 2,3,-1
 1 196 l 2,4,5
 85 196 85 196 143 223.5 c 128,-1,6
 201 251 201 251 244 296.5 c 128,-1,7
 287 342 287 342 319 400.5 c 128,-1,8
 351 459 351 459 382 521 c 0,9,10
 408 575 408 575 434 624 c 128,-1,11
 460 673 460 673 494 714 c 0,12,13
 584 824 584 824 712 824 c 0,14,15
 863 824 863 824 963 703 c 0,16,17
 1043 607 1043 607 1059 462 c 0,18,19
 1069 393 1069 393 1062 327 c 128,-1,20
 1055 261 1055 261 1033 202 c 0,21,22
 1004 130 1004 130 956 83.5 c 128,-1,23
 908 37 908 37 845 20 c 0,24,25
 733 -10 733 -10 592 47 c 0,26,27
 495 85 495 85 389 163 c 1,28,29
 382 156 382 156 379 154 c 0,30,31
 230 0 230 0 1 0 c 2,32,-1
 0 0 l 2,33,34
 -41 0 -41 0 -69 28.5 c 128,-1,35
 -97 57 -97 57 -97 98 c 256,0,1
504 325 m 1,36,37
 595 258 595 258 670 228 c 128,-1,38
 745 198 745 198 795 212 c 0,39,40
 812 216 812 216 828 235 c 128,-1,41
 844 254 844 254 855.5 284 c 128,-1,42
 867 314 867 314 871.5 353 c 128,-1,43
 876 392 876 392 870 437 c 0,44,45
 869 444 869 444 865 461 c 128,-1,46
 861 478 861 478 853.5 499 c 128,-1,47
 846 520 846 520 834 542.5 c 128,-1,48
 822 565 822 565 805 583.5 c 128,-1,49
 788 602 788 602 765 614 c 128,-1,50
 742 626 742 626 712 626 c 0,51,52
 692 626 692 626 674.5 614.5 c 128,-1,53
 657 603 657 603 639.5 579 c 128,-1,54
 622 555 622 555 602.5 519 c 128,-1,55
 583 483 583 483 558 434 c 2,56,-1
 504 325 l 1,36,37
EndSplineSet
EndChar

StartChar: uniFEE4
Encoding: 65252 65252 40
Width: 1178
GlyphClass: 2
Flags: W
AnchorPoint: "Anchor-1" 660 -220 basechar 0
AnchorPoint: "Anchor-0" 600 1060 basechar 0
LayerCount: 2
Fore
SplineSet
716 202 m 0,0,1
 795 188 795 188 830 237 c 0,2,3
 857 276 857 276 856 350 c 0,4,5
 855 369 855 369 855 386 c 2,6,-1
 854 396 l 2,7,8
 845 485 845 485 794 553 c 0,9,10
 741 625 741 625 677 625 c 0,11,12
 625 625 625 625 563 513 c 0,13,14
 543 477 543 477 513 413 c 2,15,-1
 501 389 l 1,16,-1
 490 365 l 2,17,18
 478 338 478 338 469 321 c 1,19,20
 618 221 618 221 716 202 c 0,0,1
1171 196 m 0,21,22
 1212 196 1212 196 1241 167 c 0,23,24
 1269 138 1269 138 1269 98 c 0,25,26
 1269 57 1269 57 1241 29 c 0,27,28
 1212 0 1212 0 1171 0 c 0,29,30
 1024 0 1024 0 947 99 c 1,31,32
 864 -11 864 -11 739 6 c 0,33,34
 540 32 540 32 352 162 c 1,35,36
 326 121 326 121 268 81 c 0,37,38
 154 0 154 0 -2 0 c 0,39,40
 -43 0 -43 0 -71 29 c 0,41,42
 -100 57 -100 57 -100 98 c 0,43,44
 -100 138 -100 138 -71 167 c 0,45,46
 -43 196 -43 196 -2 196 c 0,47,48
 140 196 140 196 249 341 c 0,49,50
 285 390 285 390 322 462 c 0,51,52
 333 484 333 484 349 517 c 2,53,-1
 355 530 l 1,54,-1
 361 542 l 2,55,56
 367 554 367 554 371 563 c 2,57,-1
 395 609 l 2,58,59
 409 635 409 635 421 655 c 0,60,61
 451 706 451 706 482 738 c 0,62,63
 561 822 561 822 677 822 c 0,64,65
 813 822 813 822 912 710 c 0,66,67
 1004 605 1004 605 1028 447 c 0,68,69
 1035 401 1035 401 1032 350 c 1,70,71
 1040 279 1040 279 1077 234 c 0,72,73
 1109 196 1109 196 1171 196 c 0,21,22
EndSplineSet
EndChar

StartChar: uniFEE2
Encoding: 65250 65250 41
Width: 1247
GlyphClass: 2
Flags: W
AnchorPoint: "Anchor-1" 760 -500 basechar 0
AnchorPoint: "Anchor-0" 600 1060 basechar 0
LayerCount: 2
Fore
SplineSet
871 229 m 0,0,1
 900 220 900 220 927 274 c 0,2,3
 953 327 953 327 954 391 c 2,4,-1
 954 403 l 1,5,-1
 953 416 l 2,6,7
 944 502 944 502 888 573 c 0,8,9
 832 645 832 645 773 645 c 0,10,11
 713 645 713 645 653 550 c 0,12,13
 602 471 602 471 563 347 c 1,14,15
 719 272 719 272 871 229 c 0,0,1
1241 216 m 0,16,17
 1281 216 1281 216 1310 187 c 0,18,19
 1338 159 1338 159 1338 118 c 0,20,21
 1338 78 1338 78 1310 49 c 0,22,23
 1281 20 1281 20 1241 20 c 0,24,25
 1121 20 1121 20 1046 110 c 1,26,27
 959 -7 959 -7 834 36 c 0,28,29
 656 97 656 97 304 229 c 1,30,-1
 339 -720 l 1,31,32
 142 -735 142 -735 140 -729 c 0,33,34
 120 -268 120 -268 103 155 c 0,35,36
 97 308 97 308 171 378 c 0,37,38
 245 450 245 450 377 416 c 1,39,40
 405 488 405 488 435 549 c 0,41,42
 475 629 475 629 519 688 c 0,43,44
 636 842 636 842 776 842 c 0,45,46
 912 842 912 842 1011 730 c 0,47,48
 1103 625 1103 625 1127 468 c 0,49,50
 1133 422 1133 422 1131 371 c 1,51,52
 1139 300 1139 300 1176 255 c 0,53,54
 1208 216 1208 216 1241 216 c 0,16,17
EndSplineSet
EndChar

StartChar: uni0647
Encoding: 1607 1607 42
AltUni2: 00fee9.ffffffff.0
Width: 990
GlyphClass: 2
Flags: W
AnchorPoint: "Anchor-1" 480 -220 basechar 0
AnchorPoint: "Anchor-0" 400 1200 basechar 0
LayerCount: 2
Fore
SplineSet
485 0 m 0,0,1
 480 0 480 0 460.5 1 c 128,-1,2
 441 2 441 2 412 6.5 c 128,-1,3
 383 11 383 11 346.5 20.5 c 128,-1,4
 310 30 310 30 273 48 c 0,5,6
 178 92 178 92 128.5 168 c 128,-1,7
 79 244 79 244 79 347 c 0,8,9
 79 527 79 527 242 724 c 0,10,11
 275 763 275 763 305.5 794 c 128,-1,12
 336 825 336 825 359 846 c 1,13,14
 329 873 329 873 311 888 c 128,-1,15
 293 903 293 903 293 904 c 2,16,-1
 419 1057 l 2,17,18
 420 1055 420 1055 440.5 1038 c 128,-1,19
 461 1021 461 1021 493 991 c 128,-1,20
 525 961 525 961 566 920.5 c 128,-1,21
 607 880 607 880 650 832 c 0,22,23
 772 693 772 693 832.5 571.5 c 128,-1,24
 893 450 893 450 893 347 c 256,25,26
 893 244 893 244 847.5 168 c 128,-1,27
 802 92 802 92 714 49 c 0,28,29
 682 33 682 33 649 23.5 c 128,-1,30
 616 14 616 14 586 8.5 c 128,-1,31
 556 3 556 3 529.5 1.5 c 128,-1,32
 503 0 503 0 485 0 c 0,0,1
497 704 m 0,33,34
 468 678 468 678 429.5 638 c 128,-1,35
 391 598 391 598 357 550 c 128,-1,36
 323 502 323 502 299.5 449.5 c 128,-1,37
 276 397 276 397 276 347 c 0,38,39
 276 332 276 332 278.5 316 c 128,-1,40
 281 300 281 300 289.5 284.5 c 128,-1,41
 298 269 298 269 314 254 c 128,-1,42
 330 239 330 239 357 227 c 0,43,44
 376 218 376 218 396 212.5 c 128,-1,45
 416 207 416 207 433 204 c 128,-1,46
 450 201 450 201 464 200 c 128,-1,47
 478 199 478 199 485 199 c 0,48,49
 494 199 494 199 510.5 199.5 c 128,-1,50
 527 200 527 200 546.5 202.5 c 128,-1,51
 566 205 566 205 586.5 210.5 c 128,-1,52
 607 216 607 216 626 225 c 0,53,54
 663 245 663 245 679.5 273.5 c 128,-1,55
 696 302 696 302 696 347 c 0,56,57
 696 412 696 412 646 503 c 128,-1,58
 596 594 596 594 501 700 c 0,59,60
 500 701 500 701 499.5 702 c 128,-1,61
 499 703 499 703 497 704 c 0,33,34
EndSplineSet
Substitution2: "'fina' Terminal Forms in Arabic lookup 7 subtable" uniFEEA
Substitution2: "'medi' Medial Forms in Arabic lookup 3 subtable" uniFEEC
Substitution2: "'init' Initial Forms in Arabic lookup 1 subtable" uniFEEB
PairPos2: "'kern' Horizontal Kerning in Arabic lookup 4 subtable" parenleft dx=-200 dy=0 dh=-200 dv=0 dx=0 dy=0 dh=0 dv=0
EndChar

StartChar: uniFEEB
Encoding: 65259 65259 43
Width: 1522
GlyphClass: 2
Flags: W
AnchorPoint: "Anchor-1" 700 -240 basechar 0
AnchorPoint: "Anchor-0" 500 1360 basechar 0
LayerCount: 2
Fore
SplineSet
-104 99 m 0,0,1
 -104 119 -104 119 -96 136.5 c 128,-1,2
 -88 154 -88 154 -74 167.5 c 128,-1,3
 -60 181 -60 181 -41.5 188.5 c 128,-1,4
 -23 196 -23 196 -2 196 c 2,5,-1
 7 196 l 2,6,7
 67 196 67 196 112.5 197 c 128,-1,8
 158 198 158 198 195 200 c 128,-1,9
 232 202 232 202 262.5 205 c 128,-1,10
 293 208 293 208 322 212 c 1,11,12
 247 293 247 293 209.5 371.5 c 128,-1,13
 172 450 172 450 172 523 c 0,14,15
 172 573 172 573 185.5 628.5 c 128,-1,16
 199 684 199 684 227.5 735.5 c 128,-1,17
 256 787 256 787 299 831.5 c 128,-1,18
 342 876 342 876 402 905 c 1,19,-1
 323 936 l 1,20,-1
 418 1116 l 1,21,-1
 766 973 l 2,22,23
 859 932 859 932 945.5 891 c 128,-1,24
 1032 850 1032 850 1105.5 809 c 128,-1,25
 1179 768 1179 768 1235 726 c 128,-1,26
 1291 684 1291 684 1322 642 c 0,27,28
 1414 515 1414 515 1414 382 c 0,29,30
 1414 284 1414 284 1362 198.5 c 128,-1,31
 1310 113 1310 113 1205 57 c 1,32,-1
 1206 58 l 1,33,34
 1178 41 1178 41 1140 29.5 c 128,-1,35
 1102 18 1102 18 1060.5 11 c 128,-1,36
 1019 4 1019 4 977 0.5 c 128,-1,37
 935 -3 935 -3 900 -3 c 0,38,39
 812 -3 812 -3 729.5 10 c 128,-1,40
 647 23 647 23 562 57 c 1,41,42
 509 41 509 41 442.5 30 c 128,-1,43
 376 19 376 19 303 12.5 c 128,-1,44
 230 6 230 6 154 3 c 128,-1,45
 78 0 78 0 7 0 c 2,46,-1
 -2 0 l 2,47,48
 -23 0 -23 0 -41.5 7.5 c 128,-1,49
 -60 15 -60 15 -74 28.5 c 128,-1,50
 -88 42 -88 42 -96 60 c 128,-1,51
 -104 78 -104 78 -104 99 c 0,0,1
956 571 m 0,52,53
 956 529 956 529 944 480 c 128,-1,54
 932 431 932 431 910.5 381.5 c 128,-1,55
 889 332 889 332 858 284 c 128,-1,56
 827 236 827 236 789 196 c 1,57,58
 821 191 821 191 842 190 c 128,-1,59
 863 189 863 189 881 189 c 2,60,-1
 929 189 l 2,61,62
 1005 189 1005 189 1061.5 205.5 c 128,-1,63
 1118 222 1118 222 1154.5 250 c 128,-1,64
 1191 278 1191 278 1209 315.5 c 128,-1,65
 1227 353 1227 353 1227 394 c 0,66,67
 1227 429 1227 429 1209 470 c 128,-1,68
 1191 511 1191 511 1155.5 552.5 c 128,-1,69
 1120 594 1120 594 1067 634 c 128,-1,70
 1014 674 1014 674 943 707 c 1,71,72
 954 669 954 669 955 635 c 128,-1,73
 956 601 956 601 956 571 c 0,52,53
751 579 m 0,74,75
 751 609 751 609 746.5 642.5 c 128,-1,76
 742 676 742 676 727.5 706.5 c 128,-1,77
 713 737 713 737 686.5 760.5 c 128,-1,78
 660 784 660 784 617 793 c 0,79,80
 562 804 562 804 516 782.5 c 128,-1,81
 470 761 470 761 436.5 722 c 128,-1,82
 403 683 403 683 384 634 c 128,-1,83
 365 585 365 585 365 540 c 0,84,85
 365 498 365 498 380 460 c 128,-1,86
 395 422 395 422 420.5 388.5 c 128,-1,87
 446 355 446 355 480 325.5 c 128,-1,88
 514 296 514 296 552 271 c 1,89,90
 603 294 603 294 640.5 329 c 128,-1,91
 678 364 678 364 702.5 405.5 c 128,-1,92
 727 447 727 447 739 492 c 128,-1,93
 751 537 751 537 751 579 c 0,74,75
EndSplineSet
EndChar

StartChar: uniFEEC
Encoding: 65260 65260 44
Width: 1035
GlyphClass: 2
Flags: W
AnchorPoint: "Anchor-1" 485 -800 basechar 0
AnchorPoint: "Anchor-0" 600 1200 basechar 0
LayerCount: 2
Fore
SplineSet
542 705 m 1,0,1
 514 702 514 702 486 675.5 c 128,-1,2
 458 649 458 649 433.5 607.5 c 128,-1,3
 409 566 409 566 389 514 c 128,-1,4
 369 462 369 462 356 408 c 128,-1,5
 343 354 343 354 337.5 301.5 c 128,-1,6
 332 249 332 249 338 208 c 1,7,8
 404 200 404 200 457 224.5 c 128,-1,9
 510 249 510 249 548 293.5 c 128,-1,10
 586 338 586 338 606.5 395 c 128,-1,11
 627 452 627 452 627.5 510 c 128,-1,12
 628 568 628 568 607.5 620 c 128,-1,13
 587 672 587 672 542 705 c 1,0,1
-99 98 m 0,14,15
 -99 139 -99 139 -71 167.5 c 128,-1,16
 -43 196 -43 196 -1 196 c 2,17,-1
 141 196 l 1,18,19
 138 254 138 254 147.5 329 c 128,-1,20
 157 404 157 404 179 483 c 128,-1,21
 201 562 201 562 234.5 637.5 c 128,-1,22
 268 713 268 713 313.5 773.5 c 128,-1,23
 359 834 359 834 416 872.5 c 128,-1,24
 473 911 473 911 541 914 c 0,25,26
 599 917 599 917 645.5 885 c 128,-1,27
 692 853 692 853 726 800.5 c 128,-1,28
 760 748 760 748 781 681.5 c 128,-1,29
 802 615 802 615 810 547.5 c 128,-1,30
 818 480 818 480 811.5 418.5 c 128,-1,31
 805 357 805 357 785 316 c 1,32,33
 762 250 762 250 721.5 199 c 128,-1,34
 681 148 681 148 628 111 c 128,-1,35
 575 74 575 74 512.5 50 c 128,-1,36
 450 26 450 26 383 15 c 1,37,38
 395 -14 395 -14 414.5 -56 c 128,-1,39
 434 -98 434 -98 459 -140 c 128,-1,40
 484 -182 484 -182 513.5 -218.5 c 128,-1,41
 543 -255 543 -255 575 -274 c 1,42,43
 570 -211 570 -211 586 -151.5 c 128,-1,44
 602 -92 602 -92 634 -40 c 128,-1,45
 666 12 666 12 711 55.5 c 128,-1,46
 756 99 756 99 809 130 c 128,-1,47
 862 161 862 161 919.5 178.5 c 128,-1,48
 977 196 977 196 1035 196 c 0,49,50
 1077 196 1077 196 1105.5 167.5 c 128,-1,51
 1134 139 1134 139 1134 98 c 0,52,53
 1134 56 1134 56 1105.5 28 c 128,-1,54
 1077 0 1077 0 1035 0 c 2,55,-1
 1027 0 l 2,56,57
 972 -2 972 -2 922.5 -28 c 128,-1,58
 873 -54 873 -54 834.5 -95 c 128,-1,59
 796 -136 796 -136 772 -188 c 128,-1,60
 748 -240 748 -240 744 -295.5 c 128,-1,61
 740 -351 740 -351 759 -405.5 c 128,-1,62
 778 -460 778 -460 825 -506 c 1,63,-1
 700 -658 l 1,64,65
 594 -594 594 -594 511 -518 c 128,-1,66
 428 -442 428 -442 365 -360 c 128,-1,67
 302 -278 302 -278 258 -193 c 128,-1,68
 214 -108 214 -108 187 -25 c 2,69,-1
 178 0 l 1,70,-1
 -1 0 l 2,71,72
 -43 0 -43 0 -71 28 c 128,-1,73
 -99 56 -99 56 -99 98 c 0,14,15
EndSplineSet
EndChar

StartChar: uniFEEA
Encoding: 65258 65258 45
Width: 1090
GlyphClass: 2
Flags: W
AnchorPoint: "Anchor-1" 640 -240 basechar 0
AnchorPoint: "Anchor-0" 600 1320 basechar 0
LayerCount: 2
Fore
SplineSet
642 702 m 1,0,1
 618 692 618 692 585 677.5 c 128,-1,2
 552 663 552 663 516.5 644.5 c 128,-1,3
 481 626 481 626 446.5 603.5 c 128,-1,4
 412 581 412 581 384.5 555.5 c 128,-1,5
 357 530 357 530 340 500.5 c 128,-1,6
 323 471 323 471 323 439 c 0,7,8
 323 406 323 406 343.5 385.5 c 128,-1,9
 364 365 364 365 396.5 353.5 c 128,-1,10
 429 342 429 342 470 338 c 128,-1,11
 511 334 511 334 552.5 334.5 c 128,-1,12
 594 335 594 335 631.5 339 c 128,-1,13
 669 343 669 343 695 348 c 1,14,15
 683 406 683 406 670.5 490 c 128,-1,16
 658 574 658 574 642 702 c 1,0,1
544 140 m 0,17,18
 286 140 286 140 185 265 c 0,19,20
 157 299 157 299 145.5 337.5 c 128,-1,21
 134 376 134 376 132.5 413 c 128,-1,22
 131 450 131 450 137 482 c 128,-1,23
 143 514 143 514 152 535 c 0,24,25
 179 591 179 591 216.5 638 c 128,-1,26
 254 685 254 685 296.5 722.5 c 128,-1,27
 339 760 339 760 384.5 789.5 c 128,-1,28
 430 819 430 819 472.5 841 c 128,-1,29
 515 863 515 863 553 879 c 128,-1,30
 591 895 591 895 619 905 c 1,31,32
 611 981 611 981 607.5 1016.5 c 128,-1,33
 604 1052 604 1052 604 1053 c 2,34,-1
 800 1094 l 1,35,-1
 800 1095 l 2,36,37
 801 1086 801 1086 804 1058 c 128,-1,38
 807 1030 807 1030 811 991.5 c 128,-1,39
 815 953 815 953 819.5 909.5 c 128,-1,40
 824 866 824 866 828 828 c 128,-1,41
 832 790 832 790 835 762 c 128,-1,42
 838 734 838 734 839 727 c 0,43,44
 854 598 854 598 867 516 c 128,-1,45
 880 434 880 434 890 385.5 c 128,-1,46
 900 337 900 337 906.5 316 c 128,-1,47
 913 295 913 295 916 289 c 0,48,49
 928 262 928 262 943.5 244 c 128,-1,50
 959 226 959 226 980 215.5 c 128,-1,51
 1001 205 1001 205 1028 200.5 c 128,-1,52
 1055 196 1055 196 1090 196 c 0,53,54
 1131 196 1131 196 1160 168 c 128,-1,55
 1189 140 1189 140 1189 98 c 0,56,57
 1189 78 1189 78 1181 60 c 128,-1,58
 1173 42 1173 42 1159.5 28.5 c 128,-1,59
 1146 15 1146 15 1128 7.5 c 128,-1,60
 1110 0 1110 0 1090 0 c 0,61,62
 1052 0 1052 0 999.5 6.5 c 128,-1,63
 947 13 947 13 895 37 c 0,64,65
 815 75 815 75 763 159 c 1,66,67
 701 149 701 149 647 144.5 c 128,-1,68
 593 140 593 140 544 140 c 0,17,18
EndSplineSet
PairPos2: "'kern' Horizontal Kerning in Arabic lookup 4 subtable" parenleft dx=-200 dy=0 dh=-200 dv=0 dx=0 dy=0 dh=0 dv=0
EndChar

StartChar: uni0648
Encoding: 1608 1608 46
AltUni2: 00feed.ffffffff.0
Width: 1078
GlyphClass: 2
Flags: W
AnchorPoint: "Anchor-1" 480 -780 basechar 0
AnchorPoint: "Anchor-0" 500 1160 basechar 0
LayerCount: 2
Fore
SplineSet
518 650 m 0,0,1
 489 650 489 650 463 627.5 c 128,-1,2
 437 605 437 605 416.5 570 c 128,-1,3
 396 535 396 535 382 491.5 c 128,-1,4
 368 448 368 448 362.5 405.5 c 128,-1,5
 357 363 357 363 362 326.5 c 128,-1,6
 367 290 367 290 384 269 c 0,7,8
 399 249 399 249 422 236.5 c 128,-1,9
 445 224 445 224 470 216.5 c 128,-1,10
 495 209 495 209 519.5 205.5 c 128,-1,11
 544 202 544 202 562 201 c 0,12,13
 625 197 625 197 677.5 198 c 128,-1,14
 730 199 730 199 769 202 c 1,15,16
 766 265 766 265 754 322.5 c 128,-1,17
 742 380 742 380 723.5 429 c 128,-1,18
 705 478 705 478 681 517.5 c 128,-1,19
 657 557 657 557 632 586 c 0,20,21
 622 596 622 596 609.5 607.5 c 128,-1,22
 597 619 597 619 582.5 628.5 c 128,-1,23
 568 638 568 638 551.5 644 c 128,-1,24
 535 650 535 650 518 650 c 0,0,1
77 -509 m 1,25,26
 231 -478 231 -478 353 -423 c 128,-1,27
 475 -368 475 -368 562 -299 c 128,-1,28
 649 -230 649 -230 699.5 -152.5 c 128,-1,29
 750 -75 750 -75 761 0 c 1,30,31
 719 -1 719 -1 661.5 -0.5 c 128,-1,32
 604 0 604 0 549 5 c 0,33,34
 332 19 332 19 228 147 c 0,35,36
 182 205 182 205 169.5 281 c 128,-1,37
 157 357 157 357 168.5 436.5 c 128,-1,38
 180 516 180 516 211 590.5 c 128,-1,39
 242 665 242 665 284 719 c 0,40,41
 334 782 334 782 394 814.5 c 128,-1,42
 454 847 454 847 518 847 c 0,43,44
 660 847 660 847 779 719 c 0,45,46
 830 663 830 663 868.5 589.5 c 128,-1,47
 907 516 907 516 931 432 c 128,-1,48
 955 348 955 348 963.5 257 c 128,-1,49
 972 166 972 166 963 75 c 0,50,51
 952 -35 952 -35 914 -130.5 c 128,-1,52
 876 -226 876 -226 817 -307 c 128,-1,53
 758 -388 758 -388 680.5 -454 c 128,-1,54
 603 -520 603 -520 513.5 -569.5 c 128,-1,55
 424 -619 424 -619 325 -652.5 c 128,-1,56
 226 -686 226 -686 123 -702 c 1,57,-1
 77 -509 l 1,25,26
EndSplineSet
Substitution2: "'fina' Terminal Forms in Arabic lookup 7 subtable" uniFEEE
PairPos2: "'kern' Horizontal Kerning in Arabic lookup 4 subtable" uniFB90 dx=-100 dy=0 dh=-100 dv=0 dx=0 dy=0 dh=0 dv=0
PairPos2: "'kern' Horizontal Kerning in Arabic lookup 4 subtable" uniFB94 dx=-100 dy=0 dh=-100 dv=0 dx=0 dy=0 dh=0 dv=0
PairPos2: "'kern' Horizontal Kerning in Arabic lookup 4 subtable" uni06AF dx=-100 dy=0 dh=-100 dv=0 dx=0 dy=0 dh=0 dv=0
PairPos2: "'kern' Horizontal Kerning in Arabic lookup 4 subtable" uni06A9 dx=-100 dy=0 dh=-100 dv=0 dx=0 dy=0 dh=0 dv=0
PairPos2: "'kern' Horizontal Kerning in Arabic lookup 4 subtable" uniFEDB dx=-100 dy=0 dh=-100 dv=0 dx=0 dy=0 dh=0 dv=0
EndChar

StartChar: uniFEEE
Encoding: 65262 65262 47
Width: 1043
GlyphClass: 2
Flags: W
AnchorPoint: "Anchor-1" 500 -780 basechar 0
AnchorPoint: "Anchor-0" 580 1140 basechar 0
LayerCount: 2
Fore
SplineSet
78 -509 m 1,0,1
 232 -478 232 -478 354 -423 c 128,-1,2
 476 -368 476 -368 563 -299 c 128,-1,3
 650 -230 650 -230 700.5 -152.5 c 128,-1,4
 751 -75 751 -75 762 0 c 1,5,6
 720 -1 720 -1 662.5 -0.5 c 128,-1,7
 605 0 605 0 550 5 c 0,8,9
 333 19 333 19 229 147 c 0,10,11
 183 205 183 205 170.5 281 c 128,-1,12
 158 357 158 357 169.5 436.5 c 128,-1,13
 181 516 181 516 212 590.5 c 128,-1,14
 243 665 243 665 285 719 c 0,15,16
 335 782 335 782 395 814.5 c 128,-1,17
 455 847 455 847 519 847 c 0,18,19
 661 847 661 847 780 719 c 0,20,21
 822 672 822 672 856 613 c 128,-1,22
 890 554 890 554 914 486.5 c 128,-1,23
 938 419 938 419 952 345.5 c 128,-1,24
 966 272 966 272 968 196 c 1,25,-1
 1043 196 l 2,26,27
 1064 196 1064 196 1082 188.5 c 128,-1,28
 1100 181 1100 181 1113.5 167.5 c 128,-1,29
 1127 154 1127 154 1135 136 c 128,-1,30
 1143 118 1143 118 1143 97 c 0,31,32
 1143 77 1143 77 1135 59.5 c 128,-1,33
 1127 42 1127 42 1113.5 28.5 c 128,-1,34
 1100 15 1100 15 1082 7.5 c 128,-1,35
 1064 0 1064 0 1043 0 c 2,36,-1
 953 0 l 1,37,38
 923 -148 923 -148 844.5 -267.5 c 128,-1,39
 766 -387 766 -387 654.5 -476 c 128,-1,40
 543 -565 543 -565 406 -622 c 128,-1,41
 269 -679 269 -679 124 -702 c 1,42,-1
 78 -509 l 1,0,1
519 650 m 0,43,44
 490 650 490 650 464 627.5 c 128,-1,45
 438 605 438 605 417.5 570 c 128,-1,46
 397 535 397 535 383 491.5 c 128,-1,47
 369 448 369 448 363.5 405.5 c 128,-1,48
 358 363 358 363 363 326.5 c 128,-1,49
 368 290 368 290 385 269 c 0,50,51
 400 249 400 249 423 236.5 c 128,-1,52
 446 224 446 224 471 216.5 c 128,-1,53
 496 209 496 209 520.5 205.5 c 128,-1,54
 545 202 545 202 563 201 c 0,55,56
 626 197 626 197 678.5 198 c 128,-1,57
 731 199 731 199 770 202 c 1,58,59
 767 265 767 265 755 322.5 c 128,-1,60
 743 380 743 380 724.5 429 c 128,-1,61
 706 478 706 478 682 517.5 c 128,-1,62
 658 557 658 557 633 586 c 0,63,64
 623 596 623 596 610.5 607.5 c 128,-1,65
 598 619 598 619 583.5 628.5 c 128,-1,66
 569 638 569 638 552.5 644 c 128,-1,67
 536 650 536 650 519 650 c 0,43,44
EndSplineSet
PairPos2: "'kern' Horizontal Kerning in Arabic lookup 4 subtable" uniFB90 dx=-100 dy=0 dh=-100 dv=0 dx=0 dy=0 dh=0 dv=0
PairPos2: "'kern' Horizontal Kerning in Arabic lookup 4 subtable" uniFB94 dx=-100 dy=0 dh=-100 dv=0 dx=0 dy=0 dh=0 dv=0
PairPos2: "'kern' Horizontal Kerning in Arabic lookup 4 subtable" uni06AF dx=-100 dy=0 dh=-100 dv=0 dx=0 dy=0 dh=0 dv=0
PairPos2: "'kern' Horizontal Kerning in Arabic lookup 4 subtable" uni06A9 dx=-100 dy=0 dh=-100 dv=0 dx=0 dy=0 dh=0 dv=0
PairPos2: "'kern' Horizontal Kerning in Arabic lookup 4 subtable" uniFEDB dx=-100 dy=0 dh=-100 dv=0 dx=0 dy=0 dh=0 dv=0
EndChar

StartChar: uni0649
Encoding: 1609 1609 48
AltUni2: 00feef.ffffffff.0
Width: 1793
GlyphClass: 2
Flags: W
AnchorPoint: "Anchor-1" 700 -820 basechar 0
AnchorPoint: "Anchor-0" 480 780 basechar 0
LayerCount: 2
Fore
SplineSet
1391 832 m 0,0,1
 1460 846 1460 846 1523 842 c 128,-1,2
 1586 838 1586 838 1634 827 c 128,-1,3
 1682 816 1682 816 1711.5 804 c 128,-1,4
 1741 792 1741 792 1744 791 c 2,5,-1
 1657 608 l 1,6,7
 1657 608 1657 608 1638 615.5 c 128,-1,8
 1619 623 1619 623 1588.5 629.5 c 128,-1,9
 1558 636 1558 636 1517.5 638.5 c 128,-1,10
 1477 641 1477 641 1433 632 c 1,11,12
 1391 628 1391 628 1345.5 606 c 128,-1,13
 1300 584 1300 584 1258 549 c 128,-1,14
 1216 514 1216 514 1180 469.5 c 128,-1,15
 1144 425 1144 425 1120.5 377 c 128,-1,16
 1097 329 1097 329 1089 280 c 128,-1,17
 1081 231 1081 231 1096 188 c 0,18,19
 1109 151 1109 151 1141.5 129 c 128,-1,20
 1174 107 1174 107 1218 92 c 128,-1,21
 1262 77 1262 77 1313.5 66 c 128,-1,22
 1365 55 1365 55 1415 40.5 c 128,-1,23
 1465 26 1465 26 1510 5 c 128,-1,24
 1555 -16 1555 -16 1586.5 -51.5 c 128,-1,25
 1618 -87 1618 -87 1631.5 -139.5 c 128,-1,26
 1645 -192 1645 -192 1632 -269 c 0,27,28
 1614 -367 1614 -367 1544 -449 c 128,-1,29
 1474 -531 1474 -531 1358 -589 c 0,30,31
 1248 -645 1248 -645 1108.5 -674 c 128,-1,32
 969 -703 969 -703 805 -703 c 0,33,34
 616 -703 616 -703 470.5 -648.5 c 128,-1,35
 325 -594 325 -594 232 -490 c 0,36,37
 150 -396 150 -396 116.5 -272 c 128,-1,38
 83 -148 83 -148 101 -1 c 0,39,40
 109 64 109 64 123 133.5 c 128,-1,41
 137 203 137 203 153.5 269 c 128,-1,42
 170 335 170 335 187.5 394.5 c 128,-1,43
 205 454 205 454 219.5 500 c 128,-1,44
 234 546 234 546 243.5 574 c 128,-1,45
 253 602 253 602 255 606 c 1,46,-1
 446 539 l 1,47,48
 401 399 401 399 362 260 c 128,-1,49
 323 121 323 121 304 -25 c 0,50,51
 299 -61 299 -61 298.5 -103 c 128,-1,52
 298 -145 298 -145 306.5 -188.5 c 128,-1,53
 315 -232 315 -232 333.5 -274.5 c 128,-1,54
 352 -317 352 -317 385 -354 c 0,55,56
 448 -426 448 -426 554.5 -462 c 128,-1,57
 661 -498 661 -498 805 -498 c 0,58,59
 947 -498 947 -498 1061 -475.5 c 128,-1,60
 1175 -453 1175 -453 1255.5 -415.5 c 128,-1,61
 1336 -378 1336 -378 1381 -330.5 c 128,-1,62
 1426 -283 1426 -283 1431 -232 c 0,63,64
 1433 -208 1433 -208 1414 -192 c 128,-1,65
 1395 -176 1395 -176 1362 -164 c 128,-1,66
 1329 -152 1329 -152 1285.5 -142 c 128,-1,67
 1242 -132 1242 -132 1194.5 -118.5 c 128,-1,68
 1147 -105 1147 -105 1100 -86.5 c 128,-1,69
 1053 -68 1053 -68 1013 -40.5 c 128,-1,70
 973 -13 973 -13 943.5 26.5 c 128,-1,71
 914 66 914 66 903 122 c 0,72,73
 887 201 887 201 895.5 279.5 c 128,-1,74
 904 358 904 358 932 431.5 c 128,-1,75
 960 505 960 505 1006 570.5 c 128,-1,76
 1052 636 1052 636 1111.5 688.5 c 128,-1,77
 1171 741 1171 741 1242 778 c 128,-1,78
 1313 815 1313 815 1391 832 c 0,0,1
EndSplineSet
Substitution2: "'fina' Terminal Forms in Arabic lookup 7 subtable" uniFEF0
Substitution2: "'medi' Medial Forms in Arabic lookup 3 subtable" uniFBE9
Substitution2: "'init' Initial Forms in Arabic lookup 1 subtable" uniFBE8
EndChar

StartChar: uniFEF0
Encoding: 65264 65264 49
Width: 1715
GlyphClass: 2
Flags: W
AnchorPoint: "Anchor-1" 700 -820 basechar 0
AnchorPoint: "Anchor-0" 500 860 basechar 0
LayerCount: 2
Fore
SplineSet
830 -652 m 0,0,1
 743 -652 743 -652 650 -643.5 c 128,-1,2
 557 -635 557 -635 471 -609 c 128,-1,3
 385 -583 385 -583 313 -535.5 c 128,-1,4
 241 -488 241 -488 195 -410 c 1,5,6
 87 -252 87 -252 99 0 c 0,7,8
 106 137 106 137 148 299 c 128,-1,9
 190 461 190 461 269 652 c 1,10,-1
 452 578 l 1,11,12
 324 264 324 264 300.5 43 c 128,-1,13
 277 -178 277 -178 358 -301 c 0,14,15
 399 -360 399 -360 459.5 -391.5 c 128,-1,16
 520 -423 520 -423 585.5 -437 c 128,-1,17
 651 -451 651 -451 715.5 -453 c 128,-1,18
 780 -455 780 -455 830 -455 c 0,19,20
 859 -455 859 -455 912 -450.5 c 128,-1,21
 965 -446 965 -446 1027 -435 c 128,-1,22
 1089 -424 1089 -424 1153.5 -405.5 c 128,-1,23
 1218 -387 1218 -387 1270.5 -360 c 128,-1,24
 1323 -333 1323 -333 1356 -296 c 128,-1,25
 1389 -259 1389 -259 1389 -210 c 0,26,27
 1389 -198 1389 -198 1378 -181.5 c 128,-1,28
 1367 -165 1367 -165 1342.5 -146 c 128,-1,29
 1318 -127 1318 -127 1279 -106 c 128,-1,30
 1240 -85 1240 -85 1183 -64 c 0,31,32
 1148 -52 1148 -52 1113.5 -41.5 c 128,-1,33
 1079 -31 1079 -31 1049 -23.5 c 128,-1,34
 1019 -16 1019 -16 994 -10 c 128,-1,35
 969 -4 969 -4 953 -1 c 2,36,-1
 931 3 l 1,37,-1
 946 197 l 1,38,-1
 1716 196 l 2,39,40
 1757 196 1757 196 1786 168 c 128,-1,41
 1815 140 1815 140 1815 98 c 256,42,43
 1815 56 1815 56 1786 28 c 128,-1,44
 1757 0 1757 0 1716 0 c 2,45,-1
 1477 0 l 1,46,47
 1511 -28 1511 -28 1532.5 -56.5 c 128,-1,48
 1554 -85 1554 -85 1566 -112 c 128,-1,49
 1578 -139 1578 -139 1582 -164 c 128,-1,50
 1586 -189 1586 -189 1586 -210 c 0,51,52
 1585 -295 1585 -295 1547 -361 c 128,-1,53
 1509 -427 1509 -427 1447 -476 c 128,-1,54
 1385 -525 1385 -525 1306 -558.5 c 128,-1,55
 1227 -592 1227 -592 1143.5 -613 c 128,-1,56
 1060 -634 1060 -634 978 -643 c 128,-1,57
 896 -652 896 -652 830 -652 c 0,0,1
EndSplineSet
EndChar

StartChar: uniFEFB
Encoding: 65275 65275 50
Width: 1264
GlyphClass: 3
Flags: W
AnchorPoint: "Anchor-3" 1020 -160 baselig 0
AnchorPoint: "Anchor-2" 920 1620 baselig 0
AnchorPoint: "Anchor-3" 280 -220 baselig 1
AnchorPoint: "Anchor-2" 40 1380 baselig 1
LayerCount: 2
Fore
SplineSet
1178 591 m 0,0,1
 1182 533 1182 533 1171.5 466 c 128,-1,2
 1161 399 1161 399 1138.5 334 c 128,-1,3
 1116 269 1116 269 1082.5 211.5 c 128,-1,4
 1049 154 1049 154 1006 115 c 0,5,6
 940 55 940 55 851 12 c 128,-1,7
 762 -31 762 -31 656 -56 c 0,8,9
 565 -75 565 -75 471.5 -78.5 c 128,-1,10
 378 -82 378 -82 286 -67 c 1,11,-1
 320 128 l 1,12,13
 383 116 383 116 459 118.5 c 128,-1,14
 535 121 535 121 612 138 c 1,15,16
 596 227 596 227 564.5 321.5 c 128,-1,17
 533 416 533 416 492.5 510 c 128,-1,18
 452 604 452 604 406 694.5 c 128,-1,19
 360 785 360 785 314 866 c 128,-1,20
 268 947 268 947 226 1016 c 128,-1,21
 184 1085 184 1085 151 1135 c 128,-1,22
 118 1185 118 1185 98 1214 c 128,-1,23
 78 1243 78 1243 77 1244 c 2,24,-1
 240 1358 l 2,25,26
 241 1355 241 1355 262.5 1324 c 128,-1,27
 284 1293 284 1293 319 1239.5 c 128,-1,28
 354 1186 354 1186 399 1112.5 c 128,-1,29
 444 1039 444 1039 493 951 c 0,30,31
 614 737 614 737 690 551.5 c 128,-1,32
 766 366 766 366 800 208 c 1,33,34
 841 234 841 234 876.5 277.5 c 128,-1,35
 912 321 912 321 937 372 c 128,-1,36
 962 423 962 423 974 476.5 c 128,-1,37
 986 530 986 530 981 577 c 2,38,-1
 878 1507 l 1,39,-1
 1074 1526 l 2,40,41
 1074 1525 1074 1525 1080 1486 c 128,-1,42
 1086 1447 1086 1447 1095 1380 c 128,-1,43
 1104 1313 1104 1313 1115.5 1223.5 c 128,-1,44
 1127 1134 1127 1134 1138.5 1030.5 c 128,-1,45
 1150 927 1150 927 1160 814.5 c 128,-1,46
 1170 702 1170 702 1178 591 c 0,0,1
EndSplineSet
Ligature2: "'rlig' Required Ligatures in Arabic lookup 4 subtable" uniFEDF uniFE8E
PairPos2: "'kern' Horizontal Kerning in Arabic lookup 4 subtable" uniFB90 dx=150 dy=0 dh=150 dv=0 dx=0 dy=0 dh=0 dv=0
PairPos2: "'kern' Horizontal Kerning in Arabic lookup 4 subtable" uniFB94 dx=150 dy=0 dh=150 dv=0 dx=0 dy=0 dh=0 dv=0
PairPos2: "'kern' Horizontal Kerning in Arabic lookup 4 subtable" uni06AF dx=150 dy=0 dh=150 dv=0 dx=0 dy=0 dh=0 dv=0
PairPos2: "'kern' Horizontal Kerning in Arabic lookup 4 subtable" uni06A9 dx=150 dy=0 dh=150 dv=0 dx=0 dy=0 dh=0 dv=0
PairPos2: "'kern' Horizontal Kerning in Arabic lookup 4 subtable" uniFEDB dx=150 dy=0 dh=150 dv=0 dx=0 dy=0 dh=0 dv=0
EndChar

StartChar: uniFEFC
Encoding: 65276 65276 51
Width: 1399
GlyphClass: 3
Flags: W
AnchorPoint: "Anchor-3" 1100 -160 baselig 0
AnchorPoint: "Anchor-2" 1080 1660 baselig 0
AnchorPoint: "Anchor-3" 380 -240 baselig 1
AnchorPoint: "Anchor-2" 160 1400 baselig 1
LayerCount: 2
Fore
SplineSet
1265 232 m 0,0,1
 1301 212 1301 212 1331 205.5 c 128,-1,2
 1361 199 1361 199 1369 197 c 2,3,-1
 1399 196 l 1,4,-1
 1408 196 l 2,5,6
 1428 196 1428 196 1446 188.5 c 128,-1,7
 1464 181 1464 181 1477.5 167.5 c 128,-1,8
 1491 154 1491 154 1499 136 c 128,-1,9
 1507 118 1507 118 1507 98 c 0,10,11
 1507 56 1507 56 1478 28 c 128,-1,12
 1449 0 1449 0 1408 0 c 2,13,-1
 1399 0 l 1,14,-1
 1359 0 l 2,15,16
 1348 0 1348 0 1314.5 3.5 c 128,-1,17
 1281 7 1281 7 1238 23 c 128,-1,18
 1195 39 1195 39 1148.5 72.5 c 128,-1,19
 1102 106 1102 106 1065 166 c 1,20,21
 990 82 990 82 893 31 c 128,-1,22
 796 -20 796 -20 669 -51 c 0,23,24
 578 -70 578 -70 484.5 -73.5 c 128,-1,25
 391 -77 391 -77 299 -62 c 1,26,-1
 333 133 l 1,27,28
 396 121 396 121 472 123.5 c 128,-1,29
 548 126 548 126 625 143 c 1,30,31
 609 232 609 232 577.5 326.5 c 128,-1,32
 546 421 546 421 505.5 515 c 128,-1,33
 465 609 465 609 419 699.5 c 128,-1,34
 373 790 373 790 327.5 871 c 128,-1,35
 282 952 282 952 239.5 1021 c 128,-1,36
 197 1090 197 1090 164.5 1140 c 128,-1,37
 132 1190 132 1190 112.5 1219 c 128,-1,38
 93 1248 93 1248 92 1249 c 2,39,-1
 253 1363 l 2,40,41
 254 1360 254 1360 275.5 1329 c 128,-1,42
 297 1298 297 1298 332 1244.5 c 128,-1,43
 367 1191 367 1191 412 1117.5 c 128,-1,44
 457 1044 457 1044 506 956 c 0,45,46
 627 742 627 742 703 556.5 c 128,-1,47
 779 371 779 371 813 213 c 1,48,49
 852 235 852 235 884.5 265 c 128,-1,50
 917 295 917 295 939.5 331 c 128,-1,51
 962 367 962 367 972.5 408.5 c 128,-1,52
 983 450 983 450 978 495 c 0,53,54
 971 604 971 604 961.5 721 c 128,-1,55
 952 838 952 838 942.5 950.5 c 128,-1,56
 933 1063 933 1063 923.5 1164 c 128,-1,57
 914 1265 914 1265 907 1341.5 c 128,-1,58
 900 1418 900 1418 895.5 1463.5 c 128,-1,59
 891 1509 891 1509 891 1510 c 2,60,-1
 1087 1531 l 2,61,62
 1087 1530 1087 1530 1090.5 1499 c 128,-1,63
 1094 1468 1094 1468 1099 1415 c 128,-1,64
 1104 1362 1104 1362 1111 1290 c 128,-1,65
 1118 1218 1118 1218 1125.5 1134 c 128,-1,66
 1133 1050 1133 1050 1141 957.5 c 128,-1,67
 1149 865 1149 865 1156.5 770.5 c 128,-1,68
 1164 676 1164 676 1170.5 583.5 c 128,-1,69
 1177 491 1177 491 1182 407 c 0,70,71
 1184 377 1184 377 1188.5 351 c 128,-1,72
 1193 325 1193 325 1202 303 c 128,-1,73
 1211 281 1211 281 1226 263.5 c 128,-1,74
 1241 246 1241 246 1265 232 c 0,0,1
EndSplineSet
Ligature2: "'rlig' Required Ligatures in Arabic lookup 4 subtable" uniFEE0 uniFE8E
EndChar

StartChar: uni0640
Encoding: 1600 1600 52
Width: 907
GlyphClass: 2
Flags: W
AnchorPoint: "Anchor-1" 470 -220 basechar 0
AnchorPoint: "Anchor-0" 410 780 basechar 0
LayerCount: 2
Fore
SplineSet
-111 98 m 0,0,1
 -111 118 -111 118 -102.5 136 c 128,-1,2
 -94 154 -94 154 -80 167.5 c 128,-1,3
 -66 181 -66 181 -47.5 188.5 c 128,-1,4
 -29 196 -29 196 -8 196 c 2,5,-1
 0 196 l 1,6,-1
 908 196 l 1,7,-1
 914 196 l 2,8,9
 934 196 934 196 952 188.5 c 128,-1,10
 970 181 970 181 983.5 167.5 c 128,-1,11
 997 154 997 154 1005 136 c 128,-1,12
 1013 118 1013 118 1013 98 c 0,13,14
 1013 56 1013 56 984 28 c 128,-1,15
 955 0 955 0 914 0 c 2,16,-1
 908 0 l 1,17,-1
 -9 0 l 2,18,19
 -29 0 -29 0 -47.5 7.5 c 128,-1,20
 -66 15 -66 15 -80 28.5 c 128,-1,21
 -94 42 -94 42 -102.5 59.5 c 128,-1,22
 -111 77 -111 77 -111 98 c 0,0,1
EndSplineSet
EndChar

StartChar: uni066E
Encoding: 1646 1646 53
Width: 2013
GlyphClass: 2
Flags: W
AnchorPoint: "Anchor-1" 1060 -240 basechar 0
AnchorPoint: "Anchor-0" 940 1000 basechar 0
LayerCount: 2
Fore
SplineSet
994 0 m 0,0,1
 635 3 635 3 419 83 c 0,2,3
 213 163 213 163 139 312 c 0,4,5
 97 393 97 393 97 488 c 128,-1,6
 97 583 97 583 136 686 c 0,7,8
 150 722 150 722 165 752 c 128,-1,9
 180 782 180 782 192.5 804 c 128,-1,10
 205 826 205 826 214 839.5 c 128,-1,11
 223 853 223 853 225 856 c 2,12,-1
 384 738 l 1,13,14
 378 730 378 730 372 721 c 128,-1,15
 366 712 366 712 361 702 c 0,16,17
 351 685 351 685 340 662.5 c 128,-1,18
 329 640 329 640 319 612 c 0,19,20
 273 485 273 485 315 402 c 0,21,22
 364 304 364 304 539 251.5 c 128,-1,23
 714 199 714 199 994 198 c 0,24,25
 1074 198 1074 198 1169 204.5 c 128,-1,26
 1264 211 1264 211 1362.5 228 c 128,-1,27
 1461 245 1461 245 1558.5 274.5 c 128,-1,28
 1656 304 1656 304 1740 351 c 1,29,30
 1736 396 1736 396 1721 445.5 c 128,-1,31
 1706 495 1706 495 1685 543 c 128,-1,32
 1664 591 1664 591 1641 634.5 c 128,-1,33
 1618 678 1618 678 1598 711.5 c 128,-1,34
 1578 745 1578 745 1565 765.5 c 128,-1,35
 1552 786 1552 786 1551 787 c 2,36,-1
 1717 895 l 2,37,38
 1718 893 1718 893 1730 875 c 128,-1,39
 1742 857 1742 857 1759 827 c 128,-1,40
 1776 797 1776 797 1797.5 757 c 128,-1,41
 1819 717 1819 717 1840 670.5 c 128,-1,42
 1861 624 1861 624 1879 573 c 128,-1,43
 1897 522 1897 522 1909 471 c 256,44,45
 1921 420 1921 420 1924.5 380 c 128,-1,46
 1928 340 1928 340 1918.5 306.5 c 128,-1,47
 1909 273 1909 273 1883.5 243.5 c 128,-1,48
 1858 214 1858 214 1811 184 c 0,49,50
 1766 156 1766 156 1706 131.5 c 128,-1,51
 1646 107 1646 107 1576.5 86 c 128,-1,52
 1507 65 1507 65 1432 49 c 128,-1,53
 1357 33 1357 33 1281 21.5 c 128,-1,54
 1205 10 1205 10 1132 4.5 c 128,-1,55
 1059 -1 1059 -1 994 0 c 0,0,1
EndSplineSet
Substitution2: "'fina' Terminal Forms in Arabic lookup 7 subtable" uni066E.fina
Substitution2: "'medi' Medial Forms in Arabic lookup 3 subtable" uni066E.medi
Substitution2: "'init' Initial Forms in Arabic lookup 1 subtable" uni066E.init
EndChar

StartChar: uni066E.fina
Encoding: 65539 -1 54
Width: 2316
GlyphClass: 2
Flags: W
AnchorPoint: "Anchor-1" 960 -160 basechar 0
AnchorPoint: "Anchor-0" 940 1000 basechar 0
LayerCount: 2
Fore
SplineSet
1923 164 m 0,0,1
 1884 210 1884 210 1861 273 c 1,2,3
 1597 -3 1597 -3 1028 -3 c 0,4,5
 724 -1 724 -1 524.5 69.5 c 128,-1,6
 325 140 325 140 235 292 c 0,7,8
 206 341 206 341 190.5 393 c 128,-1,9
 175 445 175 445 170.5 496.5 c 128,-1,10
 166 548 166 548 170.5 598 c 128,-1,11
 175 648 175 648 187 693 c 0,12,13
 199 740 199 740 211.5 778 c 128,-1,14
 224 816 224 816 235 843.5 c 128,-1,15
 246 871 246 871 254 887 c 128,-1,16
 262 903 262 903 264 906 c 2,17,-1
 437 811 l 2,18,19
 437 810 437 810 428 791 c 128,-1,20
 419 772 419 772 408 741 c 128,-1,21
 397 710 397 710 386.5 669 c 128,-1,22
 376 628 376 628 373.5 583 c 128,-1,23
 371 538 371 538 379 491 c 128,-1,24
 387 444 387 444 412 402 c 0,25,26
 472 300 472 300 627.5 248.5 c 128,-1,27
 783 197 783 197 1028 196 c 0,28,29
 1249 196 1249 196 1404 234.5 c 128,-1,30
 1559 273 1559 273 1662 357 c 0,31,32
 1708 393 1708 393 1741.5 436 c 128,-1,33
 1775 479 1775 479 1798.5 525 c 128,-1,34
 1822 571 1822 571 1838 618 c 128,-1,35
 1854 665 1854 665 1867 710 c 1,36,-1
 2057 658 l 1,37,38
 2052 638 2052 638 2046 613.5 c 128,-1,39
 2040 589 2040 589 2034 560 c 0,40,41
 2022 501 2022 501 2023 460 c 0,42,43
 2025 417 2025 417 2036 370 c 128,-1,44
 2047 323 2047 323 2078 286 c 0,45,46
 2149 197 2149 197 2316 197 c 0,47,48
 2358 197 2358 197 2386.5 168.5 c 128,-1,49
 2415 140 2415 140 2415 98 c 256,50,51
 2415 56 2415 56 2386.5 28 c 128,-1,52
 2358 0 2358 0 2316 0 c 2,53,-1
 2308 0 l 2,54,55
 2048 3 2048 3 1923 164 c 0,0,1
EndSplineSet
EndChar

StartChar: uni066F.init
Encoding: 65540 -1 55
Width: 932
GlyphClass: 2
Flags: W
AnchorPoint: "Anchor-1" 460 -160 basechar 0
AnchorPoint: "Anchor-0" 430 1300 basechar 0
LayerCount: 2
Fore
SplineSet
428 927 m 0,0,1
 414 927 414 927 395 913.5 c 128,-1,2
 376 900 376 900 357.5 873 c 128,-1,3
 339 846 339 846 323 807 c 128,-1,4
 307 768 307 768 299 717 c 0,5,6
 285 642 285 642 316 605 c 0,7,8
 336 581 336 581 374.5 566 c 128,-1,9
 413 551 413 551 467 548 c 0,10,11
 518 546 518 546 562.5 546 c 128,-1,12
 607 546 607 546 640 548 c 1,13,14
 633 645 633 645 602.5 731.5 c 128,-1,15
 572 818 572 818 521 874 c 0,16,17
 505 892 505 892 480.5 909.5 c 128,-1,18
 456 927 456 927 428 927 c 0,0,1
-101 98 m 0,19,20
 -101 140 -101 140 -72 168 c 128,-1,21
 -43 196 -43 196 -1 196 c 0,22,23
 110 196 110 196 203.5 206.5 c 128,-1,24
 297 217 297 217 370.5 233.5 c 128,-1,25
 444 250 444 250 495 270.5 c 128,-1,26
 546 291 546 291 570 310 c 0,27,28
 583 321 583 321 591 330 c 128,-1,29
 599 339 599 339 607 348 c 1,30,-1
 506 348 l 2,31,32
 452 348 452 348 401 356.5 c 128,-1,33
 350 365 350 365 305 382 c 128,-1,34
 260 399 260 399 223 424.5 c 128,-1,35
 186 450 186 450 160 483 c 0,36,37
 146 501 146 501 132 526.5 c 128,-1,38
 118 552 118 552 109 585.5 c 128,-1,39
 100 619 100 619 98 660.5 c 128,-1,40
 96 702 96 702 104 752 c 0,41,42
 118 829 118 829 145 892.5 c 128,-1,43
 172 956 172 956 211 1006 c 0,44,45
 256 1065 256 1065 312 1095 c 128,-1,46
 368 1125 368 1125 428 1125 c 0,47,48
 560 1125 560 1125 668 1008 c 0,49,50
 714 957 714 957 749.5 890 c 128,-1,51
 785 823 785 823 807 746.5 c 128,-1,52
 829 670 829 670 837 588 c 128,-1,53
 845 506 845 506 836 426 c 1,54,-1
 835 426 l 1,55,56
 829 386 829 386 818 345 c 0,57,58
 815 333 815 333 809 312.5 c 128,-1,59
 803 292 803 292 789 266.5 c 128,-1,60
 775 241 775 241 751.5 212.5 c 128,-1,61
 728 184 728 184 692 156 c 0,62,63
 644 118 644 118 570.5 89 c 128,-1,64
 497 60 497 60 408 40.5 c 128,-1,65
 319 21 319 21 218 11 c 128,-1,66
 117 1 117 1 14 0 c 2,67,-1
 -3 0 l 2,68,69
 -44 0 -44 0 -72.5 28.5 c 128,-1,70
 -101 57 -101 57 -101 98 c 0,19,20
EndSplineSet
EndChar

StartChar: uni066F.medi
Encoding: 65541 -1 56
Width: 1001
GlyphClass: 2
Flags: W
AnchorPoint: "Anchor-1" 460 -160 basechar 0
AnchorPoint: "Anchor-0" 430 1080 basechar 0
LayerCount: 2
Fore
SplineSet
481 741 m 0,0,1
 454 741 454 741 422.5 721.5 c 128,-1,2
 391 702 391 702 364 666.5 c 128,-1,3
 337 631 337 631 319.5 581 c 128,-1,4
 302 531 302 531 302 469 c 0,5,6
 302 422 302 422 346.5 376.5 c 128,-1,7
 391 331 391 331 474 293 c 2,8,-1
 490 286 l 1,9,10
 549 312 549 312 580 356.5 c 128,-1,11
 611 401 611 401 621 451.5 c 128,-1,12
 631 502 631 502 623 553.5 c 128,-1,13
 615 605 615 605 594.5 646.5 c 128,-1,14
 574 688 574 688 544 714.5 c 128,-1,15
 514 741 514 741 481 741 c 0,0,1
-152 98 m 0,16,17
 -152 119 -152 119 -144.5 137 c 128,-1,18
 -137 155 -137 155 -123.5 168 c 128,-1,19
 -110 181 -110 181 -92.5 188.5 c 128,-1,20
 -75 196 -75 196 -54 196 c 0,21,22
 -19 196 -19 196 21.5 197 c 128,-1,23
 62 198 62 198 101 200 c 128,-1,24
 140 202 140 202 175.5 205 c 128,-1,25
 211 208 211 208 236 211 c 1,26,27
 106 325 106 325 106 469 c 0,28,29
 106 562 106 562 134.5 646 c 128,-1,30
 163 730 163 730 217 798 c 256,31,32
 271 866 271 866 340.5 903.5 c 128,-1,33
 410 941 410 941 483 938 c 0,34,35
 572 934 572 934 639 896 c 128,-1,36
 706 858 706 858 750.5 798 c 128,-1,37
 795 738 795 738 816 662.5 c 128,-1,38
 837 587 837 587 833.5 508.5 c 128,-1,39
 830 430 830 430 801.5 354.5 c 128,-1,40
 773 279 773 279 719 220 c 1,41,42
 749 214 749 214 785 209.5 c 128,-1,43
 821 205 821 205 859 202 c 128,-1,44
 897 199 897 199 935 197.5 c 128,-1,45
 973 196 973 196 1006 196 c 0,46,47
 1048 196 1048 196 1076.5 168 c 128,-1,48
 1105 140 1105 140 1105 98 c 0,49,50
 1105 77 1105 77 1097.5 59.5 c 128,-1,51
 1090 42 1090 42 1076.5 28.5 c 128,-1,52
 1063 15 1063 15 1045 7.5 c 128,-1,53
 1027 0 1027 0 1006 0 c 2,54,-1
 997 0 l 2,55,56
 966 0 966 0 930 1 c 128,-1,57
 894 2 894 2 857 4.5 c 128,-1,58
 820 7 820 7 785 10 c 128,-1,59
 750 13 750 13 721 18 c 0,60,61
 661 28 661 28 605.5 41 c 128,-1,62
 550 54 550 54 497 71 c 1,63,64
 450 53 450 53 388 40 c 128,-1,65
 326 27 326 27 255 18 c 128,-1,66
 184 9 184 9 107 4.5 c 128,-1,67
 30 0 30 0 -46 0 c 2,68,-1
 -54 0 l 2,69,70
 -96 0 -96 0 -124 28 c 128,-1,71
 -152 56 -152 56 -152 98 c 0,16,17
EndSplineSet
EndChar

StartChar: feh_dotless.isol
Encoding: 65542 -1 57
Width: 1982
GlyphClass: 2
Flags: W
LayerCount: 2
Fore
SplineSet
1714 1013 m 0,0,1
 1760 963 1760 963 1798 889 c 128,-1,2
 1836 815 1836 815 1858.5 727.5 c 128,-1,3
 1881 640 1881 640 1884.5 544 c 128,-1,4
 1888 448 1888 448 1865 352 c 0,5,6
 1862 338 1862 338 1854 315 c 128,-1,7
 1846 292 1846 292 1827.5 263.5 c 128,-1,8
 1809 235 1809 235 1778 203 c 128,-1,9
 1747 171 1747 171 1698 141 c 0,10,11
 1643 106 1643 106 1562.5 79.5 c 128,-1,12
 1482 53 1482 53 1385 35.5 c 128,-1,13
 1288 18 1288 18 1178.5 9.5 c 128,-1,14
 1069 1 1069 1 955 1 c 0,15,16
 349 1 349 1 171 305 c 0,17,18
 131 372 131 372 116.5 441.5 c 128,-1,19
 102 511 102 511 104.5 576.5 c 128,-1,20
 107 642 107 642 120.5 701 c 128,-1,21
 134 760 134 760 149.5 804.5 c 128,-1,22
 165 849 165 849 178.5 876.5 c 128,-1,23
 192 904 192 904 193 908 c 2,24,-1
 367 813 l 2,25,26
 367 812 367 812 358 793.5 c 128,-1,27
 349 775 349 775 338 743.5 c 128,-1,28
 327 712 327 712 316.5 671 c 128,-1,29
 306 630 306 630 303 584.5 c 128,-1,30
 300 539 300 539 308 492.5 c 128,-1,31
 316 446 316 446 342 404 c 0,32,33
 372 354 372 354 421.5 315.5 c 128,-1,34
 471 277 471 277 542.5 250.5 c 128,-1,35
 614 224 614 224 709 209 c 128,-1,36
 804 194 804 194 926 191 c 0,37,38
 1070 187 1070 187 1174.5 195 c 128,-1,39
 1279 203 1279 203 1354 218 c 128,-1,40
 1429 233 1429 233 1479.5 252.5 c 128,-1,41
 1530 272 1530 272 1565 291 c 0,42,43
 1598 308 1598 308 1618.5 324.5 c 128,-1,44
 1639 341 1639 341 1651 355 c 1,45,-1
 1600 355 l 2,46,47
 1576 355 1576 355 1551.5 355 c 128,-1,48
 1527 355 1527 355 1501 358 c 0,49,50
 1302 370 1302 370 1207 489 c 0,51,52
 1192 507 1192 507 1178 532.5 c 128,-1,53
 1164 558 1164 558 1155.5 591.5 c 128,-1,54
 1147 625 1147 625 1145 666.5 c 128,-1,55
 1143 708 1143 708 1151 758 c 0,56,57
 1162 822 1162 822 1188 888.5 c 128,-1,58
 1214 955 1214 955 1254.5 1009 c 128,-1,59
 1295 1063 1295 1063 1350 1097.5 c 128,-1,60
 1405 1132 1405 1132 1474 1132 c 0,61,62
 1607 1132 1607 1132 1714 1013 c 0,0,1
1514 555 m 0,63,64
 1618 549 1618 549 1687 555 c 1,65,66
 1678 605 1678 605 1664.5 666 c 128,-1,67
 1651 727 1651 727 1627.5 782.5 c 128,-1,68
 1604 838 1604 838 1567 880.5 c 128,-1,69
 1530 923 1530 923 1474 935 c 0,70,71
 1458 938 1458 938 1437.5 923 c 128,-1,72
 1417 908 1417 908 1398 880.5 c 128,-1,73
 1379 853 1379 853 1363 817.5 c 128,-1,74
 1347 782 1347 782 1340 745 c 128,-1,75
 1333 708 1333 708 1337 672.5 c 128,-1,76
 1341 637 1341 637 1362 611 c 0,77,78
 1380 587 1380 587 1420 572.5 c 128,-1,79
 1460 558 1460 558 1514 555 c 0,63,64
EndSplineSet
EndChar

StartChar: uni06A1.fina
Encoding: 65543 -1 58
Width: 2106
GlyphClass: 2
Flags: W
AnchorPoint: "Anchor-1" 1460 -160 basechar 0
AnchorPoint: "Anchor-0" 1460 1100 basechar 0
LayerCount: 2
Fore
SplineSet
1877 242 m 0,0,1
 1870 237 1870 237 1866 231 c 128,-1,2
 1862 225 1862 225 1857 220 c 1,3,4
 1918 209 1918 209 1980 202.5 c 128,-1,5
 2042 196 2042 196 2108 196 c 0,6,7
 2149 196 2149 196 2178 168 c 128,-1,8
 2207 140 2207 140 2207 98 c 0,9,10
 2207 78 2207 78 2199 60 c 128,-1,11
 2191 42 2191 42 2177.5 28.5 c 128,-1,12
 2164 15 2164 15 2146 7.5 c 128,-1,13
 2128 0 2128 0 2108 0 c 0,14,15
 1979 0 1979 0 1859.5 18.5 c 128,-1,16
 1740 37 1740 37 1637 72 c 1,17,18
 1621 67 1621 67 1607.5 62 c 128,-1,19
 1594 57 1594 57 1578 52 c 0,20,21
 1529 34 1529 34 1460 20 c 128,-1,22
 1391 6 1391 6 1310 -3.5 c 128,-1,23
 1229 -13 1229 -13 1140 -17.5 c 128,-1,24
 1051 -22 1051 -22 961 -22 c 0,25,26
 655 -21 655 -21 453.5 54.5 c 128,-1,27
 252 130 252 130 162 283 c 0,28,29
 122 350 122 350 107.5 419.5 c 128,-1,30
 93 489 93 489 95 554.5 c 128,-1,31
 97 620 97 620 110.5 679 c 128,-1,32
 124 738 124 738 140 782.5 c 128,-1,33
 156 827 156 827 169 854.5 c 128,-1,34
 182 882 182 882 184 886 c 1,35,-1
 358 791 l 2,36,37
 358 790 358 790 349 771.5 c 128,-1,38
 340 753 340 753 328.5 721.5 c 128,-1,39
 317 690 317 690 306.5 649 c 128,-1,40
 296 608 296 608 293.5 563 c 128,-1,41
 291 518 291 518 298.5 471 c 128,-1,42
 306 424 306 424 332 382 c 0,43,44
 362 332 362 332 409.5 294 c 128,-1,45
 457 256 457 256 526.5 230.5 c 128,-1,46
 596 205 596 205 689.5 191 c 128,-1,47
 783 177 783 177 905 174 c 0,48,49
 998 171 998 171 1069.5 172.5 c 128,-1,50
 1141 174 1141 174 1197 178.5 c 128,-1,51
 1253 183 1253 183 1298 190 c 128,-1,52
 1343 197 1343 197 1382 205 c 1,53,54
 1245 318 1245 318 1245 469 c 0,55,56
 1245 562 1245 562 1273.5 645.5 c 128,-1,57
 1302 729 1302 729 1356 797 c 0,58,59
 1410 864 1410 864 1478.5 901 c 128,-1,60
 1547 938 1547 938 1623 938 c 0,61,62
 1691 938 1691 938 1750.5 913.5 c 128,-1,63
 1810 889 1810 889 1856 839 c 0,64,65
 1874 820 1874 820 1893 793 c 128,-1,66
 1912 766 1912 766 1927.5 729 c 128,-1,67
 1943 692 1943 692 1952.5 644 c 128,-1,68
 1962 596 1962 596 1962 536 c 0,69,70
 1962 361 1962 361 1877 242 c 0,0,1
1629 286 m 1,71,72
 1672 311 1672 311 1698.5 340 c 128,-1,73
 1725 369 1725 369 1739.5 401 c 128,-1,74
 1754 433 1754 433 1758.5 467 c 128,-1,75
 1763 501 1763 501 1763 536 c 0,76,77
 1763 608 1763 608 1745.5 648.5 c 128,-1,78
 1728 689 1728 689 1705 709 c 128,-1,79
 1682 729 1682 729 1658.5 734 c 128,-1,80
 1635 739 1635 739 1623 739 c 0,81,82
 1595 739 1595 739 1563.5 720 c 128,-1,83
 1532 701 1532 701 1505.5 666 c 128,-1,84
 1479 631 1479 631 1461.5 581 c 128,-1,85
 1444 531 1444 531 1444 469 c 0,86,87
 1444 423 1444 423 1487.5 377 c 128,-1,88
 1531 331 1531 331 1616 293 c 1,89,-1
 1629 286 l 1,71,72
EndSplineSet
EndChar

StartChar: uni066F
Encoding: 1647 1647 59
Width: 1581
GlyphClass: 2
Flags: W
AnchorPoint: "Anchor-1" 740 -840 basechar 0
AnchorPoint: "Anchor-0" 900 1060 basechar 0
LayerCount: 2
Fore
SplineSet
1171 -3 m 256,0,1
 1145 -3 1145 -3 1117.5 -2 c 128,-1,2
 1090 -1 1090 -1 1062 1 c 0,3,4
 953 9 953 9 871 44 c 128,-1,5
 789 79 789 79 740 144 c 0,6,7
 648 262 648 262 679 435 c 0,8,9
 693 520 693 520 722.5 589.5 c 128,-1,10
 752 659 752 659 796 715 c 0,11,12
 845 778 845 778 905 811 c 128,-1,13
 965 844 965 844 1029 844 c 0,14,15
 1101 844 1101 844 1165.5 811.5 c 128,-1,16
 1230 779 1230 779 1290 715 c 0,17,18
 1340 659 1340 659 1378 586 c 128,-1,19
 1416 513 1416 513 1440 429.5 c 128,-1,20
 1464 346 1464 346 1473 256.5 c 128,-1,21
 1482 167 1482 167 1473 77 c 1,22,-1
 1475 77 l 2,23,24
 1475 75 1475 75 1472.5 43.5 c 128,-1,25
 1470 12 1470 12 1460 -37.5 c 128,-1,26
 1450 -87 1450 -87 1430.5 -149 c 128,-1,27
 1411 -211 1411 -211 1377 -275 c 0,28,29
 1336 -354 1336 -354 1281.5 -416.5 c 128,-1,30
 1227 -479 1227 -479 1161 -524 c 0,31,32
 1077 -583 1077 -583 979 -611 c 128,-1,33
 881 -639 881 -639 765 -639 c 2,34,-1
 763 -639 l 2,35,36
 566 -639 566 -639 418 -563 c 0,37,38
 340 -524 340 -524 279 -468.5 c 128,-1,39
 218 -413 218 -413 177 -341 c 0,40,41
 125 -256 125 -256 102.5 -155 c 128,-1,42
 80 -54 80 -54 89 60 c 0,43,44
 97 177 97 177 136 298 c 128,-1,45
 175 419 175 419 243 547 c 1,46,-1
 418 453 l 1,47,48
 363 351 363 351 330.5 253.5 c 128,-1,49
 298 156 298 156 288.5 67.5 c 128,-1,50
 279 -21 279 -21 293 -98.5 c 128,-1,51
 307 -176 307 -176 345 -240 c 0,52,53
 404 -338 404 -338 512 -389.5 c 128,-1,54
 620 -441 620 -441 763 -441 c 2,55,-1
 765 -441 l 1,56,57
 868 -449 868 -449 952 -414.5 c 128,-1,58
 1036 -380 1036 -380 1100 -318.5 c 128,-1,59
 1164 -257 1164 -257 1206 -174.5 c 128,-1,60
 1248 -92 1248 -92 1266 -2 c 1,61,62
 1244 -2 1244 -2 1220.5 -2.5 c 128,-1,63
 1197 -3 1197 -3 1171 -3 c 256,0,1
1029 645 m 0,64,65
 993 645 993 645 951 593 c 0,66,67
 922 558 922 558 903.5 509.5 c 128,-1,68
 885 461 885 461 874 401 c 0,69,70
 859 311 859 311 895 266 c 0,71,72
 910 246 910 246 933 234 c 128,-1,73
 956 222 956 222 981.5 214.5 c 128,-1,74
 1007 207 1007 207 1031.5 203.5 c 128,-1,75
 1056 200 1056 200 1074 198 c 0,76,77
 1137 194 1137 194 1189.5 194.5 c 128,-1,78
 1242 195 1242 195 1280 198 c 1,79,80
 1277 262 1277 262 1265 319 c 128,-1,81
 1253 376 1253 376 1234.5 425 c 128,-1,82
 1216 474 1216 474 1192.5 513.5 c 128,-1,83
 1169 553 1169 553 1144 582 c 0,84,85
 1123 604 1123 604 1093.5 624.5 c 128,-1,86
 1064 645 1064 645 1029 645 c 0,64,65
EndSplineSet
Substitution2: "'fina' Terminal Forms in Arabic lookup 7 subtable" uni066F.fina
Substitution2: "'medi' Medial Forms in Arabic lookup 3 subtable" uni066F.medi
Substitution2: "'init' Initial Forms in Arabic lookup 1 subtable" uni066F.init
EndChar

StartChar: uni066F.fina
Encoding: 65544 -1 60
Width: 1570
GlyphClass: 2
Flags: W
AnchorPoint: "Anchor-1" 740 -840 basechar 0
AnchorPoint: "Anchor-0" 900 1060 basechar 0
LayerCount: 2
Fore
SplineSet
1022 648 m 0,0,1
 986 648 986 648 944 595 c 0,2,3
 915 560 915 560 896.5 512 c 128,-1,4
 878 464 878 464 867 405 c 0,5,6
 852 313 852 313 888 269 c 0,7,8
 903 249 903 249 925.5 236.5 c 128,-1,9
 948 224 948 224 973 216.5 c 128,-1,10
 998 209 998 209 1022.5 205.5 c 128,-1,11
 1047 202 1047 202 1065 200 c 0,12,13
 1128 197 1128 197 1179.5 196 c 128,-1,14
 1231 195 1231 195 1273 196 c 1,15,16
 1270 260 1270 260 1258 317.5 c 128,-1,17
 1246 375 1246 375 1227 424.5 c 128,-1,18
 1208 474 1208 474 1184.5 514.5 c 128,-1,19
 1161 555 1161 555 1135 585 c 0,20,21
 1115 606 1115 606 1086 627 c 128,-1,22
 1057 648 1057 648 1022 648 c 0,0,1
1232 -3 m 2,23,24
 1194 -3 1194 -3 1149 -1.5 c 128,-1,25
 1104 0 1104 0 1053 3 c 0,26,27
 944 11 944 11 863.5 47 c 128,-1,28
 783 83 783 83 732 146 c 0,29,30
 641 265 641 265 672 438 c 0,31,32
 686 522 686 522 715.5 592.5 c 128,-1,33
 745 663 745 663 788 717 c 0,34,35
 838 780 838 780 897 813 c 128,-1,36
 956 846 956 846 1022 846 c 0,37,38
 1165 846 1165 846 1282 717 c 0,39,40
 1325 670 1325 670 1358.5 611.5 c 128,-1,41
 1392 553 1392 553 1416 486 c 128,-1,42
 1440 419 1440 419 1453.5 346 c 128,-1,43
 1467 273 1467 273 1470 197 c 1,44,45
 1490 196 1490 196 1515 196 c 128,-1,46
 1540 196 1540 196 1571 196 c 0,47,48
 1612 196 1612 196 1641 168 c 128,-1,49
 1670 140 1670 140 1670 98 c 0,50,51
 1670 78 1670 78 1662 60 c 128,-1,52
 1654 42 1654 42 1640.5 28.5 c 128,-1,53
 1627 15 1627 15 1609 7.5 c 128,-1,54
 1591 0 1591 0 1571 0 c 2,55,-1
 1562 0 l 1,56,-1
 1457 0 l 1,57,58
 1449 -51 1449 -51 1428.5 -122.5 c 128,-1,59
 1408 -194 1408 -194 1369 -271 c 0,60,61
 1288 -428 1288 -428 1155 -522 c 0,62,63
 988 -637 988 -637 757 -637 c 0,64,65
 560 -637 560 -637 409 -560 c 0,66,67
 254 -483 254 -483 168 -339 c 0,68,69
 117 -254 117 -254 95 -153 c 128,-1,70
 73 -52 73 -52 81 62 c 0,71,72
 89 178 89 178 127.5 299 c 128,-1,73
 166 420 166 420 235 550 c 1,74,-1
 410 457 l 1,75,76
 299 249 299 249 280.5 70.5 c 128,-1,77
 262 -108 262 -108 337 -236 c 0,78,79
 397 -335 397 -335 504 -386.5 c 128,-1,80
 611 -438 611 -438 757 -438 c 0,81,82
 1058 -438 1058 -438 1190 -186 c 0,83,84
 1216 -136 1216 -136 1232 -88.5 c 128,-1,85
 1248 -41 1248 -41 1256 -3 c 1,86,-1
 1232 -3 l 2,23,24
EndSplineSet
EndChar

StartChar: onedot.above
Encoding: 65545 -1 61
Width: 1024
GlyphClass: 2
Flags: W
LayerCount: 2
Fore
SplineSet
687 1224 m 1,0,-1
 524 1061 l 1,1,-1
 360 1225 l 1,2,-1
 523 1388 l 1,3,-1
 687 1224 l 1,0,-1
EndSplineSet
EndChar

StartChar: twodots.above
Encoding: 65546 -1 62
Width: 1024
GlyphClass: 2
Flags: W
LayerCount: 2
Fore
SplineSet
480 1022 m 1,0,-1
 318 860 l 1,1,-1
 154 1023 l 1,2,-1
 316 1186 l 1,3,-1
 480 1022 l 1,0,-1
890 1021 m 1,4,-1
 728 858 l 1,5,-1
 564 1022 l 1,6,-1
 726 1184 l 1,7,-1
 890 1021 l 1,4,-1
EndSplineSet
EndChar

StartChar: threedots.above
Encoding: 65547 -1 63
Width: 1151
GlyphClass: 2
Flags: W
LayerCount: 2
Fore
SplineSet
621 1152 m 1,0,-1
 783 1314 l 1,1,-1
 947 1150 l 1,2,-1
 785 988 l 1,3,-1
 621 1152 l 1,0,-1
182 1153 m 1,4,-1
 344 1316 l 1,5,-1
 508 1152 l 1,6,-1
 346 989 l 1,7,-1
 182 1153 l 1,4,-1
423 1454 m 1,8,-1
 571 1602 l 1,9,-1
 720 1453 l 1,10,-1
 572 1305 l 1,11,-1
 423 1454 l 1,8,-1
EndSplineSet
EndChar

StartChar: threedots.below
Encoding: 65548 -1 64
Width: 1057
GlyphClass: 2
Flags: W
LayerCount: 2
Fore
SplineSet
760 -74 m 1,0,-1
 922 -236 l 1,1,-1
 758 -400 l 1,2,-1
 596 -238 l 1,3,-1
 760 -74 l 1,0,-1
323 -75 m 1,4,-1
 485 -238 l 1,5,-1
 321 -402 l 1,6,-1
 159 -239 l 1,7,-1
 323 -75 l 1,4,-1
545 -391 m 1,8,-1
 693 -539 l 1,9,-1
 544 -688 l 1,10,-1
 396 -540 l 1,11,-1
 545 -391 l 1,8,-1
EndSplineSet
EndChar

StartChar: uni0660
Encoding: 1632 1632 65
Width: 990
GlyphClass: 2
Flags: W
LayerCount: 2
Fore
SplineSet
170 542 m 0,0,1
 170 612 170 612 196.5 673.5 c 128,-1,2
 223 735 223 735 269 781.5 c 128,-1,3
 315 828 315 828 376.5 855 c 128,-1,4
 438 882 438 882 509 882 c 0,5,6
 579 882 579 882 640.5 855 c 128,-1,7
 702 828 702 828 748.5 781.5 c 128,-1,8
 795 735 795 735 822 673.5 c 128,-1,9
 849 612 849 612 849 542 c 0,10,11
 849 471 849 471 822 409.5 c 128,-1,12
 795 348 795 348 748.5 302 c 128,-1,13
 702 256 702 256 640.5 229.5 c 128,-1,14
 579 203 579 203 509 203 c 0,15,16
 438 203 438 203 376.5 229.5 c 128,-1,17
 315 256 315 256 269 302 c 128,-1,18
 223 348 223 348 196.5 409.5 c 128,-1,19
 170 471 170 471 170 542 c 0,0,1
333 542 m 256,20,21
 333 506 333 506 347 474 c 128,-1,22
 361 442 361 442 385 418 c 128,-1,23
 409 394 409 394 441 380 c 128,-1,24
 473 366 473 366 509 366 c 256,25,26
 545 366 545 366 577.5 380 c 128,-1,27
 610 394 610 394 634 418 c 128,-1,28
 658 442 658 442 672 474 c 128,-1,29
 686 506 686 506 686 542 c 256,30,31
 686 578 686 578 672 610.5 c 128,-1,32
 658 643 658 643 634 667 c 128,-1,33
 610 691 610 691 577.5 705 c 128,-1,34
 545 719 545 719 509 719 c 256,35,36
 473 719 473 719 441 705 c 128,-1,37
 409 691 409 691 385 667 c 128,-1,38
 361 643 361 643 347 610.5 c 128,-1,39
 333 578 333 578 333 542 c 256,20,21
EndSplineSet
PairPos2: "'kern' Horizontal Kerning in Arabic lookup 5 subtable" uni06F4.urdu dx=-200 dy=0 dh=-200 dv=0 dx=0 dy=0 dh=0 dv=0
PairPos2: "'kern' Horizontal Kerning in Arabic lookup 5 subtable" uni06F7 dx=-200 dy=0 dh=-200 dv=0 dx=0 dy=0 dh=0 dv=0
PairPos2: "'kern' Horizontal Kerning in Arabic lookup 5 subtable" uni06F3 dx=-200 dy=0 dh=-200 dv=0 dx=0 dy=0 dh=0 dv=0
PairPos2: "'kern' Horizontal Kerning in Arabic lookup 5 subtable" uni06F2 dx=-200 dy=0 dh=-200 dv=0 dx=0 dy=0 dh=0 dv=0
PairPos2: "'kern' Horizontal Kerning in Arabic lookup 5 subtable" uni06F6 dx=-200 dy=0 dh=-200 dv=0 dx=0 dy=0 dh=0 dv=0
PairPos2: "'kern' Horizontal Kerning in Arabic lookup 5 subtable" uni06F4 dx=-100 dy=0 dh=-100 dv=0 dx=0 dy=0 dh=0 dv=0
PairPos2: "'kern' Horizontal Kerning in Arabic lookup 5 subtable" uni0667 dx=-200 dy=0 dh=-200 dv=0 dx=0 dy=0 dh=0 dv=0
PairPos2: "'kern' Horizontal Kerning in Arabic lookup 5 subtable" uni0663 dx=-200 dy=0 dh=-200 dv=0 dx=0 dy=0 dh=0 dv=0
PairPos2: "'kern' Horizontal Kerning in Arabic lookup 5 subtable" uni0662 dx=-200 dy=0 dh=-200 dv=0 dx=0 dy=0 dh=0 dv=0
EndChar

StartChar: uni0661
Encoding: 1633 1633 66
Width: 662
GlyphClass: 2
Flags: W
LayerCount: 2
Fore
SplineSet
347 -26 m 1,0,1
 347 169 347 169 340 361.5 c 128,-1,2
 333 554 333 554 309 731 c 128,-1,3
 285 908 285 908 240.5 1062 c 128,-1,4
 196 1216 196 1216 121 1334 c 1,5,-1
 287 1440 l 1,6,7
 369 1310 369 1310 423.5 1137 c 128,-1,8
 478 964 478 964 507 746 c 0,9,10
 519 652 519 652 526.5 552 c 128,-1,11
 534 452 534 452 538.5 352.5 c 128,-1,12
 543 253 543 253 544.5 157 c 128,-1,13
 546 61 546 61 546 -26 c 1,14,-1
 347 -26 l 1,0,1
EndSplineSet
EndChar

StartChar: uni0662
Encoding: 1634 1634 67
Width: 1137
GlyphClass: 2
Flags: W
LayerCount: 2
Fore
SplineSet
981 1462 m 2,0,1
 981 1460 981 1460 984 1442 c 128,-1,2
 987 1424 987 1424 990 1396 c 128,-1,3
 993 1368 993 1368 995 1331.5 c 128,-1,4
 997 1295 997 1295 996 1255 c 0,5,6
 991 1023 991 1023 887 901 c 1,7,-1
 887 902 l 1,8,9
 837 841 837 841 766.5 810 c 128,-1,10
 696 779 696 779 610 779 c 0,11,12
 563 779 563 779 524 785.5 c 128,-1,13
 485 792 485 792 447 807 c 1,14,15
 449 793 449 793 451 779.5 c 128,-1,16
 453 766 453 766 455 752 c 0,17,18
 467 658 467 658 474.5 558.5 c 128,-1,19
 482 459 482 459 486.5 359.5 c 128,-1,20
 491 260 491 260 492.5 163.5 c 128,-1,21
 494 67 494 67 494 -20 c 1,22,-1
 295 -20 l 1,23,24
 295 139 295 139 292 296.5 c 128,-1,25
 289 454 289 454 276 602.5 c 128,-1,26
 263 751 263 751 237.5 886.5 c 128,-1,27
 212 1022 212 1022 167 1136 c 0,28,29
 146 1189 146 1189 122 1238.5 c 128,-1,30
 98 1288 98 1288 68 1340 c 1,31,-1
 235 1446 l 1,32,33
 251 1420 251 1420 265 1393.5 c 128,-1,34
 279 1367 279 1367 292 1338.5 c 128,-1,35
 305 1310 305 1310 319 1278 c 128,-1,36
 333 1246 333 1246 350 1209 c 0,37,38
 373 1156 373 1156 395.5 1113.5 c 128,-1,39
 418 1071 418 1071 447.5 1040 c 128,-1,40
 477 1009 477 1009 515.5 992.5 c 128,-1,41
 554 976 554 976 610 976 c 0,42,43
 652 976 652 976 682.5 988.5 c 128,-1,44
 713 1001 713 1001 735 1027 c 0,45,46
 754 1049 754 1049 766 1078.5 c 128,-1,47
 778 1108 778 1108 785.5 1141 c 128,-1,48
 793 1174 793 1174 796 1209 c 128,-1,49
 799 1244 799 1244 799 1277 c 0,50,51
 799 1320 799 1320 794.5 1360 c 128,-1,52
 790 1400 790 1400 785 1426 c 1,53,-1
 981 1462 l 2,0,1
EndSplineSet
EndChar

StartChar: uni0663
Encoding: 1635 1635 68
Width: 1439
GlyphClass: 2
Flags: W
LayerCount: 2
Fore
SplineSet
1301 1473 m 1,0,1
 1317 1387 1317 1387 1325.5 1314 c 128,-1,2
 1334 1241 1334 1241 1334 1180 c 0,3,4
 1334 989 1334 989 1253 890 c 0,5,6
 1215 845 1215 845 1162.5 821 c 128,-1,7
 1110 797 1110 797 1046 797 c 0,8,9
 1021 797 1021 797 993 802.5 c 128,-1,10
 965 808 965 808 936 821.5 c 128,-1,11
 907 835 907 835 879 859 c 128,-1,12
 851 883 851 883 826 919 c 1,13,-1
 806 889 l 1,14,15
 758 835 758 835 702 807 c 128,-1,16
 646 779 646 779 569 779 c 0,17,18
 531 779 531 779 503 783.5 c 128,-1,19
 475 788 475 788 444 799 c 1,20,21
 446 786 446 786 447.5 775 c 128,-1,22
 449 764 449 764 451 752 c 0,23,24
 464 656 464 656 471.5 557 c 128,-1,25
 479 458 479 458 483 360 c 128,-1,26
 487 262 487 262 488.5 166 c 128,-1,27
 490 70 490 70 490 -19 c 1,28,-1
 291 -19 l 1,29,30
 293 22 293 22 293.5 66.5 c 128,-1,31
 294 111 294 111 294 151 c 0,32,33
 294 295 294 295 284 434 c 128,-1,34
 274 573 274 573 254.5 702 c 128,-1,35
 235 831 235 831 205 949 c 128,-1,36
 175 1067 175 1067 135 1170 c 0,37,38
 133 1174 133 1174 129 1184 c 0,39,40
 127 1188 127 1188 126 1192 c 0,41,42
 110 1230 110 1230 91.5 1267.5 c 128,-1,43
 73 1305 73 1305 50 1341 c 1,44,-1
 231 1448 l 1,45,46
 238 1436 238 1436 247.5 1419 c 128,-1,47
 257 1402 257 1402 267 1382 c 128,-1,48
 277 1362 277 1362 287 1340.5 c 128,-1,49
 297 1319 297 1319 307 1299 c 0,50,51
 330 1251 330 1251 354 1198 c 0,52,53
 381 1136 381 1136 401.5 1094 c 128,-1,54
 422 1052 422 1052 444 1026 c 128,-1,55
 466 1000 466 1000 495 988.5 c 128,-1,56
 524 977 524 977 569 977 c 0,57,58
 602 977 602 977 619.5 987 c 128,-1,59
 637 997 637 997 654 1018 c 0,60,61
 682 1050 682 1050 698.5 1110 c 128,-1,62
 715 1170 715 1170 717 1251 c 0,63,64
 717 1262 717 1262 716 1289.5 c 128,-1,65
 715 1317 715 1317 713 1347 c 128,-1,66
 711 1377 711 1377 709.5 1402.5 c 128,-1,67
 708 1428 708 1428 707 1434 c 1,68,-1
 905 1458 l 2,69,70
 905 1455 905 1455 905 1449 c 128,-1,71
 905 1443 905 1443 906 1439 c 0,72,73
 908 1428 908 1428 910.5 1403.5 c 128,-1,74
 913 1379 913 1379 915 1346 c 0,75,76
 921 1285 921 1285 931.5 1217 c 128,-1,77
 942 1149 942 1149 958 1097 c 0,78,79
 971 1062 971 1062 984 1041.5 c 128,-1,80
 997 1021 997 1021 1009 1011 c 128,-1,81
 1021 1001 1021 1001 1030.5 998.5 c 128,-1,82
 1040 996 1040 996 1046 996 c 0,83,84
 1072 996 1072 996 1083.5 1002.5 c 128,-1,85
 1095 1009 1095 1009 1100 1016 c 0,86,87
 1105 1022 1105 1022 1111.5 1033.5 c 128,-1,88
 1118 1045 1118 1045 1123.5 1064.5 c 128,-1,89
 1129 1084 1129 1084 1133 1112.5 c 128,-1,90
 1137 1141 1137 1141 1137 1181 c 0,91,92
 1137 1225 1137 1225 1130 1287.5 c 128,-1,93
 1123 1350 1123 1350 1107 1436 c 1,94,-1
 1301 1473 l 1,0,1
EndSplineSet
EndChar

StartChar: uni0664
Encoding: 1636 1636 69
Width: 1104
GlyphClass: 2
Flags: W
LayerCount: 2
Fore
SplineSet
707 1295 m 1,0,1
 688 1289 688 1289 657.5 1276.5 c 128,-1,2
 627 1264 627 1264 590 1247.5 c 128,-1,3
 553 1231 553 1231 512.5 1209.5 c 128,-1,4
 472 1188 472 1188 434 1164 c 0,5,6
 359 1114 359 1114 319.5 1067.5 c 128,-1,7
 280 1021 280 1021 286 986 c 0,8,9
 294 942 294 942 370 912 c 0,10,11
 389 904 389 904 417 896.5 c 128,-1,12
 445 889 445 889 483 883 c 128,-1,13
 521 877 521 877 571 873.5 c 128,-1,14
 621 870 621 870 685 870 c 0,15,16
 702 870 702 870 720.5 870 c 128,-1,17
 739 870 739 870 759 871 c 1,18,-1
 791 675 l 1,19,20
 713 651 713 651 650.5 617 c 128,-1,21
 588 583 588 583 541.5 544.5 c 128,-1,22
 495 506 495 506 464 467 c 128,-1,23
 433 428 433 428 417 394 c 0,24,25
 402 362 402 362 398.5 334 c 128,-1,26
 395 306 395 306 404 286 c 0,27,28
 418 254 418 254 459.5 229.5 c 128,-1,29
 501 205 501 205 560 194 c 0,30,31
 606 186 606 186 652 186 c 0,32,33
 716 186 716 186 785 200 c 128,-1,34
 854 214 854 214 924 243 c 1,35,-1
 999 56 l 1,36,37
 870 4 870 4 746 -9 c 0,38,39
 698 -15 698 -15 652 -15 c 0,40,41
 585 -15 585 -15 522 -3 c 0,42,43
 412 18 412 18 333.5 72.5 c 128,-1,44
 255 127 255 127 220 205 c 0,45,46
 194 265 194 265 197.5 335.5 c 128,-1,47
 201 406 201 406 235 478 c 0,48,49
 261 536 261 536 304.5 590.5 c 128,-1,50
 348 645 348 645 406 693 c 1,51,52
 375 700 375 700 348 708 c 128,-1,53
 321 716 321 716 296 725 c 0,54,55
 240 747 240 747 202 775.5 c 128,-1,56
 164 804 164 804 140 834 c 128,-1,57
 116 864 116 864 104 894.5 c 128,-1,58
 92 925 92 925 88 952 c 0,59,60
 85 972 85 972 84.5 997.5 c 128,-1,61
 84 1023 84 1023 91 1052.5 c 128,-1,62
 98 1082 98 1082 112.5 1114.5 c 128,-1,63
 127 1147 127 1147 154 1182 c 0,64,65
 214 1260 214 1260 325 1332 c 0,66,67
 369 1361 369 1361 415.5 1385.5 c 128,-1,68
 462 1410 462 1410 505 1429.5 c 128,-1,69
 548 1449 548 1449 584 1463 c 128,-1,70
 620 1477 620 1477 644 1485 c 1,71,-1
 707 1295 l 1,0,1
EndSplineSet
EndChar

StartChar: uni0665
Encoding: 1637 1637 70
Width: 1240
GlyphClass: 2
Flags: W
LayerCount: 2
Fore
SplineSet
560 1438 m 1,0,1
 589 1409 589 1409 630.5 1367 c 128,-1,2
 672 1325 672 1325 719 1273 c 128,-1,3
 766 1221 766 1221 816 1160.5 c 128,-1,4
 866 1100 866 1100 913 1034 c 0,5,6
 1132 726 1132 726 1132 497 c 0,7,8
 1132 413 1132 413 1104 330 c 128,-1,9
 1076 247 1076 247 1027 181 c 0,10,11
 1003 149 1003 149 968 116.5 c 128,-1,12
 933 84 933 84 885.5 58 c 128,-1,13
 838 32 838 32 776 15 c 128,-1,14
 714 -2 714 -2 636 -2 c 0,15,16
 514 -2 514 -2 418 40 c 0,17,18
 326 80 326 80 264 151 c 0,19,20
 221 200 221 200 194 256.5 c 128,-1,21
 167 313 167 313 153 370 c 128,-1,22
 139 427 139 427 136.5 481 c 128,-1,23
 134 535 134 535 140 579 c 0,24,25
 151 671 151 671 190 775.5 c 128,-1,26
 229 880 229 880 292 986 c 0,27,28
 334 1056 334 1056 381.5 1119.5 c 128,-1,29
 429 1183 429 1183 479 1235 c 1,30,31
 446 1270 446 1270 420 1294 c 1,32,-1
 560 1438 l 1,0,1
636 199 m 0,33,34
 790 199 790 199 866 302 c 0,35,36
 902 350 902 350 916.5 403.5 c 128,-1,37
 931 457 931 457 931 497 c 0,38,39
 931 578 931 578 885 685 c 128,-1,40
 839 792 839 792 749 918 c 0,41,42
 717 963 717 963 683.5 1005.5 c 128,-1,43
 650 1048 650 1048 616 1087 c 1,44,45
 568 1036 568 1036 522 971.5 c 128,-1,46
 476 907 476 907 438 836.5 c 128,-1,47
 400 766 400 766 373.5 693.5 c 128,-1,48
 347 621 347 621 339 554 c 0,49,50
 336 533 336 533 337 500 c 128,-1,51
 338 467 338 467 346 429.5 c 128,-1,52
 354 392 354 392 370 354 c 128,-1,53
 386 316 386 316 415 284 c 0,54,55
 453 240 453 240 507 219.5 c 128,-1,56
 561 199 561 199 636 199 c 0,33,34
EndSplineSet
EndChar

StartChar: uni0666
Encoding: 1638 1638 71
Width: 1166
GlyphClass: 2
Flags: W
LayerCount: 2
Fore
SplineSet
133 1461 m 1,0,1
 205 1430 205 1430 282 1418 c 128,-1,2
 359 1406 359 1406 432 1406 c 0,3,4
 499 1406 499 1406 558.5 1413 c 128,-1,5
 618 1420 618 1420 663 1428 c 128,-1,6
 708 1436 708 1436 734.5 1443.5 c 128,-1,7
 761 1451 761 1451 762 1451 c 2,8,-1
 886 1342 l 2,9,10
 886 1341 886 1341 880.5 1295 c 128,-1,11
 875 1249 875 1249 870.5 1163.5 c 128,-1,12
 866 1078 866 1078 866.5 957 c 128,-1,13
 867 836 867 836 879 685 c 0,14,15
 889 552 889 552 914.5 440 c 128,-1,16
 940 328 940 328 966 246.5 c 128,-1,17
 992 165 992 165 1012 119 c 128,-1,18
 1032 73 1032 73 1032 72 c 2,19,-1
 857 -14 l 1,20,21
 855 -10 855 -10 832.5 42.5 c 128,-1,22
 810 95 810 95 781 185 c 128,-1,23
 752 275 752 275 724.5 398.5 c 128,-1,24
 697 522 697 522 685 669 c 0,25,26
 670 857 670 857 671.5 999.5 c 128,-1,27
 673 1142 673 1142 680 1233 c 1,28,29
 629 1225 629 1225 566.5 1218 c 128,-1,30
 504 1211 504 1211 434 1211 c 0,31,32
 343 1211 343 1211 246 1226.5 c 128,-1,33
 149 1242 149 1242 55 1283 c 1,34,-1
 133 1461 l 1,35,-1
 133 1461 l 1,0,1
EndSplineSet
PairPos2: "'kern' Horizontal Kerning in Arabic lookup 5 subtable" uni06F0 dx=-200 dy=0 dh=-200 dv=0 dx=0 dy=0 dh=0 dv=0
PairPos2: "'kern' Horizontal Kerning in Arabic lookup 5 subtable" uni066C dx=-250 dy=0 dh=-250 dv=0 dx=0 dy=0 dh=0 dv=0
PairPos2: "'kern' Horizontal Kerning in Arabic lookup 5 subtable" uni066B dx=-100 dy=0 dh=-100 dv=0 dx=0 dy=0 dh=0 dv=0
PairPos2: "'kern' Horizontal Kerning in Arabic lookup 5 subtable" uni0665 dx=-150 dy=0 dh=-150 dv=0 dx=0 dy=0 dh=0 dv=0
PairPos2: "'kern' Horizontal Kerning in Arabic lookup 5 subtable" uni0660 dx=-200 dy=0 dh=-200 dv=0 dx=0 dy=0 dh=0 dv=0
EndChar

StartChar: uni0667
Encoding: 1639 1639 72
Width: 1291
GlyphClass: 2
Flags: W
LayerCount: 2
Fore
SplineSet
568 -23 m 1,0,1
 568 198 568 198 525.5 393.5 c 128,-1,2
 483 589 483 589 414.5 761.5 c 128,-1,3
 346 934 346 934 260.5 1085.5 c 128,-1,4
 175 1237 175 1237 89 1372 c 1,5,-1
 254 1475 l 1,6,7
 316 1379 316 1379 368 1290 c 128,-1,8
 420 1201 420 1201 463.5 1115.5 c 128,-1,9
 507 1030 507 1030 543.5 948 c 128,-1,10
 580 866 580 866 610 784 c 0,11,12
 620 755 620 755 628.5 732 c 128,-1,13
 637 709 637 709 644 687 c 128,-1,14
 651 665 651 665 658 641.5 c 128,-1,15
 665 618 665 618 672 589 c 1,16,17
 713 720 713 720 763 851.5 c 128,-1,18
 813 983 813 983 864 1100.5 c 128,-1,19
 915 1218 915 1218 964.5 1315 c 128,-1,20
 1014 1412 1014 1412 1054 1475 c 1,21,-1
 1219 1372 l 1,22,23
 1173 1282 1173 1282 1122 1183.5 c 128,-1,24
 1071 1085 1071 1085 1021.5 977.5 c 128,-1,25
 972 870 972 870 927 754 c 128,-1,26
 882 638 882 638 847 513 c 128,-1,27
 812 388 812 388 790.5 254 c 128,-1,28
 769 120 769 120 766 -23 c 1,29,-1
 568 -23 l 1,0,1
EndSplineSet
Substitution2: "'locl' Localized Forms in Arabic lookup 8 subtable" uni06F7.urdu
PairPos2: "'kern' Horizontal Kerning in Arabic lookup 5 subtable" uni06F0 dx=-200 dy=0 dh=-200 dv=0 dx=0 dy=0 dh=0 dv=0
PairPos2: "'kern' Horizontal Kerning in Arabic lookup 5 subtable" uni066C dx=-250 dy=0 dh=-250 dv=0 dx=0 dy=0 dh=0 dv=0
PairPos2: "'kern' Horizontal Kerning in Arabic lookup 5 subtable" uni0665 dx=-150 dy=0 dh=-150 dv=0 dx=0 dy=0 dh=0 dv=0
PairPos2: "'kern' Horizontal Kerning in Arabic lookup 5 subtable" uni0660 dx=-200 dy=0 dh=-200 dv=0 dx=0 dy=0 dh=0 dv=0
EndChar

StartChar: uni0668
Encoding: 1640 1640 73
Width: 1351
GlyphClass: 2
Flags: W
LayerCount: 2
Fore
SplineSet
793 1450 m 1,0,1
 793 1231 793 1231 835.5 1038 c 128,-1,2
 878 845 878 845 946.5 674 c 128,-1,3
 1015 503 1015 503 1100.5 353 c 128,-1,4
 1186 203 1186 203 1272 70 c 1,5,-1
 1107 -32 l 1,6,7
 1045 62 1045 62 993 150.5 c 128,-1,8
 941 239 941 239 897.5 323.5 c 128,-1,9
 854 408 854 408 817.5 489.5 c 128,-1,10
 781 571 781 571 751 652 c 0,11,12
 741 680 741 680 732.5 703 c 128,-1,13
 724 726 724 726 717 748 c 128,-1,14
 710 770 710 770 703 793 c 128,-1,15
 696 816 696 816 689 845 c 1,16,17
 648 715 648 715 598 585 c 128,-1,18
 548 455 548 455 497 338.5 c 128,-1,19
 446 222 446 222 396.5 126 c 128,-1,20
 347 30 347 30 307 -32 c 1,21,-1
 142 70 l 1,22,23
 188 159 188 159 239 256.5 c 128,-1,24
 290 354 290 354 339.5 460 c 128,-1,25
 389 566 389 566 434 681 c 128,-1,26
 479 796 479 796 514 920 c 128,-1,27
 549 1044 549 1044 570.5 1176.5 c 128,-1,28
 592 1309 592 1309 595 1450 c 1,29,-1
 793 1450 l 1,0,1
EndSplineSet
PairPos2: "'kern' Horizontal Kerning in Arabic lookup 5 subtable" uni06F4.urdu dx=-200 dy=0 dh=-200 dv=0 dx=0 dy=0 dh=0 dv=0
PairPos2: "'kern' Horizontal Kerning in Arabic lookup 5 subtable" uni06F7 dx=-200 dy=0 dh=-200 dv=0 dx=0 dy=0 dh=0 dv=0
PairPos2: "'kern' Horizontal Kerning in Arabic lookup 5 subtable" uni06F3 dx=-200 dy=0 dh=-200 dv=0 dx=0 dy=0 dh=0 dv=0
PairPos2: "'kern' Horizontal Kerning in Arabic lookup 5 subtable" uni06F2 dx=-200 dy=0 dh=-200 dv=0 dx=0 dy=0 dh=0 dv=0
PairPos2: "'kern' Horizontal Kerning in Arabic lookup 5 subtable" uni06F6 dx=-200 dy=0 dh=-200 dv=0 dx=0 dy=0 dh=0 dv=0
PairPos2: "'kern' Horizontal Kerning in Arabic lookup 5 subtable" uni06F4 dx=-200 dy=0 dh=-200 dv=0 dx=0 dy=0 dh=0 dv=0
PairPos2: "'kern' Horizontal Kerning in Arabic lookup 5 subtable" uni0667 dx=-200 dy=0 dh=-200 dv=0 dx=0 dy=0 dh=0 dv=0
PairPos2: "'kern' Horizontal Kerning in Arabic lookup 5 subtable" uni0663 dx=-200 dy=0 dh=-200 dv=0 dx=0 dy=0 dh=0 dv=0
PairPos2: "'kern' Horizontal Kerning in Arabic lookup 5 subtable" uni0662 dx=-200 dy=0 dh=-200 dv=0 dx=0 dy=0 dh=0 dv=0
EndChar

StartChar: uni0669
Encoding: 1641 1641 74
Width: 1098
GlyphClass: 2
Flags: W
LayerCount: 2
Fore
SplineSet
329 1279 m 0,1,2
 287 1209 287 1209 278 1124 c 0,3,4
 263 978 263 978 463 959 c 0,5,6
 543 951 543 951 635 971 c 1,7,8
 630 1093 630 1093 610 1182 c 0,9,10
 603 1213 603 1213 592 1241 c 0,11,12
 578 1275 578 1275 561 1301 c 0,13,14
 518 1367 518 1367 457 1367 c 0,15,0
 381 1367 381 1367 329 1279 c 0,1,2
703 279 m 0,17,18
 636 535 636 535 635 771 c 1,19,20
 418 733 418 733 261 829 c 0,21,22
 85 935 85 935 114 1153 c 0,23,24
 129 1263 129 1263 179 1357 c 0,25,26
 234 1462 234 1462 319 1518 c 256,27,28
 404 1574 404 1574 507 1562 c 0,29,30
 609 1549 609 1549 680 1475 c 0,31,32
 777 1375 777 1375 805 1156 c 0,33,34
 815 1074 815 1074 817 965 c 0,35,36
 818 924 818 924 817 872 c 2,37,-1
 817 827 l 1,38,-1
 816 784 l 2,39,40
 815 647 815 647 868 404 c 0,41,42
 921 158 921 158 965 106 c 1,43,-1
 909 33 l 2,44,45
 854 -37 854 -37 844 -50 c 1,46,16
 768 32 768 32 703 279 c 0,17,18
EndSplineSet
PairPos2: "'kern' Horizontal Kerning in Arabic lookup 5 subtable" uni06F0 dx=-200 dy=0 dh=-200 dv=0 dx=0 dy=0 dh=0 dv=0
PairPos2: "'kern' Horizontal Kerning in Arabic lookup 5 subtable" uni066C dx=-250 dy=0 dh=-250 dv=0 dx=0 dy=0 dh=0 dv=0
PairPos2: "'kern' Horizontal Kerning in Arabic lookup 5 subtable" uni0665 dx=-150 dy=0 dh=-150 dv=0 dx=0 dy=0 dh=0 dv=0
PairPos2: "'kern' Horizontal Kerning in Arabic lookup 5 subtable" uni0660 dx=-200 dy=0 dh=-200 dv=0 dx=0 dy=0 dh=0 dv=0
EndChar

StartChar: uni06F4
Encoding: 1780 1780 75
Width: 1258
GlyphClass: 2
Flags: W
LayerCount: 2
Fore
SplineSet
796 716 m 0,0,1
 737 716 737 716 679 726.5 c 128,-1,2
 621 737 621 737 574 756 c 0,3,4
 542 770 542 770 511.5 789 c 128,-1,5
 481 808 481 808 456 831 c 1,6,-1
 466 762 l 2,7,8
 479 666 479 666 486.5 567 c 128,-1,9
 494 468 494 468 498 369.5 c 128,-1,10
 502 271 502 271 503.5 175 c 128,-1,11
 505 79 505 79 505 -10 c 1,12,-1
 306 -10 l 1,13,14
 306 185 306 185 299 377.5 c 128,-1,15
 292 570 292 570 268 747 c 128,-1,16
 244 924 244 924 199.5 1078 c 128,-1,17
 155 1232 155 1232 80 1350 c 1,18,-1
 246 1455 l 1,19,20
 281 1398 281 1398 312 1335 c 128,-1,21
 343 1272 343 1272 366 1208 c 1,22,23
 377 1241 377 1241 395.5 1274 c 128,-1,24
 414 1307 414 1307 439 1335 c 2,25,-1
 438 1334 l 1,26,27
 494 1401 494 1401 575 1441.5 c 128,-1,28
 656 1482 656 1482 745 1486 c 0,29,30
 814 1489 814 1489 887.5 1467 c 128,-1,31
 961 1445 961 1445 1033 1398 c 0,32,33
 1078 1369 1078 1369 1105.5 1344.5 c 128,-1,34
 1133 1320 1133 1320 1144 1310 c 2,35,-1
 1156 1298 l 1,36,-1
 1013 1160 l 1,37,38
 1013 1160 1013 1160 1002.5 1170 c 128,-1,39
 992 1180 992 1180 974.5 1195 c 128,-1,40
 957 1210 957 1210 932.5 1227 c 128,-1,41
 908 1244 908 1244 879 1258 c 128,-1,42
 850 1272 850 1272 818.5 1280.5 c 128,-1,43
 787 1289 787 1289 754 1288 c 2,44,-1
 755 1288 l 2,45,46
 707 1285 707 1285 663.5 1263.5 c 128,-1,47
 620 1242 620 1242 590 1207 c 0,48,49
 573 1186 573 1186 558 1151 c 128,-1,50
 543 1116 543 1116 549 1067 c 0,51,52
 557 1023 557 1023 582 989 c 128,-1,53
 607 955 607 955 650 938 c 0,54,55
 679 928 679 928 718 921 c 128,-1,56
 757 914 757 914 796 914 c 0,57,58
 818 914 818 914 840.5 915.5 c 128,-1,59
 863 917 863 917 887 921 c 0,60,61
 954 930 954 930 1006 951.5 c 128,-1,62
 1058 973 1058 973 1082 991 c 1,63,-1
 1170 829 l 1,64,65
 1120 791 1120 791 1060 764 c 128,-1,66
 1000 737 1000 737 916 724 c 0,67,68
 885 719 885 719 855 717.5 c 128,-1,69
 825 716 825 716 796 716 c 0,0,1
EndSplineSet
Substitution2: "'locl' Localized Forms in Arabic lookup 8 subtable" uni06F4.urdu
EndChar

StartChar: uni06F5
Encoding: 1781 1781 76
Width: 1379
GlyphClass: 2
Flags: W
LayerCount: 2
Fore
SplineSet
924 -31 m 2,0,1
 851 -31 851 -31 790.5 4.5 c 128,-1,2
 730 40 730 40 688 107 c 2,3,-1
 677 126 l 1,4,-1
 694 125 l 1,5,6
 684 109 684 109 676 97.5 c 128,-1,7
 668 86 668 86 660 77 c 1,8,-1
 660 78 l 1,9,10
 616 25 616 25 558.5 -2.5 c 128,-1,11
 501 -30 501 -30 435 -30 c 0,12,13
 371 -30 371 -30 310 1.5 c 128,-1,14
 249 33 249 33 204 87 c 0,15,16
 171 128 171 128 149 181 c 128,-1,17
 127 234 127 234 119 297 c 1,18,-1
 119 296 l 1,19,20
 115 319 115 319 113.5 345 c 128,-1,21
 112 371 112 371 112 398 c 0,22,23
 112 498 112 498 136 614 c 0,24,25
 154 695 154 695 182.5 778 c 128,-1,26
 211 861 211 861 252.5 952 c 128,-1,27
 294 1043 294 1043 350.5 1143.5 c 128,-1,28
 407 1244 407 1244 480 1360 c 1,29,-1
 443 1397 l 1,30,-1
 583 1537 l 1,31,32
 594 1526 594 1526 605 1514.5 c 128,-1,33
 616 1503 616 1503 630 1491 c 0,34,35
 637 1485 637 1485 644 1478.5 c 128,-1,36
 651 1472 651 1472 659 1464 c 0,37,38
 721 1407 721 1407 802 1328.5 c 128,-1,39
 883 1250 883 1250 964 1147 c 0,40,41
 1062 1022 1062 1022 1133 890.5 c 128,-1,42
 1204 759 1204 759 1248 619 c 0,43,44
 1277 524 1277 524 1277 419 c 0,45,46
 1277 402 1277 402 1276.5 385 c 128,-1,47
 1276 368 1276 368 1274 353 c 0,48,49
 1266 283 1266 283 1243 216.5 c 128,-1,50
 1220 150 1220 150 1185 102 c 0,51,52
 1138 41 1138 41 1070.5 5 c 128,-1,53
 1003 -31 1003 -31 925 -31 c 2,54,-1
 924 -31 l 2,0,1
777 533 m 1,55,56
 777 505 777 505 780.5 468.5 c 128,-1,57
 784 432 784 432 791.5 392 c 128,-1,58
 799 352 799 352 810.5 313.5 c 128,-1,59
 822 275 822 275 838.5 243 c 128,-1,60
 855 211 855 211 876.5 190 c 128,-1,61
 898 169 898 169 925 166 c 0,62,63
 988 168 988 168 1027 219 c 0,64,65
 1052 254 1052 254 1065.5 307.5 c 128,-1,66
 1079 361 1079 361 1079 420 c 0,67,68
 1079 454 1079 454 1074 490 c 128,-1,69
 1069 526 1069 526 1058 560 c 0,70,71
 1022 671 1022 671 971 768 c 128,-1,72
 920 865 920 865 862 948.5 c 128,-1,73
 804 1032 804 1032 743 1101 c 128,-1,74
 682 1170 682 1170 626 1224 c 1,75,76
 563 1122 563 1122 515 1034 c 128,-1,77
 467 946 467 946 431.5 867 c 128,-1,78
 396 788 396 788 371 715.5 c 128,-1,79
 346 643 346 643 330 573 c 0,80,81
 321 527 321 527 315.5 480 c 128,-1,82
 310 433 310 433 310 396 c 0,83,84
 310 336 310 336 323 288.5 c 128,-1,85
 336 241 336 241 359 210 c 0,86,87
 377 192 377 192 399.5 180.5 c 128,-1,88
 422 169 422 169 435 169 c 0,89,90
 521 169 521 169 568 329 c 0,91,92
 579 367 579 367 588.5 404 c 128,-1,93
 598 441 598 441 604 470 c 0,94,95
 611 504 611 504 616 535 c 1,96,-1
 777 533 l 1,55,56
EndSplineSet
PairPos2: "'kern' Horizontal Kerning in Arabic lookup 5 subtable" uni06F4.urdu dx=-100 dy=0 dh=-100 dv=0 dx=0 dy=0 dh=0 dv=0
PairPos2: "'kern' Horizontal Kerning in Arabic lookup 5 subtable" uni06F7 dx=-100 dy=0 dh=-100 dv=0 dx=0 dy=0 dh=0 dv=0
PairPos2: "'kern' Horizontal Kerning in Arabic lookup 5 subtable" uni06F3 dx=-100 dy=0 dh=-100 dv=0 dx=0 dy=0 dh=0 dv=0
PairPos2: "'kern' Horizontal Kerning in Arabic lookup 5 subtable" uni06F2 dx=-100 dy=0 dh=-100 dv=0 dx=0 dy=0 dh=0 dv=0
PairPos2: "'kern' Horizontal Kerning in Arabic lookup 5 subtable" uni06F6 dx=-100 dy=0 dh=-100 dv=0 dx=0 dy=0 dh=0 dv=0
PairPos2: "'kern' Horizontal Kerning in Arabic lookup 5 subtable" uni06F5 dx=100 dy=0 dh=100 dv=0 dx=0 dy=0 dh=0 dv=0
PairPos2: "'kern' Horizontal Kerning in Arabic lookup 5 subtable" uni0667 dx=-100 dy=0 dh=-100 dv=0 dx=0 dy=0 dh=0 dv=0
PairPos2: "'kern' Horizontal Kerning in Arabic lookup 5 subtable" uni0663 dx=-100 dy=0 dh=-100 dv=0 dx=0 dy=0 dh=0 dv=0
PairPos2: "'kern' Horizontal Kerning in Arabic lookup 5 subtable" uni0662 dx=-100 dy=0 dh=-100 dv=0 dx=0 dy=0 dh=0 dv=0
EndChar

StartChar: uni06F6
Encoding: 1782 1782 77
Width: 1176
GlyphClass: 2
Flags: W
LayerCount: 2
Fore
SplineSet
105 45 m 1,0,-1
 105 51 l 2,1,2
 105 56 105 56 107 60 c 2,3,-1
 107 59 l 2,4,5
 110 69 110 69 124 106 c 128,-1,6
 138 143 138 143 163 198 c 128,-1,7
 188 253 188 253 224.5 322 c 128,-1,8
 261 391 261 391 309 465 c 0,9,10
 360 543 360 543 418 615 c 128,-1,11
 476 687 476 687 536 744 c 1,12,13
 475 750 475 750 421 769.5 c 128,-1,14
 367 789 367 789 324 819 c 128,-1,15
 281 849 281 849 251 888.5 c 128,-1,16
 221 928 221 928 208 974 c 0,17,18
 193 1026 193 1026 193 1082 c 0,19,20
 193 1171 193 1171 236.5 1254.5 c 128,-1,21
 280 1338 280 1338 357 1398 c 0,22,23
 411 1439 411 1439 483 1466.5 c 128,-1,24
 555 1494 555 1494 627 1499 c 0,25,26
 635 1500 635 1500 644 1500 c 128,-1,27
 653 1500 653 1500 661 1500 c 0,28,29
 734 1500 734 1500 807 1479 c 128,-1,30
 880 1458 880 1458 951 1416 c 1,31,-1
 850 1244 l 1,32,33
 799 1276 799 1276 751.5 1289 c 128,-1,34
 704 1302 704 1302 661 1302 c 0,35,36
 608 1302 608 1302 558.5 1283.5 c 128,-1,37
 509 1265 509 1265 477 1242 c 0,38,39
 435 1209 435 1209 413 1167.5 c 128,-1,40
 391 1126 391 1126 391 1081 c 0,41,42
 391 1059 391 1059 399 1030 c 0,43,44
 405 1014 405 1014 421.5 998 c 128,-1,45
 438 982 438 982 462.5 969 c 128,-1,46
 487 956 487 956 518.5 947.5 c 128,-1,47
 550 939 550 939 587 939 c 0,48,49
 633 938 633 938 681.5 944 c 128,-1,50
 730 950 730 950 776 959 c 128,-1,51
 822 968 822 968 862 979 c 128,-1,52
 902 990 902 990 931 999 c 2,53,-1
 953 1006 l 1,54,-1
 953 1005 l 1,55,56
 964 1009 964 1009 980 1014.5 c 128,-1,57
 996 1020 996 1020 1007 1023 c 1,58,-1
 1065 834 l 1,59,60
 1050 827 1050 827 1032 821.5 c 128,-1,61
 1014 816 1014 816 992 809 c 1,62,-1
 993 810 l 1,63,64
 901 775 901 775 822.5 721.5 c 128,-1,65
 744 668 744 668 677.5 604 c 128,-1,66
 611 540 611 540 557 469.5 c 128,-1,67
 503 399 503 399 460 330.5 c 128,-1,68
 417 262 417 262 385 200 c 128,-1,69
 353 138 353 138 332.5 90.5 c 128,-1,70
 312 43 312 43 301.5 14.5 c 128,-1,71
 291 -14 291 -14 290 -15 c 2,72,-1
 105 45 l 1,0,-1
EndSplineSet
Substitution2: "'locl' Localized Forms in Arabic lookup 8 subtable" uni0666
PairPos2: "'kern' Horizontal Kerning in Arabic lookup 5 subtable" uni06F7.urdu dx=100 dy=0 dh=100 dv=0 dx=0 dy=0 dh=0 dv=0
PairPos2: "'kern' Horizontal Kerning in Arabic lookup 5 subtable" uni06F4.urdu dx=-50 dy=0 dh=-50 dv=0 dx=0 dy=0 dh=0 dv=0
PairPos2: "'kern' Horizontal Kerning in Arabic lookup 5 subtable" uni06F8 dx=100 dy=0 dh=100 dv=0 dx=0 dy=0 dh=0 dv=0
PairPos2: "'kern' Horizontal Kerning in Arabic lookup 5 subtable" uni06F7 dx=-50 dy=0 dh=-50 dv=0 dx=0 dy=0 dh=0 dv=0
PairPos2: "'kern' Horizontal Kerning in Arabic lookup 5 subtable" uni06F9 dx=100 dy=0 dh=100 dv=0 dx=0 dy=0 dh=0 dv=0
PairPos2: "'kern' Horizontal Kerning in Arabic lookup 5 subtable" uni06F3 dx=-50 dy=0 dh=-50 dv=0 dx=0 dy=0 dh=0 dv=0
PairPos2: "'kern' Horizontal Kerning in Arabic lookup 5 subtable" uni06F2 dx=-50 dy=0 dh=-50 dv=0 dx=0 dy=0 dh=0 dv=0
PairPos2: "'kern' Horizontal Kerning in Arabic lookup 5 subtable" uni06F6 dx=-50 dy=0 dh=-50 dv=0 dx=0 dy=0 dh=0 dv=0
PairPos2: "'kern' Horizontal Kerning in Arabic lookup 5 subtable" uni0669 dx=100 dy=0 dh=100 dv=0 dx=0 dy=0 dh=0 dv=0
PairPos2: "'kern' Horizontal Kerning in Arabic lookup 5 subtable" uni0668 dx=100 dy=0 dh=100 dv=0 dx=0 dy=0 dh=0 dv=0
PairPos2: "'kern' Horizontal Kerning in Arabic lookup 5 subtable" uni0667 dx=-50 dy=0 dh=-50 dv=0 dx=0 dy=0 dh=0 dv=0
PairPos2: "'kern' Horizontal Kerning in Arabic lookup 5 subtable" uni0666 dx=100 dy=0 dh=100 dv=0 dx=0 dy=0 dh=0 dv=0
PairPos2: "'kern' Horizontal Kerning in Arabic lookup 5 subtable" uni0664 dx=100 dy=0 dh=100 dv=0 dx=0 dy=0 dh=0 dv=0
PairPos2: "'kern' Horizontal Kerning in Arabic lookup 5 subtable" uni0663 dx=-50 dy=0 dh=-50 dv=0 dx=0 dy=0 dh=0 dv=0
PairPos2: "'kern' Horizontal Kerning in Arabic lookup 5 subtable" uni0662 dx=-50 dy=0 dh=-50 dv=0 dx=0 dy=0 dh=0 dv=0
EndChar

StartChar: uniFBA8
Encoding: 64424 64424 78
Width: 728
GlyphClass: 2
Flags: W
AnchorPoint: "Anchor-1" 356 -600 basechar 0
AnchorPoint: "Anchor-0" 300 1100 basechar 0
LayerCount: 2
Fore
SplineSet
470 -441 m 0,0,1
 413 -435 413 -435 381 -397.5 c 128,-1,2
 349 -360 349 -360 349 -309 c 0,3,4
 349 -224 349 -224 389 -134 c 128,-1,5
 429 -44 429 -44 507 59 c 1,6,-1
 580 14 l 1,7,8
 494 -105 494 -105 494 -201 c 0,9,10
 494 -238 494 -238 519.5 -261.5 c 128,-1,11
 545 -285 545 -285 605 -303 c 1,12,13
 591 -331 591 -331 572 -356 c 128,-1,14
 553 -381 553 -381 533.5 -400 c 128,-1,15
 514 -419 514 -419 497 -430 c 128,-1,16
 480 -441 480 -441 470 -441 c 0,0,1
-98 98 m 256,17,18
 -98 140 -98 140 -69.5 168 c 128,-1,19
 -41 196 -41 196 0 196 c 2,20,-1
 58 196 l 2,21,22
 111 194 111 194 160 196.5 c 128,-1,23
 209 199 209 199 250 211 c 128,-1,24
 291 223 291 223 322.5 247.5 c 128,-1,25
 354 272 354 272 374 314 c 0,26,27
 394 357 394 357 385.5 436.5 c 128,-1,28
 377 516 377 516 345 622 c 0,29,30
 334 654 334 654 319.5 691.5 c 128,-1,31
 305 729 305 729 291 761 c 0,32,33
 275 799 275 799 258 836 c 1,34,-1
 436 924 l 2,35,36
 436 923 436 923 445.5 903.5 c 128,-1,37
 455 884 455 884 469 851 c 128,-1,38
 483 818 483 818 500 774.5 c 128,-1,39
 517 731 517 731 532 682 c 0,40,41
 625 395 625 395 555 234 c 0,42,43
 484 73 484 73 303 22 c 0,44,45
 249 6 249 6 197.5 3 c 128,-1,46
 146 0 146 0 101 0 c 2,47,-1
 9 0 l 1,48,-1
 0 0 l 2,49,50
 -41 0 -41 0 -69.5 28 c 128,-1,51
 -98 56 -98 56 -98 98 c 256,17,18
EndSplineSet
EndChar

StartChar: uniFBA9
Encoding: 64425 64425 79
Width: 1011
GlyphClass: 2
Flags: W
AnchorPoint: "Anchor-1" 487 -820 basechar 0
AnchorPoint: "Anchor-0" 500 560 basechar 0
LayerCount: 2
Fore
SplineSet
361 285 m 1,0,1
 293 -64 293 -64 474 -270 c 1,2,3
 489 -188 489 -188 518.5 -106 c 128,-1,4
 548 -24 548 -24 598 46 c 0,5,6
 639 104 639 104 705.5 140.5 c 128,-1,7
 772 177 772 177 861 190 c 0,8,9
 887 194 887 194 910 195 c 128,-1,10
 933 196 933 196 952 196 c 2,11,-1
 1011 196 l 1,12,-1
 1015 196 l 2,13,14
 1056 196 1056 196 1084.5 167.5 c 128,-1,15
 1113 139 1113 139 1113 98 c 256,16,17
 1113 57 1113 57 1084.5 28.5 c 128,-1,18
 1056 0 1056 0 1015 0 c 2,19,-1
 1011 0 l 1,20,-1
 953 0 l 2,21,22
 930 0 930 0 902.5 -2.5 c 128,-1,23
 875 -5 875 -5 847 -12 c 128,-1,24
 819 -19 819 -19 795 -32 c 128,-1,25
 771 -45 771 -45 756 -66 c 0,26,27
 726 -109 726 -109 706 -160.5 c 128,-1,28
 686 -212 686 -212 674 -265 c 128,-1,29
 662 -318 662 -318 657 -369 c 128,-1,30
 652 -420 652 -420 653 -462 c 1,31,-1
 504 -546 l 1,32,33
 333 -439 333 -439 243 -278 c 0,34,35
 205 -209 205 -209 182.5 -134.5 c 128,-1,36
 160 -60 160 -60 152 23 c 1,37,38
 117 12 117 12 76.5 6 c 128,-1,39
 36 0 36 0 -12 0 c 1,40,-1
 -12 196 l 1,41,42
 36 196 36 196 69 202.5 c 128,-1,43
 102 209 102 209 119 223 c 0,44,45
 130 232 130 232 137.5 248 c 128,-1,46
 145 264 145 264 154 288 c 0,47,48
 159 302 159 302 165 317.5 c 128,-1,49
 171 333 171 333 180 349 c 1,50,-1
 361 285 l 1,0,1
841 -547 m 0,51,52
 784 -541 784 -541 752.5 -503 c 128,-1,53
 721 -465 721 -465 721 -416 c 0,54,55
 721 -372 721 -372 730.5 -330.5 c 128,-1,56
 740 -289 740 -289 758.5 -247 c 128,-1,57
 777 -205 777 -205 804.5 -161.5 c 128,-1,58
 832 -118 832 -118 868 -70 c 1,59,-1
 942 -115 l 1,60,61
 866 -218 866 -218 866 -307 c 0,62,63
 866 -344 866 -344 891.5 -367.5 c 128,-1,64
 917 -391 917 -391 977 -410 c 1,65,66
 965 -439 965 -439 945.5 -463.5 c 128,-1,67
 926 -488 926 -488 905.5 -506.5 c 128,-1,68
 885 -525 885 -525 867.5 -535.5 c 128,-1,69
 850 -546 850 -546 841 -547 c 0,51,52
EndSplineSet
EndChar

StartChar: uni06BE
Encoding: 1726 1726 80
AltUni2: 00fbaa.ffffffff.0
Width: 1520
GlyphClass: 2
Flags: W
AnchorPoint: "Anchor-1" 780 -220 basechar 0
AnchorPoint: "Anchor-0" 680 1400 basechar 0
LayerCount: 2
Fore
SplineSet
882 202 m 1,0,1
 908 199 908 199 931.5 197 c 128,-1,2
 955 195 955 195 977 195 c 0,3,4
 1058 195 1058 195 1119 227 c 128,-1,5
 1180 259 1180 259 1211 317 c 0,6,7
 1237 368 1237 368 1231.5 423.5 c 128,-1,8
 1226 479 1226 479 1189 531 c 0,9,10
 1133 614 1133 614 990 702 c 1,11,12
 999 670 999 670 1004 632.5 c 128,-1,13
 1009 595 1009 595 1009 552 c 0,14,15
 1009 496 1009 496 1001.5 448 c 128,-1,16
 994 400 994 400 977 354 c 0,17,18
 945 270 945 270 882 202 c 1,0,1
671 756 m 0,19,20
 648 756 648 756 614.5 741 c 128,-1,21
 581 726 581 726 549 689 c 0,22,23
 539 677 539 677 527 659.5 c 128,-1,24
 515 642 515 642 505.5 618 c 128,-1,25
 496 594 496 594 491 563.5 c 128,-1,26
 486 533 486 533 490 497 c 0,27,28
 500 421 500 421 544.5 367.5 c 128,-1,29
 589 314 589 314 652 277 c 1,30,31
 672 287 672 287 687.5 297 c 128,-1,32
 703 307 703 307 717 318 c 0,33,34
 767 360 767 360 789.5 415.5 c 128,-1,35
 812 471 812 471 812 552 c 0,36,37
 812 623 812 623 794.5 664 c 128,-1,38
 777 705 777 705 754 725.5 c 128,-1,39
 731 746 731 746 707 751 c 128,-1,40
 683 756 683 756 671 756 c 0,19,20
68 176 m 0,41,42
 68 197 68 197 80 214.5 c 128,-1,43
 92 232 92 232 110.5 244 c 128,-1,44
 129 256 129 256 150.5 260.5 c 128,-1,45
 172 265 172 265 191 259 c 0,46,47
 230 247 230 247 271 237.5 c 128,-1,48
 312 228 312 228 345 222 c 128,-1,49
 378 216 378 216 399 213.5 c 128,-1,50
 420 211 420 211 419 212 c 0,51,52
 408 223 408 223 399.5 232 c 128,-1,53
 391 241 391 241 385 251 c 0,54,55
 346 301 346 301 324 356 c 128,-1,56
 302 411 302 411 294 473 c 0,57,58
 281 570 281 570 309 659.5 c 128,-1,59
 337 749 337 749 402 821 c 0,60,61
 454 881 454 881 521 914 c 1,62,63
 474 933 474 933 466 933 c 1,64,-1
 524 1122 l 2,65,66
 527 1122 527 1122 554 1113.5 c 128,-1,67
 581 1105 581 1105 626 1088.5 c 128,-1,68
 671 1072 671 1072 730 1048.5 c 128,-1,69
 789 1025 789 1025 855 996 c 0,70,71
 1223 829 1223 829 1351 644 c 0,72,73
 1385 595 1385 595 1404.5 542.5 c 128,-1,74
 1424 490 1424 490 1428.5 436 c 128,-1,75
 1433 382 1433 382 1422.5 329 c 128,-1,76
 1412 276 1412 276 1386 226 c 0,77,78
 1329 120 1329 120 1224 60 c 0,79,80
 1170 28 1170 28 1107.5 12.5 c 128,-1,81
 1045 -3 1045 -3 977 -3 c 0,82,83
 892 -3 892 -3 807.5 13 c 128,-1,84
 723 29 723 29 647 62 c 1,85,86
 597 37 597 37 539 28.5 c 128,-1,87
 481 20 481 20 418 24 c 128,-1,88
 355 28 355 28 288.5 41 c 128,-1,89
 222 54 222 54 156 72 c 0,90,91
 110 87 110 87 89 111 c 128,-1,92
 68 135 68 135 68 176 c 0,41,42
EndSplineSet
Substitution2: "'fina' Terminal Forms in Arabic lookup 7 subtable" uniFBAB
Substitution2: "'medi' Medial Forms in Arabic lookup 3 subtable" uniFBAD
Substitution2: "'init' Initial Forms in Arabic lookup 1 subtable" uniFBAC
EndChar

StartChar: uni06D2
Encoding: 1746 1746 81
AltUni2: 00fbae.ffffffff.0
Width: 2130
GlyphClass: 2
Flags: W
AnchorPoint: "Anchor-1" 760 -240 basechar 0
AnchorPoint: "Anchor-0" 600 890 basechar 0
LayerCount: 2
Fore
SplineSet
962 -214 m 0,0,1
 888 -214 888 -214 820 -211.5 c 128,-1,2
 752 -209 752 -209 691 -204 c 0,3,4
 588 -195 588 -195 500 -178 c 128,-1,5
 412 -161 412 -161 343 -137 c 0,6,7
 166 -78 166 -78 123 28 c 0,8,9
 117 42 117 42 112 63.5 c 128,-1,10
 107 85 107 85 109.5 111 c 128,-1,11
 112 137 112 137 123.5 167 c 128,-1,12
 135 197 135 197 162 229 c 0,13,14
 234 317 234 317 415 369 c 0,15,16
 457 381 457 381 499.5 390.5 c 128,-1,17
 542 400 542 400 580 406.5 c 128,-1,18
 618 413 618 413 650 417 c 128,-1,19
 682 421 682 421 705 423 c 0,20,21
 805 433 805 433 874.5 438.5 c 128,-1,22
 944 444 944 444 988 446.5 c 128,-1,23
 1032 449 1032 449 1052 449.5 c 128,-1,24
 1072 450 1072 450 1074 450 c 2,25,-1
 1074 249 l 1,26,27
 1074 249 1074 249 1055 248.5 c 128,-1,28
 1036 248 1036 248 994.5 245.5 c 128,-1,29
 953 243 953 243 886.5 238 c 128,-1,30
 820 233 820 233 725 223 c 0,31,32
 642 215 642 215 573 201 c 128,-1,33
 504 187 504 187 451.5 170.5 c 128,-1,34
 399 154 399 154 364 135.5 c 128,-1,35
 329 117 329 117 316 101 c 0,36,37
 314 99 314 99 314 99 c 1,38,39
 324 91 324 91 348.5 77 c 128,-1,40
 373 63 373 63 418 49 c 0,41,42
 475 30 475 30 548.5 17 c 128,-1,43
 622 4 622 4 709 -4 c 0,44,45
 792 -11 792 -11 891.5 -12.5 c 128,-1,46
 991 -14 991 -14 1098 -11.5 c 128,-1,47
 1205 -9 1205 -9 1314 -3 c 128,-1,48
 1423 3 1423 3 1524 10 c 128,-1,49
 1625 17 1625 17 1713.5 25 c 128,-1,50
 1802 33 1802 33 1868.5 39 c 128,-1,51
 1935 45 1935 45 1973.5 49.5 c 128,-1,52
 2012 54 2012 54 2014 54 c 2,53,-1
 2037 -145 l 1,54,55
 2029 -146 2029 -146 1979 -151.5 c 128,-1,56
 1929 -157 1929 -157 1848 -164.5 c 128,-1,57
 1767 -172 1767 -172 1662 -180.5 c 128,-1,58
 1557 -189 1557 -189 1440 -196.5 c 128,-1,59
 1323 -204 1323 -204 1200.5 -209 c 128,-1,60
 1078 -214 1078 -214 962 -214 c 0,0,1
EndSplineSet
Substitution2: "'fina' Terminal Forms in Arabic lookup 7 subtable" uniFBAF
EndChar

StartChar: uniFBAF
Encoding: 64431 64431 82
Width: 1429
GlyphClass: 2
Flags: W
AnchorPoint: "Anchor-1" 640 -640 basechar 0
AnchorPoint: "Anchor-0" 680 380 basechar 0
LayerCount: 2
Fore
SplineSet
893 -476 m 0,0,1
 807 -476 807 -476 716.5 -472 c 128,-1,2
 626 -468 626 -468 536 -457 c 0,3,4
 458 -448 458 -448 392 -432 c 128,-1,5
 326 -416 326 -416 272 -393 c 0,6,7
 139 -337 139 -337 95 -245 c 0,8,9
 71 -194 71 -194 75.5 -140.5 c 128,-1,10
 80 -87 80 -87 113 -35 c 0,11,12
 171 58 171 58 316 113 c 0,13,14
 350 126 350 126 383.5 135.5 c 128,-1,15
 417 145 417 145 447 151.5 c 128,-1,16
 477 158 477 158 502 162.5 c 128,-1,17
 527 167 527 167 545 169 c 0,18,19
 621 179 621 179 691.5 184.5 c 128,-1,20
 762 190 762 190 817 192.5 c 128,-1,21
 872 195 872 195 906.5 195.5 c 128,-1,22
 941 196 941 196 944 196 c 2,23,-1
 1429 196 l 2,24,25
 1470 196 1470 196 1498.5 167.5 c 128,-1,26
 1527 139 1527 139 1527 98 c 256,27,28
 1527 57 1527 57 1498.5 28.5 c 128,-1,29
 1470 0 1470 0 1429 0 c 2,30,-1
 944 0 l 2,31,32
 943 0 943 0 911 -1 c 128,-1,33
 879 -2 879 -2 826.5 -5.5 c 128,-1,34
 774 -9 774 -9 707.5 -15 c 128,-1,35
 641 -21 641 -21 572 -30 c 0,36,37
 547 -33 547 -33 519 -38 c 128,-1,38
 491 -43 491 -43 463.5 -48.5 c 128,-1,39
 436 -54 436 -54 410.5 -61 c 128,-1,40
 385 -68 385 -68 365 -75 c 0,41,42
 309 -97 309 -97 286.5 -116 c 128,-1,43
 264 -135 264 -135 259 -142 c 256,44,45
 254 -149 254 -149 253 -152.5 c 128,-1,46
 252 -156 252 -156 252 -157 c 256,47,48
 252 -158 252 -158 255 -163 c 128,-1,49
 258 -168 258 -168 265 -175.5 c 128,-1,50
 272 -183 272 -183 284.5 -192 c 128,-1,51
 297 -201 297 -201 317 -210 c 0,52,53
 338 -219 338 -219 365.5 -227.5 c 128,-1,54
 393 -236 393 -236 425 -242.5 c 128,-1,55
 457 -249 457 -249 491.5 -254.5 c 128,-1,56
 526 -260 526 -260 559 -264 c 0,57,58
 642 -273 642 -273 731.5 -277 c 128,-1,59
 821 -281 821 -281 906.5 -281 c 128,-1,60
 992 -281 992 -281 1069 -278 c 128,-1,61
 1146 -275 1146 -275 1204 -271.5 c 128,-1,62
 1262 -268 1262 -268 1296.5 -265.5 c 128,-1,63
 1331 -263 1331 -263 1332 -263 c 2,64,-1
 1352 -457 l 2,65,66
 1348 -457 1348 -457 1307.5 -460 c 128,-1,67
 1267 -463 1267 -463 1203 -466.5 c 128,-1,68
 1139 -470 1139 -470 1058 -473 c 128,-1,69
 977 -476 977 -476 893 -476 c 0,0,1
EndSplineSet
EndChar

StartChar: uni06A9
Encoding: 1705 1705 83
AltUni2: 00fb8e.ffffffff.0
Width: 2138
GlyphClass: 2
Flags: W
AnchorPoint: "Anchor-1" 940 -200 basechar 0
AnchorPoint: "Anchor-0" 835 1390 basechar 0
LayerCount: 2
Fore
SplineSet
2136 1460 m 1,0,-1
 1374 1141 l 1,1,2
 1453 1074 1453 1074 1533 1005.5 c 128,-1,3
 1613 937 1613 937 1681 866 c 128,-1,4
 1749 795 1749 795 1799 720 c 128,-1,5
 1849 645 1849 645 1870 566.5 c 128,-1,6
 1891 488 1891 488 1876 405 c 128,-1,7
 1861 322 1861 322 1799 233 c 0,8,9
 1793 225 1793 225 1780.5 210.5 c 128,-1,10
 1768 196 1768 196 1746.5 178 c 128,-1,11
 1725 160 1725 160 1693.5 139.5 c 128,-1,12
 1662 119 1662 119 1619 98 c 0,13,14
 1543 63 1543 63 1464 43 c 128,-1,15
 1385 23 1385 23 1304 13.5 c 128,-1,16
 1223 4 1223 4 1140.5 2 c 128,-1,17
 1058 0 1058 0 976 3 c 0,18,19
 796 5 796 5 653 24.5 c 128,-1,20
 510 44 510 44 401 84 c 0,21,22
 195 165 195 165 121 314 c 0,23,24
 79 394 79 394 79 488.5 c 128,-1,25
 79 583 79 583 118 688 c 0,26,27
 147 760 147 760 175 804.5 c 128,-1,28
 203 849 203 849 208 857 c 1,29,-1
 366 740 l 1,30,-1
 343 703 l 2,31,32
 334 686 334 686 322.5 664 c 128,-1,33
 311 642 311 642 301 614 c 0,34,35
 256 484 256 484 297 404 c 0,36,37
 347 305 347 305 522 253.5 c 128,-1,38
 697 202 697 202 979 201 c 1,39,40
 1084 196 1084 196 1168.5 201 c 128,-1,41
 1253 206 1253 206 1318.5 216.5 c 128,-1,42
 1384 227 1384 227 1432.5 241 c 128,-1,43
 1481 255 1481 255 1514 269 c 0,44,45
 1576 295 1576 295 1602.5 316 c 128,-1,46
 1629 337 1629 337 1634 342 c 2,47,-1
 1637 345 l 1,48,-1
 1641 352 l 1,49,50
 1676 393 1676 393 1681.5 438.5 c 128,-1,51
 1687 484 1687 484 1671.5 531.5 c 128,-1,52
 1656 579 1656 579 1622.5 628 c 128,-1,53
 1589 677 1589 677 1545 725 c 128,-1,54
 1501 773 1501 773 1450 819 c 128,-1,55
 1399 865 1399 865 1349 907.5 c 128,-1,56
 1299 950 1299 950 1253.5 987 c 128,-1,57
 1208 1024 1208 1024 1174 1054 c 1,58,-1
 1199 1283 l 1,59,-1
 2059 1642 l 1,60,-1
 2136 1460 l 1,0,-1
EndSplineSet
Substitution2: "'fina' Terminal Forms in Arabic lookup 7 subtable" uniFB8F
Substitution2: "'medi' Medial Forms in Arabic lookup 3 subtable" uniFB91
Substitution2: "'init' Initial Forms in Arabic lookup 1 subtable" uniFB90
PairPos2: "'kern' Horizontal Kerning in Arabic lookup 4 subtable" parenleft dx=-200 dy=0 dh=-200 dv=0 dx=0 dy=0 dh=0 dv=0
EndChar

StartChar: uniFB8F
Encoding: 64399 64399 84
Width: 2321
GlyphClass: 2
Flags: W
AnchorPoint: "Anchor-1" 940 -200 basechar 0
AnchorPoint: "Anchor-0" 900 1390 basechar 0
LayerCount: 2
Fore
SplineSet
2320 196 m 2,0,1
 2362 196 2362 196 2390 168 c 128,-1,2
 2418 140 2418 140 2418 98 c 0,3,4
 2418 57 2418 57 2390 28.5 c 128,-1,5
 2362 0 2362 0 2320 0 c 0,6,7
 2154 0 2154 0 2017.5 63 c 128,-1,8
 1881 126 1881 126 1792 250 c 1,9,10
 1776 223 1776 223 1754 200 c 128,-1,11
 1732 177 1732 177 1706.5 158 c 128,-1,12
 1681 139 1681 139 1653.5 123 c 128,-1,13
 1626 107 1626 107 1598 94 c 0,14,15
 1389 0 1389 0 1049 0 c 2,16,-1
 957 0 l 2,17,18
 850 0 850 0 756 9 c 0,19,20
 681 14 681 14 610.5 25 c 128,-1,21
 540 36 540 36 471 55 c 0,22,23
 459 58 459 58 436 65.5 c 128,-1,24
 413 73 413 73 389 82 c 128,-1,25
 365 91 365 91 344 99 c 128,-1,26
 323 107 323 107 315 111 c 0,27,28
 254 142 254 142 209 180 c 0,29,30
 177 205 177 205 150.5 238 c 128,-1,31
 124 271 124 271 101 313 c 0,32,33
 100 314 100 314 100 317 c 0,34,35
 83 353 83 353 72 395 c 128,-1,36
 61 437 61 437 59 484 c 128,-1,37
 57 531 57 531 66 582 c 128,-1,38
 75 633 75 633 98 686 c 0,39,40
 129 757 129 757 156 802.5 c 128,-1,41
 183 848 183 848 188 856 c 1,42,-1
 346 738 l 1,43,44
 330 713 330 713 318 689 c 0,45,46
 307 669 307 669 297 647.5 c 128,-1,47
 287 626 287 626 282 612 c 0,48,49
 236 485 236 485 278 402 c 0,50,51
 316 325 316 325 432.5 276 c 128,-1,52
 549 227 549 227 735 208 c 0,53,54
 803 203 803 203 862.5 201 c 128,-1,55
 922 199 922 199 966 199 c 0,56,57
 1068 195 1068 195 1150.5 200 c 128,-1,58
 1233 205 1233 205 1298 215 c 128,-1,59
 1363 225 1363 225 1411.5 238.5 c 128,-1,60
 1460 252 1460 252 1493 265 c 0,61,62
 1580 298 1580 298 1622 344 c 128,-1,63
 1664 390 1664 390 1670.5 443.5 c 128,-1,64
 1677 497 1677 497 1654 555.5 c 128,-1,65
 1631 614 1631 614 1589.5 674 c 128,-1,66
 1548 734 1548 734 1493 792 c 128,-1,67
 1438 850 1438 850 1381 902 c 128,-1,68
 1324 954 1324 954 1270 998 c 128,-1,69
 1216 1042 1216 1042 1176 1073 c 1,70,-1
 1198 1279 l 1,71,-1
 2095 1665 l 1,72,-1
 2170 1483 l 1,73,-1
 1378 1149 l 1,74,75
 1462 1090 1462 1090 1537.5 1023 c 128,-1,76
 1613 956 1613 956 1675 883 c 128,-1,77
 1737 810 1737 810 1783 733.5 c 128,-1,78
 1829 657 1829 657 1855 581 c 0,79,80
 1871 533 1871 533 1891 484 c 128,-1,81
 1911 435 1911 435 1940 389 c 128,-1,82
 1969 343 1969 343 2011 303 c 128,-1,83
 2053 263 2053 263 2114 234 c 0,84,85
 2193 197 2193 197 2312 196 c 2,86,-1
 2320 196 l 2,0,1
EndSplineSet
PairPos2: "'kern' Horizontal Kerning in Arabic lookup 4 subtable" parenleft dx=-200 dy=0 dh=-200 dv=0 dx=0 dy=0 dh=0 dv=0
EndChar

StartChar: uni06BA
Encoding: 1722 1722 89
AltUni2: 00fb9e.ffffffff.0
Width: 1630
GlyphClass: 2
Flags: W
AnchorPoint: "Anchor-1" 820 -840 basechar 0
AnchorPoint: "Anchor-0" 810 700 basechar 0
LayerCount: 2
Fore
SplineSet
741 -688 m 0,0,1
 476 -688 476 -688 308 -538 c 0,2,3
 229 -469 229 -469 180.5 -376 c 128,-1,4
 132 -283 132 -283 116 -172 c 0,5,6
 106 -111 106 -111 107 -49.5 c 128,-1,7
 108 12 108 12 115 69 c 128,-1,8
 122 126 122 126 134 176.5 c 128,-1,9
 146 227 146 227 158 267 c 0,10,11
 189 369 189 369 225.5 441.5 c 128,-1,12
 262 514 262 514 286 549 c 1,13,-1
 445 432 l 1,14,15
 432 414 432 414 415 380.5 c 128,-1,16
 398 347 398 347 380.5 302.5 c 128,-1,17
 363 258 363 258 347 204 c 128,-1,18
 331 150 331 150 320.5 91.5 c 128,-1,19
 310 33 310 33 307 -27 c 128,-1,20
 304 -87 304 -87 312 -144 c 0,21,22
 316 -170 316 -170 328 -205 c 128,-1,23
 340 -240 340 -240 362.5 -277 c 128,-1,24
 385 -314 385 -314 419.5 -350.5 c 128,-1,25
 454 -387 454 -387 503.5 -416.5 c 128,-1,26
 553 -446 553 -446 618.5 -465.5 c 128,-1,27
 684 -485 684 -485 770 -489 c 0,28,29
 775 -489 775 -489 774 -489.5 c 128,-1,30
 773 -490 773 -490 771 -490 c 128,-1,31
 769 -490 769 -490 768 -490 c 128,-1,32
 767 -490 767 -490 772 -489 c 0,33,34
 984 -480 984 -480 1114 -405 c 128,-1,35
 1244 -330 1244 -330 1290 -191 c 0,36,37
 1316 -105 1316 -105 1317.5 -18 c 128,-1,38
 1319 69 1319 69 1305.5 149 c 128,-1,39
 1292 229 1292 229 1268.5 298.5 c 128,-1,40
 1245 368 1245 368 1222 419.5 c 128,-1,41
 1199 471 1199 471 1182 500.5 c 128,-1,42
 1165 530 1165 530 1164 530 c 2,43,-1
 1330 636 l 1,44,45
 1333 631 1333 631 1355 594 c 128,-1,46
 1377 557 1377 557 1405 494.5 c 128,-1,47
 1433 432 1433 432 1461 348.5 c 128,-1,48
 1489 265 1489 265 1504 168 c 128,-1,49
 1519 71 1519 71 1515.5 -36 c 128,-1,50
 1512 -143 1512 -143 1477 -251 c 0,51,52
 1448 -345 1448 -345 1391 -420.5 c 128,-1,53
 1334 -496 1334 -496 1250 -551 c 0,54,55
 1159 -614 1159 -614 1042 -647 c 128,-1,56
 925 -680 925 -680 780 -687 c 0,57,58
 770 -687 770 -687 760 -687.5 c 128,-1,59
 750 -688 750 -688 741 -688 c 0,0,1
EndSplineSet
Substitution2: "'fina' Terminal Forms in Arabic lookup 7 subtable" uniFB9F
Substitution2: "'medi' Medial Forms in Arabic lookup 3 subtable" uniFEE8
Substitution2: "'init' Initial Forms in Arabic lookup 1 subtable" uniFEE7
EndChar

StartChar: uniFB9F
Encoding: 64415 64415 90
Width: 1709
GlyphClass: 2
Flags: W
AnchorPoint: "Anchor-1" 640 -800 basechar 0
AnchorPoint: "Anchor-0" 790 680 basechar 0
LayerCount: 2
Fore
SplineSet
1707 0 m 0,0,1
 1574 0 1574 0 1468 62 c 1,2,3
 1472 -14 1472 -14 1463.5 -92.5 c 128,-1,4
 1455 -171 1455 -171 1430 -252 c 0,5,6
 1401 -344 1401 -344 1344 -420.5 c 128,-1,7
 1287 -497 1287 -497 1203 -551 c 0,8,9
 1111 -614 1111 -614 995 -646.5 c 128,-1,10
 879 -679 879 -679 734 -687 c 1,11,-1
 693 -687 l 2,12,13
 562 -687 562 -687 454 -649 c 128,-1,14
 346 -611 346 -611 261 -539 c 0,15,16
 184 -470 184 -470 134.5 -376 c 128,-1,17
 85 -282 85 -282 69 -172 c 0,18,19
 61 -111 61 -111 61.5 -50 c 128,-1,20
 62 11 62 11 69 68 c 128,-1,21
 76 125 76 125 87 176 c 128,-1,22
 98 227 98 227 111 268 c 0,23,24
 143 370 143 370 178 441.5 c 128,-1,25
 213 513 213 513 238 549 c 1,26,-1
 398 433 l 1,27,28
 385 416 385 416 367.5 382 c 128,-1,29
 350 348 350 348 332.5 303 c 128,-1,30
 315 258 315 258 299 204.5 c 128,-1,31
 283 151 283 151 272.5 92.5 c 128,-1,32
 262 34 262 34 259 -26.5 c 128,-1,33
 256 -87 256 -87 265 -144 c 0,34,35
 269 -170 269 -170 279 -206 c 128,-1,36
 289 -242 289 -242 308 -280.5 c 128,-1,37
 327 -319 327 -319 357.5 -357 c 128,-1,38
 388 -395 388 -395 434 -424.5 c 128,-1,39
 480 -454 480 -454 543.5 -472.5 c 128,-1,40
 607 -491 607 -491 692 -491 c 2,41,-1
 707 -491 l 2,42,43
 712 -491 712 -491 716.5 -491 c 128,-1,44
 721 -491 721 -491 726 -490 c 0,45,46
 937 -479 937 -479 1067 -404.5 c 128,-1,47
 1197 -330 1197 -330 1241 -192 c 0,48,49
 1268 -105 1268 -105 1269.5 -19 c 128,-1,50
 1271 67 1271 67 1258 145.5 c 128,-1,51
 1245 224 1245 224 1222 292 c 128,-1,52
 1199 360 1199 360 1176 413 c 0,53,54
 1165 433 1165 433 1156 454 c 128,-1,55
 1147 475 1147 475 1136 497 c 0,56,57
 1128 513 1128 513 1122 521 c 128,-1,58
 1116 529 1116 529 1116 531 c 2,59,-1
 1283 637 l 1,60,61
 1286 633 1286 633 1305.5 597 c 128,-1,62
 1325 561 1325 561 1354 501 c 0,63,64
 1409 397 1409 397 1457.5 336 c 128,-1,65
 1506 275 1506 275 1550 244 c 128,-1,66
 1594 213 1594 213 1633 204.5 c 128,-1,67
 1672 196 1672 196 1707 196 c 0,68,69
 1749 196 1749 196 1777.5 168 c 128,-1,70
 1806 140 1806 140 1806 98 c 0,71,72
 1806 57 1806 57 1777.5 28.5 c 128,-1,73
 1749 0 1749 0 1707 0 c 0,0,1
EndSplineSet
EndChar

StartChar: uni066A
Encoding: 1642 1642 91
Width: 1217
GlyphClass: 2
Flags: W
LayerCount: 2
Fore
SplineSet
183 -1 m 1,0,-1
 776 1569 l 1,1,-1
 998 1569 l 1,2,-1
 403 -1 l 1,3,-1
 183 -1 l 1,0,-1
1118 207 m 1,4,-1
 916 6 l 1,5,-1
 713 209 l 1,6,-1
 915 410 l 1,7,-1
 1118 207 l 1,4,-1
487 1327 m 1,8,-1
 285 1126 l 1,9,-1
 82 1329 l 1,10,-1
 284 1530 l 1,11,-1
 487 1327 l 1,8,-1
EndSplineSet
EndChar

StartChar: uni061F
Encoding: 1567 1567 92
Width: 1024
GlyphClass: 2
Flags: W
LayerCount: 2
Fore
SplineSet
555 913 m 1,0,1
 655 803 655 803 655 598 c 2,2,-1
 655 455 l 1,3,-1
 469 455 l 1,4,-1
 469 598 l 2,5,6
 469 735 469 735 363 829 c 0,7,8
 314 870 314 870 265.5 910.5 c 128,-1,9
 217 951 217 951 167 991 c 1,10,11
 63 1103 63 1103 63 1270 c 256,12,13
 63 1437 63 1437 206 1554 c 0,14,15
 275 1610 275 1610 351 1638.5 c 128,-1,16
 427 1667 427 1667 513 1667 c 0,17,18
 712 1667 712 1667 830 1537 c 0,19,20
 944 1406 944 1406 944 1198 c 1,21,-1
 758 1198 l 1,22,23
 758 1480 758 1480 513 1480 c 0,24,25
 467 1480 467 1480 425.5 1466 c 128,-1,26
 384 1452 384 1452 346 1422 c 0,27,28
 265 1358 265 1358 265 1271 c 0,29,30
 265 1138 265 1138 367 1057 c 0,31,32
 414 1020 414 1020 460.5 984 c 128,-1,33
 507 948 507 948 555 913 c 1,0,1
727 155 m 1,34,-1
 564 -8 l 1,35,-1
 409 147 l 1,36,-1
 571 311 l 1,37,-1
 727 155 l 1,34,-1
EndSplineSet
EndChar

StartChar: uni060C
Encoding: 1548 1548 93
Width: 630
GlyphClass: 2
Flags: W
LayerCount: 2
Fore
SplineSet
556 149 m 0,0,1
 556 103 556 103 517 58 c 0,2,3
 466 1 466 1 385 1 c 0,4,5
 293 1 293 1 241 70 c 0,6,7
 193 133 193 133 193 228 c 0,8,9
 193 463 193 463 431 632 c 1,10,11
 451 618 451 618 473.5 600 c 128,-1,12
 496 582 496 582 522 561 c 1,13,14
 333 424 333 424 333 280 c 1,15,16
 359 300 359 300 419 300 c 1,17,18
 546 282 546 282 556 149 c 0,0,1
EndSplineSet
EndChar

StartChar: uni061B
Encoding: 1563 1563 94
Width: 512
GlyphClass: 2
Flags: W
LayerCount: 2
Fore
SplineSet
374 125 m 0,0,1
 374 76 374 76 336 38 c 0,2,3
 298 2 298 2 249 2 c 0,4,5
 198 2 198 2 161 38 c 0,6,7
 124 75 124 75 124 125 c 0,8,9
 124 176 124 176 161 213 c 256,10,11
 198 250 198 250 249 250 c 0,12,13
 299 250 299 250 336 213 c 0,14,15
 374 175 374 175 374 125 c 0,0,1
427 570 m 0,16,17
 427 524 427 524 388 479 c 0,18,19
 337 422 337 422 256 422 c 0,20,21
 164 422 164 422 112 491 c 0,22,23
 64 554 64 554 64 649 c 0,24,25
 64 885 64 885 248 1003 c 1,26,27
 268 989 268 989 290.5 971 c 128,-1,28
 313 953 313 953 339 932 c 1,29,30
 204 845 204 845 204 701 c 1,31,32
 252 715 252 715 290 715 c 0,33,34
 427 715 427 715 427 570 c 0,16,17
EndSplineSet
EndChar

StartChar: uni066B
Encoding: 1643 1643 95
Width: 689
GlyphClass: 2
Flags: W
LayerCount: 2
Fore
SplineSet
-38 -245 m 1,0,-1
 444 839 l 1,1,-1
 588 839 l 1,2,-1
 107 -245 l 1,3,-1
 -38 -245 l 1,0,-1
EndSplineSet
PairPos2: "'kern' Horizontal Kerning in Arabic lookup 5 subtable" uni06F7.urdu dx=100 dy=0 dh=100 dv=0 dx=0 dy=0 dh=0 dv=0
PairPos2: "'kern' Horizontal Kerning in Arabic lookup 5 subtable" uni06F4.urdu dx=-200 dy=0 dh=-200 dv=0 dx=0 dy=0 dh=0 dv=0
PairPos2: "'kern' Horizontal Kerning in Arabic lookup 5 subtable" uni06F8 dx=100 dy=0 dh=100 dv=0 dx=0 dy=0 dh=0 dv=0
PairPos2: "'kern' Horizontal Kerning in Arabic lookup 5 subtable" uni06F7 dx=-200 dy=0 dh=-200 dv=0 dx=0 dy=0 dh=0 dv=0
PairPos2: "'kern' Horizontal Kerning in Arabic lookup 5 subtable" uni06F9 dx=100 dy=0 dh=100 dv=0 dx=0 dy=0 dh=0 dv=0
PairPos2: "'kern' Horizontal Kerning in Arabic lookup 5 subtable" uni06F3 dx=-200 dy=0 dh=-200 dv=0 dx=0 dy=0 dh=0 dv=0
PairPos2: "'kern' Horizontal Kerning in Arabic lookup 5 subtable" uni06F2 dx=-200 dy=0 dh=-200 dv=0 dx=0 dy=0 dh=0 dv=0
PairPos2: "'kern' Horizontal Kerning in Arabic lookup 5 subtable" uni06F6 dx=-200 dy=0 dh=-200 dv=0 dx=0 dy=0 dh=0 dv=0
PairPos2: "'kern' Horizontal Kerning in Arabic lookup 5 subtable" uni06F4 dx=-200 dy=0 dh=-200 dv=0 dx=0 dy=0 dh=0 dv=0
PairPos2: "'kern' Horizontal Kerning in Arabic lookup 5 subtable" uni0669 dx=100 dy=0 dh=100 dv=0 dx=0 dy=0 dh=0 dv=0
PairPos2: "'kern' Horizontal Kerning in Arabic lookup 5 subtable" uni0668 dx=100 dy=0 dh=100 dv=0 dx=0 dy=0 dh=0 dv=0
PairPos2: "'kern' Horizontal Kerning in Arabic lookup 5 subtable" uni0667 dx=-200 dy=0 dh=-200 dv=0 dx=0 dy=0 dh=0 dv=0
PairPos2: "'kern' Horizontal Kerning in Arabic lookup 5 subtable" uni0666 dx=100 dy=0 dh=100 dv=0 dx=0 dy=0 dh=0 dv=0
PairPos2: "'kern' Horizontal Kerning in Arabic lookup 5 subtable" uni0664 dx=100 dy=0 dh=100 dv=0 dx=0 dy=0 dh=0 dv=0
PairPos2: "'kern' Horizontal Kerning in Arabic lookup 5 subtable" uni0663 dx=-200 dy=0 dh=-200 dv=0 dx=0 dy=0 dh=0 dv=0
PairPos2: "'kern' Horizontal Kerning in Arabic lookup 5 subtable" uni0662 dx=-200 dy=0 dh=-200 dv=0 dx=0 dy=0 dh=0 dv=0
EndChar

